<svg width="1000" height="1000" viewBox="0 0 1000 1000" fill="none" xmlns="http://www.w3.org/2000/svg">
<path d="M7.80571 254.868V254.517H9.17071C11.0427 254.517 11.2377 253.971 11.2377 252.099V229.596C11.2377 227.724 11.0427 227.178 9.17071 227.178H7.80571V226.827H31.4787V227.178H30.0747C28.2027 227.178 28.0077 227.724 28.0077 229.596V252.099C28.0077 253.971 28.2027 254.517 30.0747 254.517H31.4787V254.868H21.8457V254.517H22.8987C24.7707 254.517 24.9657 253.971 24.9657 252.099V227.529H14.2797V252.099C14.2797 253.971 14.5137 254.517 16.3857 254.517H17.3997V254.868H7.80571ZM32.8282 254.868V254.517H34.1932C36.0652 254.517 36.2602 253.971 36.2602 252.099V229.596C36.2602 227.724 36.0652 227.178 34.1932 227.178H32.8282V226.827H42.4222V227.178H41.4082C39.5362 227.178 39.3022 227.724 39.3022 229.596V239.775H49.9882V229.596C49.9882 227.724 49.7542 227.178 47.8822 227.178H46.8682V226.827H56.5012V227.178H55.0972C53.2252 227.178 53.0302 227.724 53.0302 229.596V252.099C53.0302 253.971 53.2252 254.517 55.0972 254.517H56.5012V254.868H46.8682V254.517H47.9212C49.7932 254.517 49.9882 253.971 49.9882 252.099V240.477H39.3022V252.099C39.3022 253.971 39.5362 254.517 41.4082 254.517H42.4222V254.868H32.8282Z" fill="black"/>
<path d="M171.498 254.166H175.944C180.78 254.166 184.017 251.202 184.017 246.756C184.017 242.076 180.546 238.722 175.71 238.722H173.643V238.059H175.203C178.635 238.059 181.131 235.875 181.131 232.794C181.131 229.635 178.518 227.529 174.657 227.529H171.498V227.568C171.966 228.036 172.161 228.699 172.161 229.596V252.099C172.161 252.996 171.966 253.62 171.498 254.088V254.166ZM165.687 254.868V254.517H167.052C168.924 254.517 169.119 254.322 169.119 252.45V229.245C169.119 227.373 168.924 227.178 167.052 227.178H165.687V226.827H175.203C180.741 226.827 184.446 229.206 184.446 232.716C184.446 234.939 182.418 237.669 178.83 238.176V238.332C183.9 238.683 187.41 242.778 187.41 246.756C187.41 251.631 182.691 254.868 176.646 254.868H165.687ZM190.672 254.868V254.517H193.636C195.508 254.517 195.703 254.322 195.703 252.45V227.529H193.363C189.619 227.529 188.293 228.27 188.098 232.014L187.942 233.652L187.279 233.574L187.864 224.526L188.254 224.565L188.098 226.827H206.272L206.077 224.604L206.506 224.565L207.091 233.574L206.389 233.652L206.272 232.014C205.999 228.27 204.751 227.529 201.007 227.529H198.745V252.45C198.745 254.322 198.94 254.517 200.812 254.517H203.698V254.868H190.672Z" fill="black"/>
<path d="M318.518 240.75C318.518 232.209 323.939 226.515 332.129 226.515C334.742 226.515 337.277 227.334 339.266 229.011C339.461 229.206 339.617 229.518 339.695 229.791L339.968 229.713C339.89 229.401 339.851 229.011 339.851 228.582L339.773 225.774L340.124 225.735L340.475 237.006L339.773 237.045L339.656 233.418C339.461 229.908 335.678 227.178 331.817 227.178C325.421 227.178 321.989 231.741 321.989 240.126C321.989 249.486 325.577 254.478 332.246 254.478C335.951 254.478 339.539 252.45 340.904 249.174L341.567 249.408C340.007 253.308 336.263 255.18 332.168 255.18C323.978 255.18 318.518 249.408 318.518 240.75ZM349.107 227.568V227.763C349.575 228.387 349.77 229.284 349.77 230.181V243.246H351.954C356.868 243.246 359.52 240.516 359.52 235.407C359.52 230.337 356.868 227.568 351.954 227.568H349.107ZM343.296 254.868V254.517H344.661C346.533 254.517 346.728 254.322 346.728 252.45V229.245C346.728 227.373 346.533 227.178 344.661 227.178H343.296V226.827H353.124C358.974 226.827 362.913 230.259 362.913 235.407C362.913 240.555 358.974 243.948 353.124 243.948H349.77V252.45C349.77 254.322 350.004 254.517 351.876 254.517H352.851V254.868H343.296Z" fill="black"/>
<path d="M484.931 254.868V254.517H486.296C488.168 254.517 488.363 254.361 488.363 252.489V242.778H482.591C478.769 242.778 476.702 240.711 476.702 236.889V229.245C476.702 227.373 476.507 227.178 474.635 227.178H473.621V226.827H481.733V227.178H479.12V227.256C479.393 227.529 479.471 227.646 479.471 228.27V236.577C479.471 240.204 480.641 242.115 482.903 242.115H488.363V229.206C488.363 227.334 488.168 227.178 486.296 227.178H484.931V226.827H494.876V227.256H493.511C491.639 227.256 491.405 227.412 491.405 229.284V252.489C491.405 254.361 491.639 254.517 493.511 254.517H494.876V254.868H484.931ZM499.521 254.868V254.517H502.485C504.357 254.517 504.552 254.322 504.552 252.45V227.529H502.212C498.468 227.529 497.142 228.27 496.947 232.014L496.791 233.652L496.128 233.574L496.713 224.526L497.103 224.565L496.947 226.827H515.121L514.926 224.604L515.355 224.565L515.94 233.574L515.238 233.652L515.121 232.014C514.848 228.27 513.6 227.529 509.856 227.529H507.594V252.45C507.594 254.322 507.789 254.517 509.661 254.517H512.547V254.868H499.521Z" fill="black"/>
<path d="M626.063 254.868V254.517H627.428C629.3 254.517 629.495 253.971 629.495 252.099V229.596C629.495 227.724 629.3 227.178 627.428 227.178H626.063V226.827H649.736V227.178H648.332C646.46 227.178 646.265 227.724 646.265 229.596V252.099C646.265 253.971 646.46 254.517 648.332 254.517H649.736V254.868H640.103V254.517H641.156C643.028 254.517 643.223 253.971 643.223 252.099V227.529H632.537V252.099C632.537 253.971 632.771 254.517 634.643 254.517H635.657V254.868H626.063ZM654.361 254.868V254.517H657.325C659.197 254.517 659.392 254.322 659.392 252.45V227.529H657.052C653.308 227.529 651.982 228.27 651.787 232.014L651.631 233.652L650.968 233.574L651.553 224.526L651.943 224.565L651.787 226.827H669.961L669.766 224.604L670.195 224.565L670.78 233.574L670.078 233.652L669.961 232.014C669.688 228.27 668.44 227.529 664.696 227.529H662.434V252.45C662.434 254.322 662.629 254.517 664.501 254.517H667.387V254.868H654.361Z" fill="black"/>
<path d="M37.9102 402.525H26.3272V402.174H28.8232C30.6952 402.174 30.9292 401.94 30.9292 399.756V381.504C30.9292 380.607 30.9682 379.788 31.0462 379.242L30.8902 379.164C30.7342 379.398 30.4612 379.827 29.9152 380.373L27.3022 383.376L27.0292 383.142L28.5502 381.231C31.5532 377.409 33.1912 374.991 33.1912 374.172H33.6982V399.756C33.6982 401.94 33.8932 402.174 35.7652 402.174H37.9102V402.525Z" fill="black"/>
<path d="M32.7167 549.793C36.4217 549.793 38.4497 547.141 38.4497 542.188C38.4497 537.157 36.4217 534.427 32.7167 534.427C29.0117 534.427 27.0227 537.157 27.0227 542.188C27.0227 547.141 29.0117 549.793 32.7167 549.793ZM32.7167 533.725C35.6027 533.725 37.2017 531.736 37.2017 528.031C37.2017 524.482 35.6027 522.532 32.7167 522.532C29.7917 522.532 28.2707 524.482 28.2707 528.031C28.2707 531.736 29.7917 533.725 32.7167 533.725ZM32.7167 550.495C27.4907 550.495 24.0587 547.18 24.0587 542.188C24.0587 538.093 26.6717 534.505 30.5327 533.998V533.959C27.9977 533.491 25.8527 530.839 25.8527 527.953C25.8527 524.287 28.5827 521.83 32.7167 521.83C36.8507 521.83 39.6197 524.287 39.6197 527.953C39.6197 530.839 37.4357 533.491 34.9007 533.959V533.998C38.7617 534.505 41.3747 538.093 41.3747 542.188C41.3747 547.18 37.9037 550.495 32.7167 550.495Z" fill="black"/>
<path d="M29.3346 697.841H17.7516V697.49H20.2476C22.1196 697.49 22.3536 697.256 22.3536 695.072V676.82C22.3536 675.923 22.3926 675.104 22.4706 674.558L22.3146 674.48C22.1586 674.714 21.8856 675.143 21.3396 675.689L18.7266 678.692L18.4536 678.458L19.9746 676.547C22.9776 672.725 24.6156 670.307 24.6156 669.488H25.1226V695.072C25.1226 697.256 25.3176 697.49 27.1896 697.49H29.3346V697.841ZM32.5476 669.8H42.9606C44.8326 669.8 45.0666 669.683 45.3006 667.928V667.733H45.6906L45.4176 672.218H35.3946C33.0546 672.218 33.0156 672.296 32.8596 674.441L32.3916 681.11C33.8736 680.135 35.8626 679.55 37.6956 679.55C43.0776 679.55 46.7046 683.021 46.7046 688.832C46.7046 694.214 43.0776 698.153 37.6956 698.153C35.6286 698.114 32.9376 697.217 31.1046 695.267V690.431H31.8066V691.64C31.8846 694.175 34.0296 697.451 37.6956 697.451C41.6346 697.451 43.7796 694.448 43.7796 688.832C43.7796 683.216 41.6346 680.252 37.6956 680.252C35.7066 680.252 33.6396 680.993 32.3136 682.046H31.6506L32.3526 671.126C32.3916 670.268 32.4696 669.839 32.5476 669.8Z" fill="black"/>
<path d="M31.4275 845.499H16.0225V843.159C16.3735 843.12 18.0895 842.184 19.3375 840.507C24.0565 834.267 27.9955 828.339 27.9955 823.737C27.9955 819.915 26.2795 817.848 23.1205 817.848C19.8055 817.848 18.1675 820.461 17.7775 823.074V824.4H17.1145V817.536H17.4655V819.213C18.9085 817.926 21.0925 817.146 23.1205 817.146C27.6835 817.146 30.7645 819.993 30.7645 824.205C30.7645 829.626 24.9925 836.022 19.0645 841.677C18.6745 842.028 17.6605 842.964 17.4265 843.081L17.5435 843.276C17.8165 843.237 19.1815 843.081 19.8055 843.081H25.5385C29.2045 843.081 31.1155 842.73 31.3495 839.181L31.4275 838.089H31.8565L31.4275 845.499ZM49.4803 845.499H34.0753V843.159C34.4263 843.12 36.1423 842.184 37.3903 840.507C42.1093 834.267 46.0483 828.339 46.0483 823.737C46.0483 819.915 44.3323 817.848 41.1733 817.848C37.8583 817.848 36.2203 820.461 35.8303 823.074V824.4H35.1673V817.536H35.5183V819.213C36.9613 817.926 39.1453 817.146 41.1733 817.146C45.7363 817.146 48.8173 819.993 48.8173 824.205C48.8173 829.626 43.0453 836.022 37.1173 841.677C36.7273 842.028 35.7133 842.964 35.4793 843.081L35.5963 843.276C35.8693 843.237 37.2343 843.081 37.8583 843.081H43.5913C47.2573 843.081 49.1683 842.73 49.4023 839.181L49.4803 838.089H49.9093L49.4803 845.499Z" fill="black"/>
<path d="M195.828 402.525H180.423V400.185C180.774 400.146 182.49 399.21 183.738 397.533C188.457 391.293 192.396 385.365 192.396 380.763C192.396 376.941 190.68 374.874 187.521 374.874C184.206 374.874 182.568 377.487 182.178 380.1V381.426H181.515V374.562H181.866V376.239C183.309 374.952 185.493 374.172 187.521 374.172C192.084 374.172 195.165 377.019 195.165 381.231C195.165 386.652 189.393 393.048 183.465 398.703C183.075 399.054 182.061 399.99 181.827 400.107L181.944 400.302C182.217 400.263 183.582 400.107 184.206 400.107H189.939C193.605 400.107 195.516 399.756 195.75 396.207L195.828 395.115H196.257L195.828 402.525Z" fill="black"/>
<path d="M182.072 547.726V543.709H182.423V544.255C182.891 546.634 184.295 549.793 187.961 549.793C191.822 549.793 193.889 543.397 193.889 535.324H193.733C192.524 538.327 190.184 539.809 187.805 539.809C183.437 539.809 180.512 536.143 180.512 530.644C180.512 525.145 183.788 521.83 188.663 521.83C193.538 521.83 196.814 527.095 196.814 534.973C196.814 544.294 193.265 550.495 187.961 550.495C184.841 550.456 182.969 548.467 182.072 547.726ZM183.476 530.644C183.476 536.182 185.036 539.107 188.039 539.107C190.73 539.107 193.694 535.792 193.733 530.878C193.304 525.574 191.549 522.532 188.663 522.532C185.27 522.532 183.476 525.379 183.476 530.644Z" fill="black"/>
<path d="M184.931 697.841H173.348V697.49H175.844C177.716 697.49 177.95 697.256 177.95 695.072V676.82C177.95 675.923 177.989 675.104 178.067 674.558L177.911 674.48C177.755 674.714 177.482 675.143 176.936 675.689L174.323 678.692L174.05 678.458L175.571 676.547C178.574 672.725 180.212 670.307 180.212 669.488H180.719V695.072C180.719 697.256 180.914 697.49 182.786 697.49H184.931V697.841ZM201.443 672.257V676.274H201.092V675.728C200.624 673.349 199.22 670.19 195.554 670.19C191.693 670.19 189.626 676.586 189.626 684.659H189.782C190.991 681.656 193.331 680.174 195.71 680.174C200.078 680.174 203.003 683.84 203.003 689.339C203.003 694.838 199.727 698.153 194.852 698.153C189.938 698.153 186.701 692.927 186.701 685.01C186.701 675.728 190.211 669.488 195.554 669.488C198.635 669.566 200.546 671.516 201.443 672.257ZM200.039 689.339C200.039 683.84 198.44 680.876 195.476 680.876C192.785 680.876 189.821 684.191 189.782 689.105C190.211 694.409 191.966 697.451 194.852 697.451C198.206 697.451 200.039 694.643 200.039 689.339Z" fill="black"/>
<path d="M187.252 845.499H171.847V843.159C172.198 843.12 173.914 842.184 175.162 840.507C179.881 834.267 183.82 828.339 183.82 823.737C183.82 819.915 182.104 817.848 178.945 817.848C175.63 817.848 173.992 820.461 173.602 823.074V824.4H172.939V817.536H173.29V819.213C174.733 817.926 176.917 817.146 178.945 817.146C183.508 817.146 186.589 819.993 186.589 824.205C186.589 829.626 180.817 836.022 174.889 841.677C174.499 842.028 173.485 842.964 173.251 843.081L173.368 843.276C173.641 843.237 175.006 843.081 175.63 843.081H181.363C185.029 843.081 186.94 842.73 187.174 839.181L187.252 838.089H187.681L187.252 845.499ZM189.9 842.964V838.089H190.602V839.298C190.836 841.989 192.825 845.109 196.491 845.109C200.43 845.109 202.575 842.613 202.575 837.894C202.575 833.175 200.313 829.743 196.764 829.743H193.215V829.041H196.179C199.338 829.041 201.327 826.389 201.327 822.957C201.327 819.642 199.611 817.848 196.53 817.848C192.864 817.848 191.538 820.734 191.343 823.23V824.517H190.68V817.536H191.031V819.096L191.148 819.135C191.304 818.862 191.694 818.472 192.006 818.316C193.254 817.575 195.087 817.185 196.491 817.146C200.82 817.146 203.745 819.447 203.745 822.879C203.745 825.765 201.561 828.807 199.026 829.275V829.314C202.887 829.821 205.5 833.799 205.5 837.894C205.5 842.652 201.873 845.811 196.491 845.811C194.424 845.811 191.811 844.875 189.9 842.964Z" fill="black"/>
<path d="M336.247 399.99V395.115H336.949V396.324C337.183 399.015 339.172 402.135 342.838 402.135C346.777 402.135 348.922 399.639 348.922 394.92C348.922 390.201 346.66 386.769 343.111 386.769H339.562V386.067H342.526C345.685 386.067 347.674 383.415 347.674 379.983C347.674 376.668 345.958 374.874 342.877 374.874C339.211 374.874 337.885 377.76 337.69 380.256V381.543H337.027V374.562H337.378V376.122L337.495 376.161C337.651 375.888 338.041 375.498 338.353 375.342C339.601 374.601 341.434 374.211 342.838 374.172C347.167 374.172 350.092 376.473 350.092 379.905C350.092 382.791 347.908 385.833 345.373 386.301V386.34C349.234 386.847 351.847 390.825 351.847 394.92C351.847 399.678 348.22 402.837 342.838 402.837C340.771 402.837 338.158 401.901 336.247 399.99Z" fill="black"/>
<path d="M339.822 550.183H328.239V549.832H330.735C332.607 549.832 332.841 549.598 332.841 547.414V529.162C332.841 528.265 332.88 527.446 332.958 526.9L332.802 526.822C332.646 527.056 332.373 527.485 331.827 528.031L329.214 531.034L328.941 530.8L330.462 528.889C333.465 525.067 335.103 522.649 335.103 521.83H335.61V547.414C335.61 549.598 335.805 549.832 337.677 549.832H339.822V550.183ZM350.679 522.532C346.545 522.532 344.361 526.822 344.361 534.778C344.361 544.567 346.662 549.793 350.952 549.793C355.047 549.793 357.309 545.542 357.309 537.547C357.309 527.797 354.969 522.532 350.679 522.532ZM350.835 521.83C356.451 521.83 360.234 527.563 360.234 536.143C360.234 544.762 356.451 550.495 350.835 550.495C345.18 550.495 341.436 544.762 341.436 536.143C341.436 527.563 345.18 521.83 350.835 521.83Z" fill="black"/>
<path d="M341.593 697.841H330.01V697.49H332.506C334.378 697.49 334.612 697.256 334.612 695.072V676.82C334.612 675.923 334.651 675.104 334.729 674.558L334.573 674.48C334.417 674.714 334.144 675.143 333.598 675.689L330.985 678.692L330.712 678.458L332.233 676.547C335.236 672.725 336.874 670.307 336.874 669.488H337.381V695.072C337.381 697.256 337.576 697.49 339.448 697.49H341.593V697.841ZM350.656 697.841H347.887V695.969C347.887 687.311 354.01 675.845 356.116 673.31C356.467 672.881 356.896 672.413 357.208 672.296L357.169 672.062C356.857 672.179 354.907 672.218 354.283 672.218H345.664C343.753 672.218 343.48 672.335 343.363 674.09L343.207 676.274H342.817L343.246 669.8H358.963V671.75C357.442 672.179 350.695 681.578 350.656 693.629V697.841Z" fill="black"/>
<path d="M342.848 845.499H327.443V843.159C327.794 843.12 329.51 842.184 330.758 840.507C335.477 834.267 339.416 828.339 339.416 823.737C339.416 819.915 337.7 817.848 334.541 817.848C331.226 817.848 329.588 820.461 329.198 823.074V824.4H328.535V817.536H328.886V819.213C330.329 817.926 332.513 817.146 334.541 817.146C339.104 817.146 342.185 819.993 342.185 824.205C342.185 829.626 336.413 836.022 330.485 841.677C330.095 842.028 329.081 842.964 328.847 843.081L328.964 843.276C329.237 843.237 330.602 843.081 331.226 843.081H336.959C340.625 843.081 342.536 842.73 342.77 839.181L342.848 838.089H343.277L342.848 845.499ZM345.925 838.596H356.611V829.236H359.38V838.596H361.837V839.961H359.38V842.73C359.38 844.914 359.614 845.148 361.798 845.148H362.461V845.499H352.36V845.148H354.154C356.338 845.148 356.611 844.914 356.611 842.73V839.961H344.833V839.103C344.95 838.869 350.917 827.91 353.296 820.149C353.53 819.486 353.608 819.018 353.608 818.667C353.608 818.16 353.101 817.848 352.126 817.848V817.458C355.597 817.458 356.416 817.38 357.196 815.898L357.43 815.976L345.925 838.596Z" fill="black"/>
<path d="M330.643 990.622V985.747H331.345V986.956C331.579 989.647 333.568 992.767 337.234 992.767C341.173 992.767 343.318 990.271 343.318 985.552C343.318 980.833 341.056 977.401 337.507 977.401H333.958V976.699H336.922C340.081 976.699 342.07 974.047 342.07 970.615C342.07 967.3 340.354 965.506 337.273 965.506C333.607 965.506 332.281 968.392 332.086 970.888V972.175H331.423V965.194H331.774V966.754L331.891 966.793C332.047 966.52 332.437 966.13 332.749 965.974C333.997 965.233 335.83 964.843 337.234 964.804C341.563 964.804 344.488 967.105 344.488 970.537C344.488 973.423 342.304 976.465 339.769 976.933V976.972C343.63 977.479 346.243 981.457 346.243 985.552C346.243 990.31 342.616 993.469 337.234 993.469C335.167 993.469 332.554 992.533 330.643 990.622ZM359.57 993.157H347.987V992.806H350.483C352.355 992.806 352.589 992.572 352.589 990.388V972.136C352.589 971.239 352.628 970.42 352.706 969.874L352.55 969.796C352.394 970.03 352.121 970.459 351.575 971.005L348.962 974.008L348.689 973.774L350.21 971.863C353.213 968.041 354.851 965.623 354.851 964.804H355.358V990.388C355.358 992.572 355.553 992.806 357.425 992.806H359.57V993.157Z" fill="black"/>
<path d="M492.273 395.622H502.959V386.262H505.728V395.622H508.185V396.987H505.728V399.756C505.728 401.94 505.962 402.174 508.146 402.174H508.809V402.525H498.708V402.174H500.502C502.686 402.174 502.959 401.94 502.959 399.756V396.987H491.181V396.129C491.298 395.895 497.265 384.936 499.644 377.175C499.878 376.512 499.956 376.044 499.956 375.693C499.956 375.186 499.449 374.874 498.474 374.874V374.484C501.945 374.484 502.764 374.406 503.544 372.924L503.778 373.002L492.273 395.622Z" fill="black"/>
<path d="M499.595 550.183H488.012V549.832H490.508C492.38 549.832 492.614 549.598 492.614 547.414V529.162C492.614 528.265 492.653 527.446 492.731 526.9L492.575 526.822C492.419 527.056 492.146 527.485 491.6 528.031L488.987 531.034L488.714 530.8L490.235 528.889C493.238 525.067 494.876 522.649 494.876 521.83H495.383V547.414C495.383 549.598 495.578 549.832 497.45 549.832H499.595V550.183ZM511.973 550.183H500.39V549.832H502.886C504.758 549.832 504.992 549.598 504.992 547.414V529.162C504.992 528.265 505.031 527.446 505.109 526.9L504.953 526.822C504.797 527.056 504.524 527.485 503.978 528.031L501.365 531.034L501.092 530.8L502.613 528.889C505.616 525.067 507.254 522.649 507.254 521.83H507.761V547.414C507.761 549.598 507.956 549.832 509.828 549.832H511.973V550.183Z" fill="black"/>
<path d="M495.767 697.841H484.184V697.49H486.68C488.552 697.49 488.786 697.256 488.786 695.072V676.82C488.786 675.923 488.825 675.104 488.903 674.558L488.747 674.48C488.591 674.714 488.318 675.143 487.772 675.689L485.159 678.692L484.886 678.458L486.407 676.547C489.41 672.725 491.048 670.307 491.048 669.488H491.555V695.072C491.555 697.256 491.75 697.49 493.622 697.49H495.767V697.841ZM506.195 697.451C509.9 697.451 511.928 694.799 511.928 689.846C511.928 684.815 509.9 682.085 506.195 682.085C502.49 682.085 500.501 684.815 500.501 689.846C500.501 694.799 502.49 697.451 506.195 697.451ZM506.195 681.383C509.081 681.383 510.68 679.394 510.68 675.689C510.68 672.14 509.081 670.19 506.195 670.19C503.27 670.19 501.749 672.14 501.749 675.689C501.749 679.394 503.27 681.383 506.195 681.383ZM506.195 698.153C500.969 698.153 497.537 694.838 497.537 689.846C497.537 685.751 500.15 682.163 504.011 681.656V681.617C501.476 681.149 499.331 678.497 499.331 675.611C499.331 671.945 502.061 669.488 506.195 669.488C510.329 669.488 513.098 671.945 513.098 675.611C513.098 678.497 510.914 681.149 508.379 681.617V681.656C512.24 682.163 514.853 685.751 514.853 689.846C514.853 694.838 511.382 698.153 506.195 698.153Z" fill="black"/>
<path d="M498.584 845.499H483.179V843.159C483.53 843.12 485.246 842.184 486.494 840.507C491.213 834.267 495.152 828.339 495.152 823.737C495.152 819.915 493.436 817.848 490.277 817.848C486.962 817.848 485.324 820.461 484.934 823.074V824.4H484.271V817.536H484.622V819.213C486.065 817.926 488.249 817.146 490.277 817.146C494.84 817.146 497.921 819.993 497.921 824.205C497.921 829.626 492.149 836.022 486.221 841.677C485.831 842.028 484.817 842.964 484.583 843.081L484.7 843.276C484.973 843.237 486.338 843.081 486.962 843.081H492.695C496.361 843.081 498.272 842.73 498.506 839.181L498.584 838.089H499.013L498.584 845.499ZM502.675 817.458H513.088C514.96 817.458 515.194 817.341 515.428 815.586V815.391H515.818L515.545 819.876H505.522C503.182 819.876 503.143 819.954 502.987 822.099L502.519 828.768C504.001 827.793 505.99 827.208 507.823 827.208C513.205 827.208 516.832 830.679 516.832 836.49C516.832 841.872 513.205 845.811 507.823 845.811C505.756 845.772 503.065 844.875 501.232 842.925V838.089H501.934V839.298C502.012 841.833 504.157 845.109 507.823 845.109C511.762 845.109 513.907 842.106 513.907 836.49C513.907 830.874 511.762 827.91 507.823 827.91C505.834 827.91 503.767 828.651 502.441 829.704H501.778L502.48 818.784C502.519 817.926 502.597 817.497 502.675 817.458Z" fill="black"/>
<path d="M649.606 374.484H660.019C661.891 374.484 662.125 374.367 662.359 372.612V372.417H662.749L662.476 376.902H652.453C650.113 376.902 650.074 376.98 649.918 379.125L649.45 385.794C650.932 384.819 652.921 384.234 654.754 384.234C660.136 384.234 663.763 387.705 663.763 393.516C663.763 398.898 660.136 402.837 654.754 402.837C652.687 402.798 649.996 401.901 648.163 399.951V395.115H648.865V396.324C648.943 398.859 651.088 402.135 654.754 402.135C658.693 402.135 660.838 399.132 660.838 393.516C660.838 387.9 658.693 384.936 654.754 384.936C652.765 384.936 650.698 385.677 649.372 386.73H648.709L649.411 375.81C649.45 374.952 649.528 374.523 649.606 374.484Z" fill="black"/>
<path d="M652.132 550.183H640.549V549.832H643.045C644.917 549.832 645.151 549.598 645.151 547.414V529.162C645.151 528.265 645.19 527.446 645.268 526.9L645.112 526.822C644.956 527.056 644.683 527.485 644.137 528.031L641.524 531.034L641.251 530.8L642.772 528.889C645.775 525.067 647.413 522.649 647.413 521.83H647.92V547.414C647.92 549.598 648.115 549.832 649.987 549.832H652.132V550.183ZM669.306 550.183H653.901V547.843C654.252 547.804 655.968 546.868 657.216 545.191C661.935 538.951 665.874 533.023 665.874 528.421C665.874 524.599 664.158 522.532 660.999 522.532C657.684 522.532 656.046 525.145 655.656 527.758V529.084H654.993V522.22H655.344V523.897C656.787 522.61 658.971 521.83 660.999 521.83C665.562 521.83 668.643 524.677 668.643 528.889C668.643 534.31 662.871 540.706 656.943 546.361C656.553 546.712 655.539 547.648 655.305 547.765L655.422 547.96C655.695 547.921 657.06 547.765 657.684 547.765H663.417C667.083 547.765 668.994 547.414 669.228 543.865L669.306 542.773H669.735L669.306 550.183Z" fill="black"/>
<path d="M651.636 697.841H640.053V697.49H642.549C644.421 697.49 644.655 697.256 644.655 695.072V676.82C644.655 675.923 644.694 675.104 644.772 674.558L644.616 674.48C644.46 674.714 644.187 675.143 643.641 675.689L641.028 678.692L640.755 678.458L642.276 676.547C645.279 672.725 646.917 670.307 646.917 669.488H647.424V695.072C647.424 697.256 647.619 697.49 649.491 697.49H651.636V697.841ZM654.966 695.384V691.367H655.317V691.913C655.785 694.292 657.189 697.451 660.855 697.451C664.716 697.451 666.783 691.055 666.783 682.982H666.627C665.418 685.985 663.078 687.467 660.699 687.467C656.331 687.467 653.406 683.801 653.406 678.302C653.406 672.803 656.682 669.488 661.557 669.488C666.432 669.488 669.708 674.753 669.708 682.631C669.708 691.952 666.159 698.153 660.855 698.153C657.735 698.114 655.863 696.125 654.966 695.384ZM656.37 678.302C656.37 683.84 657.93 686.765 660.933 686.765C663.624 686.765 666.588 683.45 666.627 678.536C666.198 673.232 664.443 670.19 661.557 670.19C658.164 670.19 656.37 673.037 656.37 678.302Z" fill="black"/>
<path d="M653.596 845.499H638.191V843.159C638.542 843.12 640.258 842.184 641.506 840.507C646.225 834.267 650.164 828.339 650.164 823.737C650.164 819.915 648.448 817.848 645.289 817.848C641.974 817.848 640.336 820.461 639.946 823.074V824.4H639.283V817.536H639.634V819.213C641.077 817.926 643.261 817.146 645.289 817.146C649.852 817.146 652.933 819.993 652.933 824.205C652.933 829.626 647.161 836.022 641.233 841.677C640.843 842.028 639.829 842.964 639.595 843.081L639.712 843.276C639.985 843.237 641.35 843.081 641.974 843.081H647.707C651.373 843.081 653.284 842.73 653.518 839.181L653.596 838.089H654.025L653.596 845.499ZM670.986 819.915V823.932H670.635V823.386C670.167 821.007 668.763 817.848 665.097 817.848C661.236 817.848 659.169 824.244 659.169 832.317H659.325C660.534 829.314 662.874 827.832 665.253 827.832C669.621 827.832 672.546 831.498 672.546 836.997C672.546 842.496 669.27 845.811 664.395 845.811C659.481 845.811 656.244 840.585 656.244 832.668C656.244 823.386 659.754 817.146 665.097 817.146C668.178 817.224 670.089 819.174 670.986 819.915ZM669.582 836.997C669.582 831.498 667.983 828.534 665.019 828.534C662.328 828.534 659.364 831.849 659.325 836.763C659.754 842.067 661.509 845.109 664.395 845.109C667.749 845.109 669.582 842.301 669.582 836.997Z" fill="black"/>
<path d="M30.9324 993.157H15.5274V990.817C15.8784 990.778 17.5944 989.842 18.8424 988.165C23.5614 981.925 27.5004 975.997 27.5004 971.395C27.5004 967.573 25.7844 965.506 22.6254 965.506C19.3104 965.506 17.6724 968.119 17.2824 970.732V972.058H16.6194V965.194H16.9704V966.871C18.4134 965.584 20.5974 964.804 22.6254 964.804C27.1884 964.804 30.2694 967.651 30.2694 971.863C30.2694 977.284 24.4974 983.68 18.5694 989.335C18.1794 989.686 17.1654 990.622 16.9314 990.739L17.0484 990.934C17.3214 990.895 18.6864 990.739 19.3104 990.739H25.0434C28.7094 990.739 30.6204 990.388 30.8544 986.839L30.9324 985.747H31.3614L30.9324 993.157ZM35.1402 990.7V986.683H35.4912V987.229C35.9592 989.608 37.3632 992.767 41.0292 992.767C44.8902 992.767 46.9572 986.371 46.9572 978.298H46.8012C45.5922 981.301 43.2522 982.783 40.8732 982.783C36.5052 982.783 33.5802 979.117 33.5802 973.618C33.5802 968.119 36.8562 964.804 41.7312 964.804C46.6062 964.804 49.8822 970.069 49.8822 977.947C49.8822 987.268 46.3332 993.469 41.0292 993.469C37.9092 993.43 36.0372 991.441 35.1402 990.7ZM36.5442 973.618C36.5442 979.156 38.1042 982.081 41.1072 982.081C43.7982 982.081 46.7622 978.766 46.8012 973.852C46.3722 968.548 44.6172 965.506 41.7312 965.506C38.3382 965.506 36.5442 968.353 36.5442 973.618Z" fill="black"/>
<path d="M169.702 990.622V985.747H170.404V986.956C170.638 989.647 172.627 992.767 176.293 992.767C180.232 992.767 182.377 990.271 182.377 985.552C182.377 980.833 180.115 977.401 176.566 977.401H173.017V976.699H175.981C179.14 976.699 181.129 974.047 181.129 970.615C181.129 967.3 179.413 965.506 176.332 965.506C172.666 965.506 171.34 968.392 171.145 970.888V972.175H170.482V965.194H170.833V966.754L170.95 966.793C171.106 966.52 171.496 966.13 171.808 965.974C173.056 965.233 174.889 964.843 176.293 964.804C180.622 964.804 183.547 967.105 183.547 970.537C183.547 973.423 181.363 976.465 178.828 976.933V976.972C182.689 977.479 185.302 981.457 185.302 985.552C185.302 990.31 181.675 993.469 176.293 993.469C174.226 993.469 171.613 992.533 169.702 990.622ZM197.108 965.506C192.974 965.506 190.79 969.796 190.79 977.752C190.79 987.541 193.091 992.767 197.381 992.767C201.476 992.767 203.738 988.516 203.738 980.521C203.738 970.771 201.398 965.506 197.108 965.506ZM197.264 964.804C202.88 964.804 206.663 970.537 206.663 979.117C206.663 987.736 202.88 993.469 197.264 993.469C191.609 993.469 187.865 987.736 187.865 979.117C187.865 970.537 191.609 964.804 197.264 964.804Z" fill="black"/>
<path d="M818.501 376.941V380.958H818.15V380.412C817.682 378.033 816.278 374.874 812.612 374.874C808.751 374.874 806.684 381.27 806.684 389.343H806.84C808.049 386.34 810.389 384.858 812.768 384.858C817.136 384.858 820.061 388.524 820.061 394.023C820.061 399.522 816.785 402.837 811.91 402.837C806.996 402.837 803.759 397.611 803.759 389.694C803.759 380.412 807.269 374.172 812.612 374.172C815.693 374.25 817.604 376.2 818.501 376.941ZM817.097 394.023C817.097 388.524 815.498 385.56 812.534 385.56C809.843 385.56 806.879 388.875 806.84 393.789C807.269 399.093 809.024 402.135 811.91 402.135C815.264 402.135 817.097 399.327 817.097 394.023Z" fill="#848484"/>
<path d="M807.956 550.183H796.373V549.832H798.869C800.741 549.832 800.975 549.598 800.975 547.414V529.162C800.975 528.265 801.014 527.446 801.092 526.9L800.936 526.822C800.78 527.056 800.507 527.485 799.961 528.031L797.348 531.034L797.075 530.8L798.596 528.889C801.599 525.067 803.237 522.649 803.237 521.83H803.744V547.414C803.744 549.598 803.939 549.832 805.811 549.832H807.956V550.183ZM809.726 547.648V542.773H810.428V543.982C810.662 546.673 812.651 549.793 816.317 549.793C820.256 549.793 822.401 547.297 822.401 542.578C822.401 537.859 820.139 534.427 816.59 534.427H813.041V533.725H816.005C819.164 533.725 821.153 531.073 821.153 527.641C821.153 524.326 819.437 522.532 816.356 522.532C812.69 522.532 811.364 525.418 811.169 527.914V529.201H810.506V522.22H810.857V523.78L810.974 523.819C811.13 523.546 811.52 523.156 811.832 523C813.08 522.259 814.913 521.869 816.317 521.83C820.646 521.83 823.571 524.131 823.571 527.563C823.571 530.449 821.387 533.491 818.852 533.959V533.998C822.713 534.505 825.326 538.483 825.326 542.578C825.326 547.336 821.699 550.495 816.317 550.495C814.25 550.495 811.637 549.559 809.726 547.648Z" fill="#848484"/>
<path d="M808.487 697.841H793.082V695.501C793.433 695.462 795.149 694.526 796.397 692.849C801.116 686.609 805.055 680.681 805.055 676.079C805.055 672.257 803.339 670.19 800.18 670.19C796.865 670.19 795.227 672.803 794.837 675.416V676.742H794.174V669.878H794.525V671.555C795.968 670.268 798.152 669.488 800.18 669.488C804.743 669.488 807.824 672.335 807.824 676.547C807.824 681.968 802.052 688.364 796.124 694.019C795.734 694.37 794.72 695.306 794.486 695.423L794.603 695.618C794.876 695.579 796.241 695.423 796.865 695.423H802.598C806.264 695.423 808.175 695.072 808.409 691.523L808.487 690.431H808.916L808.487 697.841ZM820.222 670.19C816.088 670.19 813.904 674.48 813.904 682.436C813.904 692.225 816.205 697.451 820.495 697.451C824.59 697.451 826.852 693.2 826.852 685.205C826.852 675.455 824.512 670.19 820.222 670.19ZM820.378 669.488C825.994 669.488 829.777 675.221 829.777 683.801C829.777 692.42 825.994 698.153 820.378 698.153C814.723 698.153 810.979 692.42 810.979 683.801C810.979 675.221 814.723 669.488 820.378 669.488Z" fill="#848484"/>
<path d="M810.258 845.499H794.853V843.159C795.204 843.12 796.92 842.184 798.168 840.507C802.887 834.267 806.826 828.339 806.826 823.737C806.826 819.915 805.11 817.848 801.951 817.848C798.636 817.848 796.998 820.461 796.608 823.074V824.4H795.945V817.536H796.296V819.213C797.739 817.926 799.923 817.146 801.951 817.146C806.514 817.146 809.595 819.993 809.595 824.205C809.595 829.626 803.823 836.022 797.895 841.677C797.505 842.028 796.491 842.964 796.257 843.081L796.374 843.276C796.647 843.237 798.012 843.081 798.636 843.081H804.369C808.035 843.081 809.946 842.73 810.18 839.181L810.258 838.089H810.687L810.258 845.499ZM820.199 845.499H817.43V843.627C817.43 834.969 823.553 823.503 825.659 820.968C826.01 820.539 826.439 820.071 826.751 819.954L826.712 819.72C826.4 819.837 824.45 819.876 823.826 819.876H815.207C813.296 819.876 813.023 819.993 812.906 821.748L812.75 823.932H812.36L812.789 817.458H828.506V819.408C826.985 819.837 820.238 829.236 820.199 841.287V845.499Z" fill="white"/>
<path d="M967.715 402.525H964.946V400.653C964.946 391.995 971.069 380.529 973.175 377.994C973.526 377.565 973.955 377.097 974.267 376.98L974.228 376.746C973.916 376.863 971.966 376.902 971.342 376.902H962.723C960.812 376.902 960.539 377.019 960.422 378.774L960.266 380.958H959.876L960.305 374.484H976.022V376.434C974.501 376.863 967.754 386.262 967.715 398.313V402.525Z" fill="#848484"/>
<path d="M963.552 550.183H951.969V549.832H954.465C956.337 549.832 956.571 549.598 956.571 547.414V529.162C956.571 528.265 956.61 527.446 956.688 526.9L956.532 526.822C956.376 527.056 956.103 527.485 955.557 528.031L952.944 531.034L952.671 530.8L954.192 528.889C957.195 525.067 958.833 522.649 958.833 521.83H959.34V547.414C959.34 549.598 959.535 549.832 961.407 549.832H963.552V550.183ZM965.751 543.28H976.437V533.92H979.206V543.28H981.663V544.645H979.206V547.414C979.206 549.598 979.44 549.832 981.624 549.832H982.287V550.183H972.186V549.832H973.98C976.164 549.832 976.437 549.598 976.437 547.414V544.645H964.659V543.787C964.776 543.553 970.743 532.594 973.122 524.833C973.356 524.17 973.434 523.702 973.434 523.351C973.434 522.844 972.927 522.532 971.952 522.532V522.142C975.423 522.142 976.242 522.064 977.022 520.582L977.256 520.66L965.751 543.28Z" fill="#848484"/>
<path d="M968.844 697.841H953.439V695.501C953.79 695.462 955.506 694.526 956.754 692.849C961.473 686.609 965.412 680.681 965.412 676.079C965.412 672.257 963.696 670.19 960.537 670.19C957.222 670.19 955.584 672.803 955.194 675.416V676.742H954.531V669.878H954.882V671.555C956.325 670.268 958.509 669.488 960.537 669.488C965.1 669.488 968.181 672.335 968.181 676.547C968.181 681.968 962.409 688.364 956.481 694.019C956.091 694.37 955.077 695.306 954.843 695.423L954.96 695.618C955.233 695.579 956.598 695.423 957.222 695.423H962.955C966.621 695.423 968.532 695.072 968.766 691.523L968.844 690.431H969.273L968.844 697.841ZM982.1 697.841H970.517V697.49H973.013C974.885 697.49 975.119 697.256 975.119 695.072V676.82C975.119 675.923 975.158 675.104 975.236 674.558L975.08 674.48C974.924 674.714 974.651 675.143 974.105 675.689L971.492 678.692L971.219 678.458L972.74 676.547C975.743 672.725 977.381 670.307 977.381 669.488H977.888V695.072C977.888 697.256 978.083 697.49 979.955 697.49H982.1V697.841Z" fill="#848484"/>
<path d="M965.017 845.499H949.612V843.159C949.963 843.12 951.679 842.184 952.927 840.507C957.646 834.267 961.585 828.339 961.585 823.737C961.585 819.915 959.869 817.848 956.71 817.848C953.395 817.848 951.757 820.461 951.367 823.074V824.4H950.704V817.536H951.055V819.213C952.498 817.926 954.682 817.146 956.71 817.146C961.273 817.146 964.354 819.993 964.354 824.205C964.354 829.626 958.582 836.022 952.654 841.677C952.264 842.028 951.25 842.964 951.016 843.081L951.133 843.276C951.406 843.237 952.771 843.081 953.395 843.081H959.128C962.794 843.081 964.705 842.73 964.939 839.181L965.017 838.089H965.446L965.017 845.499ZM976.323 845.109C980.028 845.109 982.056 842.457 982.056 837.504C982.056 832.473 980.028 829.743 976.323 829.743C972.618 829.743 970.629 832.473 970.629 837.504C970.629 842.457 972.618 845.109 976.323 845.109ZM976.323 829.041C979.209 829.041 980.808 827.052 980.808 823.347C980.808 819.798 979.209 817.848 976.323 817.848C973.398 817.848 971.877 819.798 971.877 823.347C971.877 827.052 973.398 829.041 976.323 829.041ZM976.323 845.811C971.097 845.811 967.665 842.496 967.665 837.504C967.665 833.409 970.278 829.821 974.139 829.314V829.275C971.604 828.807 969.459 826.155 969.459 823.269C969.459 819.603 972.189 817.146 976.323 817.146C980.457 817.146 983.226 819.603 983.226 823.269C983.226 826.155 981.042 828.807 978.507 829.275V829.314C982.368 829.821 984.981 833.409 984.981 837.504C984.981 842.496 981.51 845.811 976.323 845.811Z" fill="#848484"/>
<path d="M779.471 240.75C779.471 232.209 784.892 226.515 793.082 226.515C795.695 226.515 798.23 227.334 800.219 229.011C800.414 229.206 800.57 229.518 800.648 229.791L800.921 229.713C800.843 229.401 800.804 229.011 800.804 228.582L800.726 225.774L801.077 225.735L801.428 237.006L800.726 237.045L800.609 233.418C800.414 229.908 796.631 227.178 792.77 227.178C786.374 227.178 782.942 231.741 782.942 240.126C782.942 249.486 786.53 254.478 793.199 254.478C796.904 254.478 800.492 252.45 801.857 249.174L802.52 249.408C800.96 253.308 797.216 255.18 793.121 255.18C784.931 255.18 779.471 249.408 779.471 240.75ZM804.249 254.868V254.478H805.614C807.486 254.478 807.681 254.283 807.681 252.411V229.245C807.681 227.373 807.486 227.178 805.614 227.178H804.249V226.827H820.473C821.097 226.827 821.253 226.905 821.526 227.178H821.565L821.409 224.526L821.76 224.487L822.501 235.914H821.799L821.643 233.184C821.37 229.011 818.328 227.529 814.584 227.529H809.865V227.568C810.333 228.036 810.723 228.738 810.723 229.596V239.658H813.453C820.512 239.658 825.192 242.7 825.192 247.263C825.192 251.826 820.902 254.868 814.467 254.868H804.249ZM810.723 240.321V252.099C810.723 252.996 810.528 253.62 810.06 254.088V254.166H813.726C818.952 254.166 821.799 251.787 821.799 247.263C821.799 242.778 818.874 240.321 813.492 240.321H810.723Z" fill="black"/>
<path d="M938.444 254.166H942.89C947.726 254.166 950.963 251.202 950.963 246.756C950.963 242.076 947.492 238.722 942.656 238.722H940.589V238.059H942.149C945.581 238.059 948.077 235.875 948.077 232.794C948.077 229.635 945.464 227.529 941.603 227.529H938.444V227.568C938.912 228.036 939.107 228.699 939.107 229.596V252.099C939.107 252.996 938.912 253.62 938.444 254.088V254.166ZM932.633 254.868V254.517H933.998C935.87 254.517 936.065 254.322 936.065 252.45V229.245C936.065 227.373 935.87 227.178 933.998 227.178H932.633V226.827H942.149C947.687 226.827 951.392 229.206 951.392 232.716C951.392 234.939 949.364 237.669 945.776 238.176V238.332C950.846 238.683 954.356 242.778 954.356 246.756C954.356 251.631 949.637 254.868 943.592 254.868H932.633ZM956.376 240.75C956.376 232.209 961.797 226.515 969.987 226.515C972.6 226.515 975.135 227.334 977.124 229.011C977.319 229.206 977.475 229.518 977.553 229.791L977.826 229.713C977.748 229.401 977.709 229.011 977.709 228.582L977.631 225.774L977.982 225.735L978.333 237.006L977.631 237.045L977.514 233.418C977.319 229.908 973.536 227.178 969.675 227.178C963.279 227.178 959.847 231.741 959.847 240.126C959.847 249.486 963.435 254.478 970.104 254.478C973.809 254.478 977.397 252.45 978.762 249.174L979.425 249.408C977.865 253.308 974.121 255.18 970.026 255.18C961.836 255.18 956.376 249.408 956.376 240.75Z" fill="black"/>
<path d="M341.378 117V115.974H345.368C350.84 115.974 351.41 114.378 351.41 108.906V43.128C351.41 37.656 350.84 36.06 345.368 36.06H341.378V35.034H369.422V36.06H366.458C360.986 36.06 360.302 37.656 360.302 43.128V109.248L392.678 35.034H410.576V36.06H406.472C401 36.06 400.43 37.656 400.43 43.128V108.906C400.43 114.378 401 115.974 406.472 115.974H410.576V117H382.418V115.974H385.496C390.968 115.974 391.538 114.378 391.538 108.906V42.786L359.162 117H341.378ZM414.521 117V115.974H418.511C423.983 115.974 424.553 115.518 424.553 110.046V41.988C424.553 36.516 423.983 36.06 418.511 36.06H414.521V35.034H443.591V36.288H439.601C434.129 36.288 433.445 36.744 433.445 42.216V74.934H446.783C447.125 50.424 463.085 34.122 486.797 34.122C510.623 34.122 526.583 50.88 526.583 75.96C526.583 101.154 510.623 117.912 486.797 117.912C463.085 117.912 447.125 101.61 446.783 76.986H433.445V110.046C433.445 115.518 434.129 115.974 439.601 115.974H443.591V117H414.521ZM487.139 115.86C506.291 115.86 516.665 102.75 516.665 78.126C516.665 50.88 505.949 36.174 486.341 36.174C467.075 36.174 456.701 49.398 456.701 73.908C456.701 101.268 467.303 115.86 487.139 115.86ZM536.861 35.034H546.665H577.901H596.939V36.06H592.835C587.363 36.06 586.793 37.656 586.793 43.128V108.906C586.793 114.378 587.363 115.974 592.835 115.974H596.939V117H568.781V115.974H571.859C577.331 115.974 577.901 114.378 577.901 108.906V37.086H551.225V64.902C551.225 95.34 542.447 114.834 534.809 121.218L528.197 113.58C536.519 106.284 548.147 90.324 548.261 67.638V44.496C548.261 36.516 547.349 36.06 539.369 36.06H536.861V35.034ZM600.884 117V115.86H604.874C610.346 115.86 610.916 115.29 610.916 109.818V41.988C610.916 36.516 610.346 36.06 604.874 36.06H600.884V35.034H629.954V36.06H625.964C620.492 36.06 619.808 36.744 619.808 42.216V74.82H628.472C645.914 74.82 657.542 83.256 657.542 95.91C657.542 108.564 645.914 117 628.472 117H600.884ZM619.808 76.758V108.906C619.808 111.528 619.238 113.352 617.87 114.72V114.948H626.306C640.1 114.948 647.624 108.336 647.624 95.91C647.624 83.484 640.1 76.758 626.306 76.758H619.808Z" fill="black"/>
</svg>
