<svg width="191" height="107" viewBox="0 0 191 107" fill="none" xmlns="http://www.w3.org/2000/svg">
<path d="M18.2282 2.1V2.185C18.4322 2.457 18.5172 2.848 18.5172 3.239V8.934H19.4692C21.6112 8.934 22.7672 7.744 22.7672 5.517C22.7672 3.307 21.6112 2.1 19.4692 2.1H18.2282ZM15.6952 14V13.847H16.2902C17.1062 13.847 17.1912 13.762 17.1912 12.946V2.831C17.1912 2.015 17.1062 1.93 16.2902 1.93H15.6952V1.777H19.9792C22.5292 1.777 24.2462 3.273 24.2462 5.517C24.2462 7.761 22.5292 9.24 19.9792 9.24H18.5172V12.946C18.5172 13.762 18.6192 13.847 19.4352 13.847H19.8602V14H15.6952ZM30.483 10.498H30.33V9.563C30.33 7.931 29.446 7.744 28.494 7.744H27.814V12.793C27.814 13.167 27.644 13.473 27.44 13.677V13.694H30.823C32.455 13.694 33.237 13.031 33.356 11.399L33.458 10.039H33.73L33.441 14.646H33.288L33.339 13.847H33.322C33.203 13.966 32.965 14 32.693 14H24.992V13.847H25.587C26.403 13.847 26.488 13.762 26.488 12.946V2.831C26.488 2.015 26.403 1.93 25.587 1.93H24.992V1.777H31.775C32.047 1.777 32.285 1.811 32.404 1.93H32.421L32.37 1.148L32.523 1.131L32.829 5.738H32.523L32.455 4.548C32.353 2.712 31.469 2.083 29.837 2.083H27.44V2.1C27.644 2.304 27.814 2.61 27.814 2.984V7.438H28.494C29.446 7.438 30.33 7.268 30.33 5.636V5.041H30.483V10.498ZM34.6609 7.846C34.6609 4.123 37.0239 1.641 40.5939 1.641C41.7329 1.641 42.8379 1.998 43.7049 2.729C43.7899 2.814 43.8579 2.95 43.8919 3.069L44.0109 3.035C43.9769 2.899 43.9599 2.729 43.9599 2.542L43.9259 1.318L44.0789 1.301L44.2319 6.214L43.9259 6.231L43.8749 4.65C43.7899 3.12 42.1409 1.93 40.4579 1.93C37.6699 1.93 36.1739 3.919 36.1739 7.574C36.1739 11.654 37.7379 13.83 40.6449 13.83C42.2599 13.83 43.8239 12.946 44.4189 11.518L44.7079 11.62C44.0279 13.32 42.3959 14.136 40.6109 14.136C37.0409 14.136 34.6609 11.62 34.6609 7.846ZM46.7071 14V13.847H47.9991C48.8151 13.847 48.9001 13.762 48.9001 12.946V2.083H47.8801C46.2481 2.083 45.6701 2.406 45.5851 4.038L45.5171 4.752L45.2281 4.718L45.4831 0.773999L45.6531 0.791L45.5851 1.777H53.5071L53.4221 0.808L53.6091 0.791L53.8641 4.718L53.5581 4.752L53.5071 4.038C53.3881 2.406 52.8441 2.083 51.2121 2.083H50.2261V12.946C50.2261 13.762 50.3111 13.847 51.1271 13.847H52.3851V14H46.7071ZM60.8218 14.136C57.0308 14.136 54.5148 11.637 54.5148 7.88C54.5148 4.14 57.0308 1.641 60.8218 1.641C64.5788 1.641 67.0948 4.14 67.0948 7.88C67.0948 11.637 64.5788 14.136 60.8218 14.136ZM60.8728 13.83C63.9498 13.83 65.6158 11.875 65.6158 8.203C65.6158 4.14 63.8988 1.947 60.7538 1.947C57.6598 1.947 55.9938 3.919 55.9938 7.574C55.9938 11.654 57.6938 13.83 60.8728 13.83ZM70.4567 2.1V2.185C70.6607 2.457 70.7457 2.848 70.7457 3.239V8.934H71.6977C73.8397 8.934 74.9957 7.744 74.9957 5.517C74.9957 3.307 73.8397 2.1 71.6977 2.1H70.4567ZM67.9237 14V13.847H68.5187C69.3347 13.847 69.4197 13.762 69.4197 12.946V2.831C69.4197 2.015 69.3347 1.93 68.5187 1.93H67.9237V1.777H72.2077C74.7577 1.777 76.4747 3.273 76.4747 5.517C76.4747 7.761 74.7577 9.24 72.2077 9.24H70.7457V12.946C70.7457 13.762 70.8477 13.847 71.6637 13.847H72.0887V14H67.9237ZM75.3406 14V13.847H75.6126C76.0376 13.847 76.2926 13.371 76.5476 12.793L81.3076 1.777H82.6336V1.981C82.6336 2.321 82.7016 2.763 82.7866 2.967L86.7986 12.793C87.1386 13.609 87.2406 13.847 87.8016 13.847H87.9376V14H84.6906V13.847H85.9996V13.813C85.7786 13.728 85.5916 13.303 85.4726 13.014L84.5206 10.685H77.7886L76.8706 12.793C76.8026 12.946 76.7686 13.065 76.7686 13.184C76.7686 13.592 77.0916 13.847 77.6016 13.847H78.4346V14H75.3406ZM77.9076 10.379H84.3846L81.5116 3.29C81.3926 3.018 81.3756 2.797 81.3756 2.61H81.2226C81.2226 2.712 81.1716 2.933 81.0186 3.29L77.9076 10.379ZM88.3934 14V13.847H88.9884C89.8044 13.847 89.8894 13.609 89.8894 12.793V2.984C89.8894 2.168 89.8044 1.93 88.9884 1.93H88.3934V1.777H92.5754V1.93H92.1334C91.3174 1.93 91.2154 2.168 91.2154 2.984V7.421H95.8734V2.984C95.8734 2.168 95.7714 1.93 94.9554 1.93H94.5134V1.777H98.7124V1.93H98.1004C97.2844 1.93 97.1994 2.168 97.1994 2.984V12.793C97.1994 13.609 97.2844 13.847 98.1004 13.847H98.7124V14H94.5134V13.847H94.9724C95.7884 13.847 95.8734 13.609 95.8734 12.793V7.727H91.2154V12.793C91.2154 13.609 91.3174 13.847 92.1334 13.847H92.5754V14H88.3934ZM107.012 3.732C107.012 2.457 107.641 1.981 108.389 1.624L108.508 1.879C108.1 2.066 107.675 2.355 107.471 2.831C107.42 2.967 107.386 3.069 107.335 3.137L107.42 3.188C107.488 3.086 107.607 2.984 107.76 2.984C108.253 2.984 108.525 3.239 108.525 3.732C108.525 4.225 108.253 4.497 107.76 4.497C107.301 4.497 107.012 4.191 107.012 3.732ZM104.411 3.732C104.411 2.457 105.04 1.981 105.788 1.624L105.907 1.879C105.499 2.066 105.074 2.355 104.87 2.831C104.819 2.967 104.785 3.069 104.734 3.137L104.819 3.188C104.887 3.086 105.006 2.984 105.159 2.984C105.652 2.984 105.924 3.239 105.924 3.732C105.924 4.225 105.652 4.497 105.159 4.497C104.7 4.497 104.411 4.191 104.411 3.732ZM109.573 1.777H112.939V1.93H111.63V1.964C111.868 2.049 112.055 2.457 112.157 2.746L116.067 12.215C116.084 12.283 116.203 12.589 116.203 12.827H116.424C116.424 12.742 116.441 12.504 116.594 12.147L120.402 2.984C120.47 2.814 120.504 2.661 120.504 2.525C120.504 2.168 120.266 1.93 119.688 1.93H118.226V1.777H121.932V1.93H121.728C121.184 1.93 121.048 2.236 120.742 2.984L116.254 14.085L115.336 14.153L110.831 2.984C110.508 2.219 110.389 1.93 109.828 1.93H109.573V1.777ZM127.868 10.498H127.715V9.563C127.715 7.931 126.831 7.744 125.879 7.744H125.199V12.793C125.199 13.167 125.029 13.473 124.825 13.677V13.694H128.208C129.84 13.694 130.622 13.031 130.741 11.399L130.843 10.039H131.115L130.826 14.646H130.673L130.724 13.847H130.707C130.588 13.966 130.35 14 130.078 14H122.377V13.847H122.972C123.788 13.847 123.873 13.762 123.873 12.946V2.831C123.873 2.015 123.788 1.93 122.972 1.93H122.377V1.777H129.16C129.432 1.777 129.67 1.811 129.789 1.93H129.806L129.755 1.148L129.908 1.131L130.214 5.738H129.908L129.84 4.548C129.738 2.712 128.854 2.083 127.222 2.083H124.825V2.1C125.029 2.304 125.199 2.61 125.199 2.984V7.438H125.879C126.831 7.438 127.715 7.268 127.715 5.636V5.041H127.868V10.498ZM131.757 14V13.847H132.352C133.168 13.847 133.253 13.643 133.253 12.827V2.814C133.253 1.998 133.168 1.93 132.352 1.93H131.757V1.777H136.092V1.93H135.497C134.681 1.93 134.579 1.998 134.579 2.814V12.793C134.579 13.167 134.409 13.473 134.205 13.677V13.694H136.5C138.132 13.694 139.22 13.371 139.356 11.739L139.492 10.039H139.832L139.492 14.867L139.322 14.85L139.39 13.847H139.373C139.254 13.966 139.186 14 138.914 14H131.757ZM138.975 1.777H142.341V1.93H141.032V1.964C141.27 2.049 141.457 2.457 141.559 2.746L145.469 12.215C145.486 12.283 145.605 12.589 145.605 12.827H145.826C145.826 12.742 145.843 12.504 145.996 12.147L149.804 2.984C149.872 2.814 149.906 2.661 149.906 2.525C149.906 2.168 149.668 1.93 149.09 1.93H147.628V1.777H151.334V1.93H151.13C150.586 1.93 150.45 2.236 150.144 2.984L145.656 14.085L144.738 14.153L140.233 2.984C139.91 2.219 139.791 1.93 139.23 1.93H138.975V1.777ZM157.269 10.498H157.116V9.563C157.116 7.931 156.232 7.744 155.28 7.744H154.6V12.793C154.6 13.167 154.43 13.473 154.226 13.677V13.694H157.609C159.241 13.694 160.023 13.031 160.142 11.399L160.244 10.039H160.516L160.227 14.646H160.074L160.125 13.847H160.108C159.989 13.966 159.751 14 159.479 14H151.778V13.847H152.373C153.189 13.847 153.274 13.762 153.274 12.946V2.831C153.274 2.015 153.189 1.93 152.373 1.93H151.778V1.777H158.561C158.833 1.777 159.071 1.811 159.19 1.93H159.207L159.156 1.148L159.309 1.131L159.615 5.738H159.309L159.241 4.548C159.139 2.712 158.255 2.083 156.623 2.083H154.226V2.1C154.43 2.304 154.6 2.61 154.6 2.984V7.438H155.28C156.232 7.438 157.116 7.268 157.116 5.636V5.041H157.269V10.498ZM162.287 14V13.847H163.579C164.395 13.847 164.48 13.762 164.48 12.946V2.083H163.46C161.828 2.083 161.25 2.406 161.165 4.038L161.097 4.752L160.808 4.718L161.063 0.773999L161.233 0.791L161.165 1.777H169.087L169.002 0.808L169.189 0.791L169.444 4.718L169.138 4.752L169.087 4.038C168.968 2.406 168.424 2.083 166.792 2.083H165.806V12.946C165.806 13.762 165.891 13.847 166.707 13.847H167.965V14H162.287ZM174.716 2.389C174.716 3.664 174.087 4.14 173.339 4.497L173.22 4.242C173.628 4.055 174.053 3.766 174.257 3.29C174.308 3.154 174.342 3.052 174.393 2.984L174.308 2.933C174.24 3.035 174.121 3.137 173.968 3.137C173.475 3.137 173.203 2.882 173.203 2.389C173.203 1.896 173.475 1.624 173.968 1.624C174.427 1.624 174.716 1.93 174.716 2.389ZM172.115 2.389C172.115 3.664 171.486 4.14 170.738 4.497L170.619 4.242C171.027 4.055 171.452 3.766 171.656 3.29C171.707 3.154 171.741 3.052 171.792 2.984L171.707 2.933C171.639 3.035 171.52 3.137 171.367 3.137C170.874 3.137 170.602 2.882 170.602 2.389C170.602 1.896 170.874 1.624 171.367 1.624C171.826 1.624 172.115 1.93 172.115 2.389ZM3.31166 25.1V25.185C3.51566 25.457 3.60066 25.848 3.60066 26.239V31.934H4.55266C6.69466 31.934 7.85066 30.744 7.85066 28.517C7.85066 26.307 6.69466 25.1 4.55266 25.1H3.31166ZM0.778656 37V36.847H1.37366C2.18966 36.847 2.27466 36.762 2.27466 35.946V25.831C2.27466 25.015 2.18966 24.93 1.37366 24.93H0.778656V24.777H5.06266C7.61266 24.777 9.32966 26.273 9.32966 28.517C9.32966 30.761 7.61266 32.24 5.06266 32.24H3.60066V35.946C3.60066 36.762 3.70266 36.847 4.51866 36.847H4.94366V37H0.778656ZM15.5665 33.498H15.4135V32.563C15.4135 30.931 14.5295 30.744 13.5775 30.744H12.8975V35.793C12.8975 36.167 12.7275 36.473 12.5235 36.677V36.694H15.9065C17.5385 36.694 18.3205 36.031 18.4395 34.399L18.5415 33.039H18.8135L18.5245 37.646H18.3715L18.4225 36.847H18.4055C18.2865 36.966 18.0485 37 17.7765 37H10.0755V36.847H10.6705C11.4865 36.847 11.5715 36.762 11.5715 35.946V25.831C11.5715 25.015 11.4865 24.93 10.6705 24.93H10.0755V24.777H16.8585C17.1305 24.777 17.3685 24.811 17.4875 24.93H17.5045L17.4535 24.148L17.6065 24.131L17.9125 28.738H17.6065L17.5385 27.548C17.4365 25.712 16.5525 25.083 14.9205 25.083H12.5235V25.1C12.7275 25.304 12.8975 25.61 12.8975 25.984V30.438H13.5775C14.5295 30.438 15.4135 30.268 15.4135 28.636V28.041H15.5665V33.498ZM19.7444 30.846C19.7444 27.123 22.1074 24.641 25.6774 24.641C26.8164 24.641 27.9214 24.998 28.7884 25.729C28.8734 25.814 28.9414 25.95 28.9754 26.069L29.0944 26.035C29.0604 25.899 29.0434 25.729 29.0434 25.542L29.0094 24.318L29.1624 24.301L29.3154 29.214L29.0094 29.231L28.9584 27.65C28.8734 26.12 27.2244 24.93 25.5414 24.93C22.7534 24.93 21.2574 26.919 21.2574 30.574C21.2574 34.654 22.8214 36.83 25.7284 36.83C27.3434 36.83 28.9074 35.946 29.5024 34.518L29.7914 34.62C29.1114 36.32 27.4794 37.136 25.6944 37.136C22.1244 37.136 19.7444 34.62 19.7444 30.846ZM30.5453 37V36.847H31.1403C31.9563 36.847 32.0413 36.609 32.0413 35.793V25.984C32.0413 25.168 31.9563 24.93 31.1403 24.93H30.5453V24.777H40.8643V24.93H40.2523C39.4363 24.93 39.3513 25.168 39.3513 25.984V35.793C39.3513 36.609 39.4363 36.847 40.2523 36.847H40.8643V37H36.6653V36.847H37.1243C37.9403 36.847 38.0253 36.609 38.0253 35.793V25.083H33.3673V35.793C33.3673 36.609 33.4693 36.847 34.2853 36.847H34.7273V37H30.5453ZM42.6595 35.793C42.8975 35.844 43.3735 35.912 43.6115 35.912C44.8695 35.912 45.3455 35.351 45.6855 34.535L45.8215 34.212C45.8725 34.093 45.9065 33.94 45.9065 33.787C45.9065 33.617 45.8725 33.447 45.8045 33.26L42.6425 25.984C42.3195 25.202 42.2005 24.93 41.6225 24.93H41.3675V24.777H44.6485V24.93H43.4415V24.964C43.6795 25.049 43.8665 25.457 44.0025 25.763L46.4505 31.339C46.5525 31.577 46.5695 31.951 46.5695 32.053V32.087L46.6885 32.053L49.0685 25.984C49.1365 25.814 49.1875 25.627 49.1875 25.474C49.1875 25.168 48.9835 24.93 48.3545 24.93H47.5725V24.777H50.4965V24.913H50.3945C49.8335 24.913 49.6975 25.236 49.4085 25.984L45.8215 35.062C45.2605 36.456 44.3935 37.136 43.5265 37.136C42.9485 37.136 42.6595 36.694 42.6595 35.793ZM50.932 37V36.83H51.527C52.343 36.83 52.428 36.745 52.428 35.929V25.831C52.428 25.015 52.343 24.93 51.527 24.93H50.932V24.777H58.004C58.276 24.777 58.344 24.811 58.463 24.93H58.48L58.412 23.774L58.565 23.757L58.888 28.738H58.582L58.514 27.548C58.395 25.729 57.069 25.083 55.437 25.083H53.38V25.1C53.584 25.304 53.754 25.61 53.754 25.984V30.37H54.944C58.021 30.37 60.061 31.696 60.061 33.685C60.061 35.674 58.191 37 55.386 37H50.932ZM53.754 30.659V35.793C53.754 36.184 53.669 36.456 53.465 36.66V36.694H55.063C57.341 36.694 58.582 35.657 58.582 33.685C58.582 31.73 57.307 30.659 54.961 30.659H53.754ZM62.0205 24.777H63.4825H68.1405H70.9795V24.93H70.3675C69.5515 24.93 69.4665 25.168 69.4665 25.984V35.793C69.4665 36.609 69.5515 36.847 70.3675 36.847H70.9795V37H66.7805V36.847H67.2395C68.0555 36.847 68.1405 36.609 68.1405 35.793V25.083H64.1625V29.231C64.1625 33.77 62.8535 36.677 61.7145 37.629L60.7285 36.49C61.9695 35.402 63.7035 33.022 63.7205 29.639V26.188C63.7205 24.998 63.5845 24.93 62.3945 24.93H62.0205V24.777ZM71.5677 37V36.847H72.1627C72.9787 36.847 73.0637 36.609 73.0637 35.793V25.984C73.0637 25.168 72.9787 24.93 72.1627 24.93H71.5677V24.777H75.7497V24.93H75.3077C74.4917 24.93 74.3897 25.168 74.3897 25.984V35.844L79.2177 24.777H81.8867V24.93H81.2747C80.4587 24.93 80.3737 25.168 80.3737 25.984V35.793C80.3737 36.609 80.4587 36.847 81.2747 36.847H81.8867V37H77.6877V36.847H78.1467C78.9627 36.847 79.0477 36.609 79.0477 35.793V25.933L74.2197 37H71.5677ZM82.4749 37V36.847H83.0699C83.8859 36.847 83.9709 36.745 83.9709 35.793V25.831C83.9709 25.015 83.8859 24.93 83.0699 24.93H82.4749V24.777H86.3679V24.93H86.2149C85.3989 24.93 85.2969 25.015 85.2969 25.831V29.656C85.9089 29.656 86.2319 29.622 86.4019 29.418L89.0879 26.035C89.2919 25.78 89.3939 25.559 89.3939 25.406C89.3939 25.083 89.0369 24.93 88.5099 24.93H88.3569V24.777H92.1139V24.93H91.9099C91.1619 24.93 90.1249 25.202 89.4109 26.103L86.7079 29.52L86.7249 29.588C88.7819 30.064 89.4279 32.121 89.9549 33.821C90.4819 35.555 90.9919 37.136 93.0829 37.136C94.2559 37.136 95.0379 36.422 95.0379 35.317C95.0379 34.399 94.4259 33.77 93.4909 33.685H93.0319L93.1679 33.379H98.9989L96.1259 26.29C96.0069 26.018 95.9899 25.797 95.9899 25.61H95.8369C95.8369 25.712 95.7859 25.933 95.6329 26.29L91.5529 35.589L91.3319 35.368L95.9219 24.777H97.2479V24.981C97.2479 25.321 97.3159 25.763 97.4009 25.967L101.413 35.793C101.753 36.609 101.855 36.847 102.416 36.847H102.552V37H99.3049V36.847H100.614V36.813C100.393 36.728 100.206 36.303 100.087 36.014L99.1349 33.685H94.1539C94.7999 33.957 95.2079 34.552 95.2079 35.317C95.2079 36.711 94.1539 37.646 92.6069 37.646C90.1249 37.646 89.2409 35.555 88.6289 33.515C88.0509 31.645 87.4899 29.809 85.5009 29.809H85.2969V35.793C85.2969 36.745 85.3989 36.847 86.2149 36.847H86.8099V37H82.4749ZM107.816 30.846C107.816 27.123 110.179 24.641 113.749 24.641C114.888 24.641 115.993 24.998 116.86 25.729C116.945 25.814 117.013 25.95 117.047 26.069L117.166 26.035C117.132 25.899 117.115 25.729 117.115 25.542L117.081 24.318L117.234 24.301L117.387 29.214L117.081 29.231L117.03 27.65C116.945 26.12 115.296 24.93 113.613 24.93C110.825 24.93 109.329 26.919 109.329 30.574C109.329 34.654 110.893 36.83 113.8 36.83C115.415 36.83 116.979 35.946 117.574 34.518L117.863 34.62C117.183 36.32 115.551 37.136 113.766 37.136C110.196 37.136 107.816 34.62 107.816 30.846ZM124.108 33.498H123.955V32.563C123.955 30.931 123.071 30.744 122.119 30.744H121.439V35.793C121.439 36.167 121.269 36.473 121.065 36.677V36.694H124.448C126.08 36.694 126.862 36.031 126.981 34.399L127.083 33.039H127.355L127.066 37.646H126.913L126.964 36.847H126.947C126.828 36.966 126.59 37 126.318 37H118.617V36.847H119.212C120.028 36.847 120.113 36.762 120.113 35.946V25.831C120.113 25.015 120.028 24.93 119.212 24.93H118.617V24.777H125.4C125.672 24.777 125.91 24.811 126.029 24.93H126.046L125.995 24.148L126.148 24.131L126.454 28.738H126.148L126.08 27.548C125.978 25.712 125.094 25.083 123.462 25.083H121.065V25.1C121.269 25.304 121.439 25.61 121.439 25.984V30.438H122.119C123.071 30.438 123.955 30.268 123.955 28.636V28.041H124.108V33.498ZM130.529 36.694H132.467C134.575 36.694 135.986 35.402 135.986 33.464C135.986 31.424 134.473 29.962 132.365 29.962H131.464V29.673H132.144C133.64 29.673 134.728 28.721 134.728 27.378C134.728 26.001 133.589 25.083 131.906 25.083H130.529V25.1C130.733 25.304 130.818 25.593 130.818 25.984V35.793C130.818 36.184 130.733 36.456 130.529 36.66V36.694ZM127.996 37V36.847H128.591C129.407 36.847 129.492 36.762 129.492 35.946V25.831C129.492 25.015 129.407 24.93 128.591 24.93H127.996V24.777H132.144C134.558 24.777 136.173 25.814 136.173 27.344C136.173 28.313 135.289 29.503 133.725 29.724V29.792C135.935 29.945 137.465 31.73 137.465 33.464C137.465 35.589 135.408 37 132.773 37H127.996ZM143.548 33.498H143.395V32.563C143.395 30.931 142.511 30.744 141.559 30.744H140.879V35.793C140.879 36.167 140.709 36.473 140.505 36.677V36.694H143.888C145.52 36.694 146.302 36.031 146.421 34.399L146.523 33.039H146.795L146.506 37.646H146.353L146.404 36.847H146.387C146.268 36.966 146.03 37 145.758 37H138.057V36.847H138.652C139.468 36.847 139.553 36.762 139.553 35.946V25.831C139.553 25.015 139.468 24.93 138.652 24.93H138.057V24.777H144.84C145.112 24.777 145.35 24.811 145.469 24.93H145.486L145.435 24.148L145.588 24.131L145.894 28.738H145.588L145.52 27.548C145.418 25.712 144.534 25.083 142.902 25.083H140.505V25.1C140.709 25.304 140.879 25.61 140.879 25.984V30.438H141.559C142.511 30.438 143.395 30.268 143.395 28.636V28.041H143.548V33.498ZM149.97 25.1V25.185C150.174 25.457 150.259 25.848 150.259 26.239V31.934H151.211C153.353 31.934 154.509 30.744 154.509 28.517C154.509 26.307 153.353 25.1 151.211 25.1H149.97ZM147.437 37V36.847H148.032C148.848 36.847 148.933 36.762 148.933 35.946V25.831C148.933 25.015 148.848 24.93 148.032 24.93H147.437V24.777H151.721C154.271 24.777 155.988 26.273 155.988 28.517C155.988 30.761 154.271 32.24 151.721 32.24H150.259V35.946C150.259 36.762 150.361 36.847 151.177 36.847H151.602V37H147.437ZM156.734 37V36.847H157.329C158.145 36.847 158.23 36.609 158.23 35.793V25.984C158.23 25.168 158.145 24.93 157.329 24.93H156.734V24.777H160.916V24.93H160.474C159.658 24.93 159.556 25.168 159.556 25.984V30.421H164.214V25.984C164.214 25.168 164.112 24.93 163.296 24.93H162.854V24.777H167.053V24.93H166.441C165.625 24.93 165.54 25.168 165.54 25.984V35.793C165.54 36.609 165.625 36.847 166.441 36.847H167.053V37H162.854V36.847H163.313C164.129 36.847 164.214 36.609 164.214 35.793V30.727H159.556V35.793C159.556 36.609 159.658 36.847 160.474 36.847H160.916V37H156.734ZM167.471 37V36.847H167.743C168.168 36.847 168.423 36.371 168.678 35.793L173.438 24.777H174.764V24.981C174.764 25.321 174.832 25.763 174.917 25.967L178.929 35.793C179.269 36.609 179.371 36.847 179.932 36.847H180.068V37H176.821V36.847H178.13V36.813C177.909 36.728 177.722 36.303 177.603 36.014L176.651 33.685H169.919L169.001 35.793C168.933 35.946 168.899 36.065 168.899 36.184C168.899 36.592 169.222 36.847 169.732 36.847H170.565V37H167.471ZM170.038 33.379H176.515L173.642 26.29C173.523 26.018 173.506 25.797 173.506 25.61H173.353C173.353 25.712 173.302 25.933 173.149 26.29L170.038 33.379ZM186.168 37V36.847H186.474C187.29 36.847 187.392 36.762 187.392 35.946V31.645H186.083C186.049 34.943 184.638 37.136 182.513 37.136C181.816 37.136 181.153 36.915 180.643 36.473V35.13C181.459 35.725 182.224 36.014 182.887 36.014C184.74 36.014 185.76 34.433 185.76 31.645C183.04 31.645 181.085 30.489 181.085 28.211C181.085 25.95 183.057 24.777 185.777 24.777H190.214V24.93H189.619C188.803 24.93 188.718 25.015 188.718 25.831V35.946C188.718 36.762 188.803 36.847 189.619 36.847H190.214V37H186.168ZM187.392 31.339V25.984C187.392 25.593 187.477 25.304 187.681 25.1V25.083H185.913C183.839 25.083 182.564 25.967 182.564 28.211C182.564 30.489 183.839 31.339 185.913 31.339H187.392ZM22.0488 60.136C18.2578 60.136 15.7418 57.637 15.7418 53.88C15.7418 50.14 18.2578 47.641 22.0488 47.641C25.8058 47.641 28.3218 50.14 28.3218 53.88C28.3218 57.637 25.8058 60.136 22.0488 60.136ZM22.0998 59.83C25.1768 59.83 26.8428 57.875 26.8428 54.203C26.8428 50.14 25.1258 47.947 21.9808 47.947C18.8868 47.947 17.2208 49.919 17.2208 53.574C17.2208 57.654 18.9208 59.83 22.0998 59.83ZM29.4397 53.846C29.4397 50.123 31.8027 47.641 35.3727 47.641C36.5117 47.641 37.6167 47.998 38.4837 48.729C38.5687 48.814 38.6367 48.95 38.6707 49.069L38.7897 49.035C38.7557 48.899 38.7387 48.729 38.7387 48.542L38.7047 47.318L38.8577 47.301L39.0107 52.214L38.7047 52.231L38.6537 50.65C38.5687 49.12 36.9197 47.93 35.2367 47.93C32.4487 47.93 30.9527 49.919 30.9527 53.574C30.9527 57.654 32.5167 59.83 35.4237 59.83C37.0387 59.83 38.6027 58.946 39.1977 57.518L39.4867 57.62C38.8067 59.32 37.1747 60.136 35.3897 60.136C31.8197 60.136 29.4397 57.62 29.4397 53.846ZM45.7316 56.498H45.5786V55.563C45.5786 53.931 44.6946 53.744 43.7426 53.744H43.0626V58.793C43.0626 59.167 42.8926 59.473 42.6886 59.677V59.694H46.0716C47.7036 59.694 48.4856 59.031 48.6046 57.399L48.7066 56.039H48.9786L48.6896 60.646H48.5366L48.5876 59.847H48.5706C48.4516 59.966 48.2136 60 47.9416 60H40.2406V59.847H40.8356C41.6516 59.847 41.7366 59.762 41.7366 58.946V48.831C41.7366 48.015 41.6516 47.93 40.8356 47.93H40.2406V47.777H47.0236C47.2956 47.777 47.5336 47.811 47.6526 47.93H47.6696L47.6186 47.148L47.7716 47.131L48.0776 51.738H47.7716L47.7036 50.548C47.6016 48.712 46.7176 48.083 45.0856 48.083H42.6886V48.1C42.8926 48.304 43.0626 48.61 43.0626 48.984V53.438H43.7426C44.6946 53.438 45.5786 53.268 45.5786 51.636V51.041H45.7316V56.498ZM50.8658 60V59.847H52.1578C52.9738 59.847 53.0588 59.762 53.0588 58.946V48.083H52.0388C50.4068 48.083 49.8288 48.406 49.7438 50.038L49.6758 50.752L49.3868 50.718L49.6418 46.774L49.8118 46.791L49.7438 47.777H57.6658L57.5808 46.808L57.7678 46.791L58.0228 50.718L57.7168 50.752L57.6658 50.038C57.5468 48.406 57.0028 48.083 55.3708 48.083H54.3848V58.946C54.3848 59.762 54.4698 59.847 55.2858 59.847H56.5438V60H50.8658ZM58.5853 60V59.847H59.1803C59.9963 59.847 60.0813 59.609 60.0813 58.793V48.984C60.0813 48.168 59.9963 47.93 59.1803 47.93H58.5853V47.777H62.7673V47.93H62.3253C61.5093 47.93 61.4073 48.168 61.4073 48.984V58.844L66.2353 47.777H68.9043V47.93H68.2923C67.4763 47.93 67.3913 48.168 67.3913 48.984V58.793C67.3913 59.609 67.4763 59.847 68.2923 59.847H68.9043V60H64.7053V59.847H65.1643C65.9803 59.847 66.0653 59.609 66.0653 58.793V48.933L61.2373 60H58.5853ZM75.1365 60V59.847H75.4425C76.2585 59.847 76.3605 59.762 76.3605 58.946V54.645H75.0515C75.0175 57.943 73.6065 60.136 71.4815 60.136C70.7845 60.136 70.1215 59.915 69.6115 59.473V58.13C70.4275 58.725 71.1925 59.014 71.8555 59.014C73.7085 59.014 74.7285 57.433 74.7285 54.645C72.0085 54.645 70.0535 53.489 70.0535 51.211C70.0535 48.95 72.0255 47.777 74.7455 47.777H79.1825V47.93H78.5875C77.7715 47.93 77.6865 48.015 77.6865 48.831V58.946C77.6865 59.762 77.7715 59.847 78.5875 59.847H79.1825V60H75.1365ZM76.3605 54.339V48.984C76.3605 48.593 76.4455 48.304 76.6495 48.1V48.083H74.8815C72.8075 48.083 71.5325 48.967 71.5325 51.211C71.5325 53.489 72.8075 54.339 74.8815 54.339H76.3605ZM99.1587 55.325H84.3177V54.866H99.1587V55.325ZM104.103 60V59.847H104.375C104.8 59.847 105.055 59.371 105.31 58.793L110.07 47.777H111.396V47.981C111.396 48.321 111.464 48.763 111.549 48.967L115.561 58.793C115.901 59.609 116.003 59.847 116.564 59.847H116.7V60H113.453V59.847H114.762V59.813C114.541 59.728 114.354 59.303 114.235 59.014L113.283 56.685H106.551L105.633 58.793C105.565 58.946 105.531 59.065 105.531 59.184C105.531 59.592 105.854 59.847 106.364 59.847H107.197V60H104.103ZM106.67 56.379H113.147L110.274 49.29C110.155 49.018 110.138 48.797 110.138 48.61H109.985C109.985 48.712 109.934 48.933 109.781 49.29L106.67 56.379ZM118.217 47.777H119.679H124.337H127.176V47.93H126.564C125.748 47.93 125.663 48.168 125.663 48.984V58.793C125.663 59.609 125.748 59.847 126.564 59.847H127.176V60H122.977V59.847H123.436C124.252 59.847 124.337 59.609 124.337 58.793V48.083H120.359V52.231C120.359 56.77 119.05 59.677 117.911 60.629L116.925 59.49C118.166 58.402 119.9 56.022 119.917 52.639V49.188C119.917 47.998 119.781 47.93 118.591 47.93H118.217V47.777ZM127.594 60V59.847H127.866C128.291 59.847 128.546 59.371 128.801 58.793L133.561 47.777H134.887V47.981C134.887 48.321 134.955 48.763 135.04 48.967L139.052 58.793C139.392 59.609 139.494 59.847 140.055 59.847H140.191V60H136.944V59.847H138.253V59.813C138.032 59.728 137.845 59.303 137.726 59.014L136.774 56.685H130.042L129.124 58.793C129.056 58.946 129.022 59.065 129.022 59.184C129.022 59.592 129.345 59.847 129.855 59.847H130.688V60H127.594ZM130.161 56.379H136.638L133.765 49.29C133.646 49.018 133.629 48.797 133.629 48.61H133.476C133.476 48.712 133.425 48.933 133.272 49.29L130.161 56.379ZM140.647 60V59.847H141.242C142.058 59.847 142.143 59.609 142.143 58.793V48.984C142.143 48.168 142.058 47.93 141.242 47.93H140.647V47.777H144.829V47.93H144.387C143.571 47.93 143.469 48.168 143.469 48.984V53.421H148.127V48.984C148.127 48.168 148.025 47.93 147.209 47.93H146.767V47.777H150.966V47.93H150.354C149.538 47.93 149.453 48.168 149.453 48.984V58.793C149.453 59.609 149.538 59.847 150.354 59.847H150.966V60H146.767V59.847H147.226C148.042 59.847 148.127 59.609 148.127 58.793V53.727H143.469V58.793C143.469 59.609 143.571 59.847 144.387 59.847H144.829V60H140.647ZM151.554 60V59.847H152.149C152.965 59.847 153.05 59.609 153.05 58.793V48.984C153.05 48.168 152.965 47.93 152.149 47.93H151.554V47.777H155.736V47.93H155.294C154.478 47.93 154.376 48.168 154.376 48.984V58.844L159.204 47.777H161.873V47.93H161.261C160.445 47.93 160.36 48.168 160.36 48.984V58.793C160.36 59.609 160.445 59.847 161.261 59.847H161.873V60H157.674V59.847H158.133C158.949 59.847 159.034 59.609 159.034 58.793V48.933L154.206 60H151.554ZM168.105 60V59.847H168.411C169.227 59.847 169.329 59.762 169.329 58.946V54.645H168.02C167.986 57.943 166.575 60.136 164.45 60.136C163.753 60.136 163.09 59.915 162.58 59.473V58.13C163.396 58.725 164.161 59.014 164.824 59.014C166.677 59.014 167.697 57.433 167.697 54.645C164.977 54.645 163.022 53.489 163.022 51.211C163.022 48.95 164.994 47.777 167.714 47.777H172.151V47.93H171.556C170.74 47.93 170.655 48.015 170.655 48.831V58.946C170.655 59.762 170.74 59.847 171.556 59.847H172.151V60H168.105ZM169.329 54.339V48.984C169.329 48.593 169.414 48.304 169.618 48.1V48.083H167.85C165.776 48.083 164.501 48.967 164.501 51.211C164.501 53.489 165.776 54.339 167.85 54.339H169.329ZM173.485 61.377C173.944 61.377 174.369 60.918 174.454 60.442C174.471 60.323 174.488 60.136 174.522 60.068L174.471 60.034C174.42 60.102 174.25 60.153 174.131 60.153C173.638 60.153 173.366 59.898 173.366 59.405C173.366 58.912 173.638 58.64 174.131 58.64C174.59 58.64 174.879 58.946 174.879 59.405C174.879 60.68 174.318 61.53 173.485 61.53V61.377ZM3.54282 83V82.847H4.13782C4.95382 82.847 5.03882 82.609 5.03882 81.793V71.984C5.03882 71.168 4.95382 70.93 4.13782 70.93H3.54282V70.777H13.8618V70.93H13.2498C12.4338 70.93 12.3488 71.168 12.3488 71.984V81.793C12.3488 82.609 12.4338 82.847 13.2498 82.847H13.8618V83H9.66282V82.847H10.1218C10.9378 82.847 11.0228 82.609 11.0228 81.793V71.083H6.36482V81.793C6.36482 82.609 6.46682 82.847 7.28282 82.847H7.72482V83H3.54282ZM16.983 71.1V71.185C17.187 71.457 17.272 71.848 17.272 72.239V77.934H18.224C20.366 77.934 21.522 76.744 21.522 74.517C21.522 72.307 20.366 71.1 18.224 71.1H16.983ZM14.45 83V82.847H15.045C15.861 82.847 15.946 82.762 15.946 81.946V71.831C15.946 71.015 15.861 70.93 15.045 70.93H14.45V70.777H18.734C21.284 70.777 23.001 72.273 23.001 74.517C23.001 76.761 21.284 78.24 18.734 78.24H17.272V81.946C17.272 82.762 17.374 82.847 18.19 82.847H18.615V83H14.45ZM23.7469 83V82.847H24.3419C25.1579 82.847 25.2429 82.609 25.2429 81.793V71.984C25.2429 71.168 25.1579 70.93 24.3419 70.93H23.7469V70.777H27.9289V70.93H27.4869C26.6709 70.93 26.5689 71.168 26.5689 71.984V81.844L31.3969 70.777H34.0659V70.93H33.4539C32.6379 70.93 32.5529 71.168 32.5529 71.984V81.793C32.5529 82.609 32.6379 82.847 33.4539 82.847H34.0659V83H29.8669V82.847H30.3259C31.1419 82.847 31.2269 82.609 31.2269 81.793V71.933L26.3989 83H23.7469ZM34.6541 83V82.847H35.2491C36.0651 82.847 36.1501 82.762 36.1501 81.946V71.831C36.1501 71.015 36.0651 70.93 35.2491 70.93H34.6541V70.777H41.0461C41.3181 70.777 41.3861 70.811 41.5051 70.93H41.5221L41.4541 69.774L41.6071 69.757L41.9301 74.738H41.6241L41.5561 73.548C41.4541 71.712 40.1111 71.083 38.4791 71.083H37.1021V71.1C37.3061 71.304 37.4761 71.61 37.4761 71.984V81.946C37.4761 82.762 37.5781 82.847 38.3941 82.847H39.4991V83H34.6541ZM48.9683 83.136C45.1773 83.136 42.6613 80.637 42.6613 76.88C42.6613 73.14 45.1773 70.641 48.9683 70.641C52.7253 70.641 55.2413 73.14 55.2413 76.88C55.2413 80.637 52.7253 83.136 48.9683 83.136ZM49.0193 82.83C52.0963 82.83 53.7623 80.875 53.7623 77.203C53.7623 73.14 52.0453 70.947 48.9003 70.947C45.8063 70.947 44.1403 72.919 44.1403 76.574C44.1403 80.654 45.8403 82.83 49.0193 82.83ZM58.6032 71.1V71.185C58.8072 71.457 58.8922 71.848 58.8922 72.239V77.934H59.8442C61.9862 77.934 63.1422 76.744 63.1422 74.517C63.1422 72.307 61.9862 71.1 59.8442 71.1H58.6032ZM56.0702 83V82.847H56.6652C57.4812 82.847 57.5662 82.762 57.5662 81.946V71.831C57.5662 71.015 57.4812 70.93 56.6652 70.93H56.0702V70.777H60.3542C62.9042 70.777 64.6212 72.273 64.6212 74.517C64.6212 76.761 62.9042 78.24 60.3542 78.24H58.8922V81.946C58.8922 82.762 58.9942 82.847 59.8102 82.847H60.2352V83H56.0702ZM71.895 83.136C68.104 83.136 65.588 80.637 65.588 76.88C65.588 73.14 68.104 70.641 71.895 70.641C75.652 70.641 78.168 73.14 78.168 76.88C78.168 80.637 75.652 83.136 71.895 83.136ZM71.946 82.83C75.023 82.83 76.689 80.875 76.689 77.203C76.689 73.14 74.972 70.947 71.827 70.947C68.733 70.947 67.067 72.919 67.067 76.574C67.067 80.654 68.767 82.83 71.946 82.83ZM77.5166 82.694H78.6896C79.9306 81.623 81.6646 79.022 81.6816 75.639V72.188C81.6816 70.998 81.5456 70.93 80.3556 70.93H79.9816V70.777H88.2606V70.93H87.6486C86.8326 70.93 86.7476 71.168 86.7476 71.984V82.694H88.2606V85.856H87.6486V84.054C87.6486 83.238 87.5466 83 86.7306 83H79.0466C78.2306 83 78.1286 83.238 78.1286 84.054V85.856H77.5166V82.694ZM80.5596 82.694H85.4216V71.083H82.1236V75.231C82.1236 78.614 81.3926 81.198 80.5596 82.694ZM88.9247 83V82.847H89.5197C90.3357 82.847 90.4207 82.609 90.4207 81.793V71.984C90.4207 71.168 90.3357 70.93 89.5197 70.93H88.9247V70.777H93.1067V70.93H92.6647C91.8487 70.93 91.7467 71.168 91.7467 71.984V76.421H96.4047V71.984C96.4047 71.168 96.3027 70.93 95.4867 70.93H95.0447V70.777H99.2437V70.93H98.6317C97.8157 70.93 97.7307 71.168 97.7307 71.984V81.793C97.7307 82.609 97.8157 82.847 98.6317 82.847H99.2437V83H95.0447V82.847H95.5037C96.3197 82.847 96.4047 82.609 96.4047 81.793V76.727H91.7467V81.793C91.7467 82.609 91.8487 82.847 92.6647 82.847H93.1067V83H88.9247ZM108.485 83V82.847H109.08C109.896 82.847 109.981 82.779 109.981 81.963V71.814C109.981 70.998 109.896 70.93 109.08 70.93H108.485V70.777H112.82V70.964H112.225C111.409 70.964 111.307 71.032 111.307 71.848V81.963C111.307 82.779 111.409 82.847 112.225 82.847H112.82V83H108.485ZM99.8319 83V82.83H100.427C101.243 82.83 101.328 82.745 101.328 81.929V71.814C101.328 70.998 101.243 70.93 100.427 70.93H99.8319V70.777H104.167V70.93H103.572C102.756 70.93 102.654 71.032 102.654 71.848V76.71H103.946C106.547 76.71 108.281 77.968 108.281 79.855C108.281 81.742 106.547 83 103.946 83H99.8319ZM102.654 76.999V81.793C102.654 82.184 102.569 82.456 102.365 82.66V82.694H103.623C105.68 82.694 106.802 81.708 106.802 79.855C106.802 78.002 105.68 76.999 103.623 76.999H102.654ZM113.412 83V82.847H114.007C114.823 82.847 114.908 82.609 114.908 81.793V71.984C114.908 71.168 114.823 70.93 114.007 70.93H113.412V70.777H117.594V70.93H117.152C116.336 70.93 116.234 71.168 116.234 71.984V81.844L121.062 70.777H123.731V70.93H123.119C122.303 70.93 122.218 71.168 122.218 71.984V81.793C122.218 82.609 122.303 82.847 123.119 82.847H123.731V83H119.532V82.847H119.991C120.807 82.847 120.892 82.609 120.892 81.793V71.933L116.064 83H113.412ZM116.472 67.717L117.084 67.666C117.084 68.601 117.849 69.366 118.818 69.366C119.77 69.366 120.552 68.601 120.552 67.666L121.164 67.717C121.164 68.822 120.11 69.672 118.818 69.672C117.509 69.672 116.472 68.822 116.472 67.717ZM131.368 71.1V71.185C131.572 71.457 131.657 71.848 131.657 72.239V77.934H132.609C134.751 77.934 135.907 76.744 135.907 74.517C135.907 72.307 134.751 71.1 132.609 71.1H131.368ZM128.835 83V82.847H129.43C130.246 82.847 130.331 82.762 130.331 81.946V71.831C130.331 71.015 130.246 70.93 129.43 70.93H128.835V70.777H133.119C135.669 70.777 137.386 72.273 137.386 74.517C137.386 76.761 135.669 78.24 133.119 78.24H131.657V81.946C131.657 82.762 131.759 82.847 132.575 82.847H133V83H128.835ZM136.252 83V82.847H136.524C136.949 82.847 137.204 82.371 137.459 81.793L142.219 70.777H143.545V70.981C143.545 71.321 143.613 71.763 143.698 71.967L147.71 81.793C148.05 82.609 148.152 82.847 148.713 82.847H148.849V83H145.602V82.847H146.911V82.813C146.69 82.728 146.503 82.303 146.384 82.014L145.432 79.685H138.7L137.782 81.793C137.714 81.946 137.68 82.065 137.68 82.184C137.68 82.592 138.003 82.847 138.513 82.847H139.346V83H136.252ZM138.819 79.379H145.296L142.423 72.29C142.304 72.018 142.287 71.797 142.287 71.61H142.134C142.134 71.712 142.083 71.933 141.93 72.29L138.819 79.379ZM149.305 83V82.847H149.9C150.716 82.847 150.801 82.609 150.801 81.793V71.984C150.801 71.168 150.716 70.93 149.9 70.93H149.305V70.777H153.487V70.93H153.045C152.229 70.93 152.127 71.168 152.127 71.984V81.844L156.955 70.777H159.624V70.93H159.012C158.196 70.93 158.111 71.168 158.111 71.984V81.793C158.111 82.609 158.196 82.847 159.012 82.847H159.624V83H155.425V82.847H155.884C156.7 82.847 156.785 82.609 156.785 81.793V71.933L151.957 83H149.305ZM152.365 67.717L152.977 67.666C152.977 68.601 153.742 69.366 154.711 69.366C155.663 69.366 156.445 68.601 156.445 67.666L157.057 67.717C157.057 68.822 156.003 69.672 154.711 69.672C153.402 69.672 152.365 68.822 152.365 67.717ZM166.74 83.136C162.949 83.136 160.433 80.637 160.433 76.88C160.433 73.14 162.949 70.641 166.74 70.641C170.497 70.641 173.013 73.14 173.013 76.88C173.013 80.637 170.497 83.136 166.74 83.136ZM166.791 82.83C169.868 82.83 171.534 80.875 171.534 77.203C171.534 73.14 169.817 70.947 166.672 70.947C163.578 70.947 161.912 72.919 161.912 76.574C161.912 80.654 163.612 82.83 166.791 82.83ZM173.842 83V82.847H174.437C175.253 82.847 175.338 82.609 175.338 81.793V71.984C175.338 71.168 175.253 70.93 174.437 70.93H173.842V70.777H178.024V70.93H177.582C176.766 70.93 176.664 71.168 176.664 71.984V76.421H181.322V71.984C181.322 71.168 181.22 70.93 180.404 70.93H179.962V70.777H184.161V70.93H183.549C182.733 70.93 182.648 71.168 182.648 71.984V81.793C182.648 82.609 182.733 82.847 183.549 82.847H184.161V83H179.962V82.847H180.421C181.237 82.847 181.322 82.609 181.322 81.793V76.727H176.664V81.793C176.664 82.609 176.766 82.847 177.582 82.847H178.024V83H173.842ZM185.463 84.377C185.922 84.377 186.347 83.918 186.432 83.442C186.449 83.323 186.466 83.136 186.5 83.068L186.449 83.034C186.398 83.102 186.228 83.153 186.109 83.153C185.616 83.153 185.344 82.898 185.344 82.405C185.344 81.912 185.616 81.64 186.109 81.64C186.568 81.64 186.857 81.946 186.857 82.405C186.857 83.68 186.296 84.53 185.463 84.53V84.377ZM44.0491 99.846C44.0491 96.123 46.4121 93.641 49.9821 93.641C51.1211 93.641 52.2261 93.998 53.0931 94.729C53.1781 94.814 53.2461 94.95 53.2801 95.069L53.3991 95.035C53.3651 94.899 53.3481 94.729 53.3481 94.542L53.3141 93.318L53.4671 93.301L53.6201 98.214L53.3141 98.231L53.2631 96.65C53.1781 95.12 51.5291 93.93 49.8461 93.93C47.0581 93.93 45.5621 95.919 45.5621 99.574C45.5621 103.654 47.1261 105.83 50.0331 105.83C51.6481 105.83 53.2121 104.946 53.8071 103.518L54.0961 103.62C53.4161 105.32 51.7841 106.136 49.9991 106.136C46.4291 106.136 44.0491 103.62 44.0491 99.846ZM60.3409 102.498H60.1879V101.563C60.1879 99.931 59.3039 99.744 58.3519 99.744H57.6719V104.793C57.6719 105.167 57.5019 105.473 57.2979 105.677V105.694H60.6809C62.3129 105.694 63.0949 105.031 63.2139 103.399L63.3159 102.039H63.5879L63.2989 106.646H63.1459L63.1969 105.847H63.1799C63.0609 105.966 62.8229 106 62.5509 106H54.8499V105.847H55.4449C56.2609 105.847 56.3459 105.762 56.3459 104.946V94.831C56.3459 94.015 56.2609 93.93 55.4449 93.93H54.8499V93.777H61.6329C61.9049 93.777 62.1429 93.811 62.2619 93.93H62.2789L62.2279 93.148L62.3809 93.131L62.6869 97.738H62.3809L62.3129 96.548C62.2109 94.712 61.3269 94.083 59.6949 94.083H57.2979V94.1C57.5019 94.304 57.6719 94.61 57.6719 94.984V99.438H58.3519C59.3039 99.438 60.1879 99.268 60.1879 97.636V97.041H60.3409V102.498ZM65.5898 93.777H67.0518H71.7098H74.5488V93.93H73.9368C73.1208 93.93 73.0358 94.168 73.0358 94.984V104.793C73.0358 105.609 73.1208 105.847 73.9368 105.847H74.5488V106H70.3498V105.847H70.8088C71.6248 105.847 71.7098 105.609 71.7098 104.793V94.083H67.7318V98.231C67.7318 102.77 66.4228 105.677 65.2838 106.629L64.2978 105.49C65.5388 104.402 67.2728 102.022 67.2898 98.639V95.188C67.2898 93.998 67.1538 93.93 65.9638 93.93H65.5898V93.777ZM81.6651 106.136C77.8741 106.136 75.3581 103.637 75.3581 99.88C75.3581 96.14 77.8741 93.641 81.6651 93.641C85.4221 93.641 87.9381 96.14 87.9381 99.88C87.9381 103.637 85.4221 106.136 81.6651 106.136ZM81.7161 105.83C84.7931 105.83 86.4591 103.875 86.4591 100.203C86.4591 96.14 84.7421 93.947 81.5971 93.947C78.5031 93.947 76.8371 95.919 76.8371 99.574C76.8371 103.654 78.5371 105.83 81.7161 105.83ZM108.617 103.926C105.54 103.926 103.5 101.869 103.5 98.775C103.5 95.698 105.54 93.641 108.617 93.641C111.66 93.641 113.7 95.698 113.7 98.775C113.7 101.869 111.66 103.926 108.617 103.926ZM108.668 103.62C110.963 103.62 112.221 102.039 112.221 99.098C112.221 95.766 110.929 93.947 108.549 93.947C106.22 93.947 104.979 95.545 104.979 98.469C104.979 101.818 106.254 103.62 108.668 103.62ZM93.2826 106V105.847H93.8776C94.6936 105.847 94.7786 105.745 94.7786 104.793V94.831C94.7786 94.015 94.6936 93.93 93.8776 93.93H93.2826V93.777H97.1756V93.93H97.0226C96.1896 93.93 96.1046 93.998 96.1046 94.797V98.656C96.7166 98.656 97.0396 98.622 97.2096 98.418L99.8956 95.035C100.1 94.78 100.202 94.559 100.202 94.406C100.202 94.083 99.8446 93.93 99.3176 93.93H99.1646V93.777H103.007V93.93H102.718C101.97 93.93 100.933 94.202 100.219 95.103L97.5156 98.52L97.5326 98.588C99.1306 98.962 100.151 100.373 101.239 101.903C102.701 104.011 104.367 106.289 107.903 106.289C110.521 106.289 112.663 104.844 113.207 104.385L113.581 104.062L113.683 104.181L113.309 104.504C112.136 105.507 109.807 106.816 107.274 106.816C103.16 106.816 101.12 103.943 99.5046 101.631C98.4166 100.084 97.5156 98.809 96.3086 98.809H96.1046V104.793C96.1046 104.827 96.1046 104.861 96.1046 104.878C96.1046 105.762 96.2236 105.847 97.0226 105.847H97.6176V106H93.2826ZM114.533 106V105.83H115.128C115.944 105.83 116.029 105.745 116.029 104.929V94.831C116.029 94.015 115.944 93.93 115.128 93.93H114.533V93.777H121.605C121.877 93.777 121.945 93.811 122.064 93.93H122.081L122.013 92.774L122.166 92.757L122.489 97.738H122.183L122.115 96.548C121.996 94.729 120.67 94.083 119.038 94.083H116.981V94.1C117.185 94.304 117.355 94.61 117.355 94.984V99.37H118.545C121.622 99.37 123.662 100.696 123.662 102.685C123.662 104.674 121.792 106 118.987 106H114.533ZM117.355 99.659V104.793C117.355 105.184 117.27 105.456 117.066 105.66V105.694H118.664C120.942 105.694 122.183 104.657 122.183 102.685C122.183 100.73 120.908 99.659 118.562 99.659H117.355ZM123.892 106V105.847H124.164C124.589 105.847 124.844 105.371 125.099 104.793L129.859 93.777H131.185V93.981C131.185 94.321 131.253 94.763 131.338 94.967L135.35 104.793C135.69 105.609 135.792 105.847 136.353 105.847H136.489V106H133.242V105.847H134.551V105.813C134.33 105.728 134.143 105.303 134.024 105.014L133.072 102.685H126.34L125.422 104.793C125.354 104.946 125.32 105.065 125.32 105.184C125.32 105.592 125.643 105.847 126.153 105.847H126.986V106H123.892ZM126.459 102.379H132.936L130.063 95.29C129.944 95.018 129.927 94.797 129.927 94.61H129.774C129.774 94.712 129.723 94.933 129.57 95.29L126.459 102.379ZM136.945 106V105.847H137.54C138.356 105.847 138.441 105.609 138.441 104.793V94.984C138.441 94.168 138.356 93.93 137.54 93.93H136.945V93.777H141.127V93.93H140.685C139.869 93.93 139.767 94.168 139.767 94.984V99.421H144.425V94.984C144.425 94.168 144.323 93.93 143.507 93.93H143.065V93.777H147.264V93.93H146.652C145.836 93.93 145.751 94.168 145.751 94.984V104.793C145.751 105.609 145.836 105.847 146.652 105.847H147.264V106H143.065V105.847H143.524C144.34 105.847 144.425 105.609 144.425 104.793V99.727H139.767V104.793C139.767 105.609 139.869 105.847 140.685 105.847H141.127V106H136.945Z" fill="black"/>
</svg>
