<svg width="275" height="30" viewBox="0 0 275 30" fill="none" xmlns="http://www.w3.org/2000/svg">
<path d="M12.6002 24H0.750195V22.2C1.0202 22.17 2.3402 21.45 3.3002 20.16C6.9302 15.36 9.9602 10.8 9.9602 7.26C9.9602 4.32 8.6402 2.73 6.2102 2.73C3.6602 2.73 2.4002 4.74 2.1002 6.75V7.77H1.5902V2.49H1.8602V3.78C2.9702 2.79 4.6502 2.19 6.2102 2.19C9.7202 2.19 12.0902 4.38 12.0902 7.62C12.0902 11.79 7.6502 16.71 3.0902 21.06C2.7902 21.33 2.0102 22.05 1.8302 22.14L1.9202 22.29C2.1302 22.26 3.1802 22.14 3.6602 22.14H8.0702C10.8902 22.14 12.3602 21.87 12.5402 19.14L12.6002 18.3H12.9302L12.6002 24ZM20.2469 24H18.1169V22.56C18.1169 15.9 22.8269 7.08 24.4469 5.13C24.7169 4.8 25.0469 4.44 25.2869 4.35L25.2569 4.17C25.0169 4.26 23.5169 4.29 23.0369 4.29H16.4069C14.9369 4.29 14.7269 4.38 14.6369 5.73L14.5169 7.41H14.2169L14.5469 2.43H26.6369V3.93C25.4669 4.26 20.2769 11.49 20.2469 20.76V24ZM35.6601 24V23.73H36.7101C38.1501 23.73 38.3001 23.31 38.3001 21.87V4.56C38.3001 3.12 38.1501 2.7 36.7101 2.7H35.6601V2.43H43.0401V2.7H42.2601C40.8201 2.7 40.6401 3.12 40.6401 4.56V21.96L49.1601 2.43H53.8701V2.7H52.7901C51.3501 2.7 51.2001 3.12 51.2001 4.56V21.87C51.2001 23.31 51.3501 23.73 52.7901 23.73H53.8701V24H46.4601V23.73H47.2701C48.7101 23.73 48.8601 23.31 48.8601 21.87V4.47L40.3401 24H35.6601ZM54.9082 24V23.73H55.9582C57.3982 23.73 57.5482 23.61 57.5482 22.17V4.26C57.5482 2.82 57.3982 2.7 55.9582 2.7H54.9082V2.43H62.5582V2.76H61.5082C60.0682 2.76 59.8882 2.88 59.8882 4.32V12.93H63.3982C63.4882 6.48 67.6882 2.19 73.9282 2.19C80.1982 2.19 84.3982 6.6 84.3982 13.2C84.3982 19.83 80.1982 24.24 73.9282 24.24C67.6882 24.24 63.4882 19.95 63.3982 13.47H59.8882V22.17C59.8882 23.61 60.0682 23.73 61.5082 23.73H62.5582V24H54.9082ZM74.0182 23.7C79.0582 23.7 81.7882 20.25 81.7882 13.77C81.7882 6.6 78.9682 2.73 73.8082 2.73C68.7382 2.73 66.0082 6.21 66.0082 12.66C66.0082 19.86 68.7982 23.7 74.0182 23.7ZM87.1031 2.43H89.6831H97.9031H102.913V2.7H101.833C100.393 2.7 100.243 3.12 100.243 4.56V21.87C100.243 23.31 100.393 23.73 101.833 23.73H102.913V24H95.5031V23.73H96.3131C97.7531 23.73 97.9031 23.31 97.9031 21.87V2.97H90.8831V10.29C90.8831 18.3 88.5731 23.43 86.5631 25.11L84.8231 23.1C87.0131 21.18 90.0731 16.98 90.1031 11.01V4.92C90.1031 2.82 89.8631 2.7 87.7631 2.7H87.1031V2.43ZM113.911 24V23.73H114.451C115.891 23.73 116.071 23.58 116.071 22.14V14.55H113.761C113.701 20.37 111.211 24.24 107.461 24.24C106.231 24.24 105.061 23.85 104.161 23.07V20.7C105.601 21.75 106.951 22.26 108.121 22.26C111.391 22.26 113.191 19.47 113.191 14.55C108.391 14.55 104.941 12.51 104.941 8.49C104.941 4.5 108.421 2.43 113.221 2.43H121.051V2.7H120.001C118.561 2.7 118.411 2.85 118.411 4.29V22.14C118.411 23.58 118.561 23.73 120.001 23.73H121.051V24H113.911ZM116.071 14.01V4.56C116.071 3.87 116.221 3.36 116.581 3V2.97H113.461C109.801 2.97 107.551 4.53 107.551 8.49C107.551 12.51 109.801 14.01 113.461 14.01H116.071ZM142.473 24H130.623V22.2C130.893 22.17 132.213 21.45 133.173 20.16C136.803 15.36 139.833 10.8 139.833 7.26C139.833 4.32 138.513 2.73 136.083 2.73C133.533 2.73 132.273 4.74 131.973 6.75V7.77H131.463V2.49H131.733V3.78C132.843 2.79 134.523 2.19 136.083 2.19C139.593 2.19 141.963 4.38 141.963 7.62C141.963 11.79 137.523 16.71 132.963 21.06C132.663 21.33 131.883 22.05 131.703 22.14L131.793 22.29C132.003 22.26 133.053 22.14 133.533 22.14H137.943C140.763 22.14 142.233 21.87 142.413 19.14L142.473 18.3H142.803L142.473 24ZM151.5 2.73C148.32 2.73 146.64 6.03 146.64 12.15C146.64 19.68 148.41 23.7 151.71 23.7C154.86 23.7 156.6 20.43 156.6 14.28C156.6 6.78 154.8 2.73 151.5 2.73ZM151.62 2.19C155.94 2.19 158.85 6.6 158.85 13.2C158.85 19.83 155.94 24.24 151.62 24.24C147.27 24.24 144.39 19.83 144.39 13.2C144.39 6.6 147.27 2.19 151.62 2.19ZM172.649 24H160.799V22.2C161.069 22.17 162.389 21.45 163.349 20.16C166.979 15.36 170.009 10.8 170.009 7.26C170.009 4.32 168.689 2.73 166.259 2.73C163.709 2.73 162.449 4.74 162.149 6.75V7.77H161.639V2.49H161.909V3.78C163.019 2.79 164.699 2.19 166.259 2.19C169.769 2.19 172.139 4.38 172.139 7.62C172.139 11.79 167.699 16.71 163.139 21.06C162.839 21.33 162.059 22.05 161.879 22.14L161.969 22.29C162.179 22.26 163.229 22.14 163.709 22.14H168.119C170.939 22.14 172.409 21.87 172.589 19.14L172.649 18.3H172.979L172.649 24ZM175.016 18.69H183.236V11.49H185.366V18.69H187.256V19.74H185.366V21.87C185.366 23.55 185.546 23.73 187.226 23.73H187.736V24H179.966V23.73H181.346C183.026 23.73 183.236 23.55 183.236 21.87V19.74H174.176V19.08C174.266 18.9 178.856 10.47 180.686 4.5C180.866 3.99 180.926 3.63 180.926 3.36C180.926 2.97 180.536 2.73 179.786 2.73V2.43C182.456 2.43 183.086 2.37 183.686 1.23L183.866 1.29L175.016 18.69ZM196.793 24V23.73H197.843C199.283 23.73 199.433 23.58 199.433 22.14V4.29C199.433 2.85 199.283 2.7 197.843 2.7H196.793V2.43H208.073C208.553 2.43 208.673 2.49 208.883 2.7H208.913L208.793 0.659998L209.063 0.629999L209.633 9.42H209.093L208.973 7.32C208.793 4.08 206.423 2.97 203.543 2.97H201.113V3C201.473 3.36 201.773 3.9 201.773 4.56V22.14C201.773 23.58 201.953 23.73 203.393 23.73H205.343V24H196.793ZM222.053 24.24C215.363 24.24 210.923 19.83 210.923 13.2C210.923 6.6 215.363 2.19 222.053 2.19C228.683 2.19 233.123 6.6 233.123 13.2C233.123 19.83 228.683 24.24 222.053 24.24ZM222.143 23.7C227.573 23.7 230.513 20.25 230.513 13.77C230.513 6.6 227.483 2.73 221.933 2.73C216.473 2.73 213.533 6.21 213.533 12.66C213.533 19.86 216.533 23.7 222.143 23.7ZM231.974 23.46H234.044C236.234 21.57 239.294 16.98 239.324 11.01V4.92C239.324 2.82 239.084 2.7 236.984 2.7H236.324V2.43H250.934V2.7H249.854C248.414 2.7 248.264 3.12 248.264 4.56V23.46H250.934V29.04H249.854V25.86C249.854 24.42 249.674 24 248.234 24H234.674C233.234 24 233.054 24.42 233.054 25.86V29.04H231.974V23.46ZM237.344 23.46H245.924V2.97H240.104V10.29C240.104 16.26 238.814 20.82 237.344 23.46ZM251.805 24V23.73H252.285C253.035 23.73 253.485 22.89 253.935 21.87L262.335 2.43H264.675V2.79C264.675 3.39 264.795 4.17 264.945 4.53L272.025 21.87C272.625 23.31 272.805 23.73 273.795 23.73H274.035V24H268.305V23.73H270.615V23.67C270.225 23.52 269.895 22.77 269.685 22.26L268.005 18.15H256.125L254.505 21.87C254.385 22.14 254.325 22.35 254.325 22.56C254.325 23.28 254.895 23.73 255.795 23.73H257.265V24H251.805ZM256.335 17.61H267.765L262.695 5.1C262.485 4.62 262.455 4.23 262.455 3.9H262.185C262.185 4.08 262.095 4.47 261.825 5.1L256.335 17.61Z" fill="black"/>
</svg>
