<svg width="275" height="109" viewBox="0 0 275 109" fill="none" xmlns="http://www.w3.org/2000/svg">
<path d="M0.926406 16.1429V15.9629H1.62641C2.58641 15.9629 2.68641 15.6829 2.68641 14.7229V3.18286C2.68641 2.22286 2.58641 1.94286 1.62641 1.94286H0.926406V1.76286H5.84641V1.94286H5.32641C4.36641 1.94286 4.24641 2.22286 4.24641 3.18286V8.40286H9.72641V3.18286C9.72641 2.22286 9.60641 1.94286 8.64641 1.94286H8.12641V1.76286H13.0664V1.94286H12.3464C11.3864 1.94286 11.2864 2.22286 11.2864 3.18286V14.7229C11.2864 15.6829 11.3864 15.9629 12.3464 15.9629H13.0664V16.1429H8.12641V15.9629H8.66641C9.62641 15.9629 9.72641 15.6829 9.72641 14.7229V8.76286H4.24641V14.7229C4.24641 15.6829 4.36641 15.9629 5.32641 15.9629H5.84641V16.1429H0.926406ZM13.5584 16.1429V15.9629H13.8784C14.3784 15.9629 14.6784 15.4029 14.9784 14.7229L20.5784 1.76286H22.1384V2.00286C22.1384 2.40286 22.2184 2.92286 22.3184 3.16286L27.0384 14.7229C27.4384 15.6829 27.5584 15.9629 28.2184 15.9629H28.3784V16.1429H24.5584V15.9629H26.0984V15.9229C25.8384 15.8229 25.6184 15.3229 25.4784 14.9829L24.3584 12.2429H16.4384L15.3584 14.7229C15.2784 14.9029 15.2384 15.0429 15.2384 15.1829C15.2384 15.6629 15.6184 15.9629 16.2184 15.9629H17.1984V16.1429H13.5584ZM16.5784 11.8829H24.1984L20.8184 3.54286C20.6784 3.22286 20.6584 2.96286 20.6584 2.74286H20.4784C20.4784 2.86286 20.4184 3.12286 20.2384 3.54286L16.5784 11.8829ZM28.9147 16.1429V15.9629H29.6347C30.5947 15.9629 30.6947 15.6829 30.6947 14.7229V3.18286C30.6947 2.22286 30.5947 1.94286 29.6347 1.94286H28.9147V1.76286H33.8547V1.94286H33.3147C32.3547 1.94286 32.2547 2.22286 32.2547 3.18286V15.7829H36.9547V14.7229V3.18286C36.9547 2.24286 36.8347 1.96286 35.8947 1.94286H35.3547V1.76286H40.1147V1.94286H39.5747C38.6147 1.94286 38.5147 2.22286 38.5147 3.18286V14.7229V15.7829H43.2147V3.18286C43.2147 2.22286 43.0947 1.94286 42.1347 1.94286H41.6147V1.76286H46.5347V1.94286H45.8347C44.8747 1.94286 44.7747 2.22286 44.7747 3.18286V14.7229C44.7747 15.6829 44.8747 15.9629 45.8347 15.9629H46.5347V16.1429H28.9147ZM47.235 16.1429V15.9629H47.935C48.895 15.9629 48.995 15.6829 48.995 14.7229V3.18286C48.995 2.22286 48.895 1.94286 47.935 1.94286H47.235V1.76286H52.155V1.94286H51.635C50.675 1.94286 50.555 2.22286 50.555 3.18286V14.7829L56.235 1.76286H59.375V1.94286H58.655C57.695 1.94286 57.595 2.22286 57.595 3.18286V14.7229C57.595 15.6829 57.695 15.9629 58.655 15.9629H59.375V16.1429H54.435V15.9629H54.975C55.935 15.9629 56.035 15.6829 56.035 14.7229V3.12286L50.355 16.1429H47.235ZM68.3595 2.14286V2.24286C68.5995 2.56286 68.6995 3.02286 68.6995 3.48286V10.1829H69.8195C72.3395 10.1829 73.6995 8.78286 73.6995 6.16286C73.6995 3.56286 72.3395 2.14286 69.8195 2.14286H68.3595ZM65.3795 16.1429V15.9629H66.0795C67.0395 15.9629 67.1395 15.8629 67.1395 14.9029V3.00286C67.1395 2.04286 67.0395 1.94286 66.0795 1.94286H65.3795V1.76286H70.4195C73.4195 1.76286 75.4395 3.52286 75.4395 6.16286C75.4395 8.80286 73.4195 10.5429 70.4195 10.5429H68.6995V14.9029C68.6995 15.8629 68.8195 15.9629 69.7795 15.9629H70.2795V16.1429H65.3795ZM83.997 16.3029C79.537 16.3029 76.577 13.3629 76.577 8.94286C76.577 4.54286 79.537 1.60286 83.997 1.60286C88.417 1.60286 91.377 4.54286 91.377 8.94286C91.377 13.3629 88.417 16.3029 83.997 16.3029ZM84.057 15.9429C87.677 15.9429 89.637 13.6429 89.637 9.32286C89.637 4.54286 87.617 1.96286 83.917 1.96286C80.277 1.96286 78.317 4.28286 78.317 8.58286C78.317 13.3829 80.317 15.9429 84.057 15.9429ZM90.6106 15.7829H91.9906C93.4506 14.5229 95.4906 11.4629 95.5106 7.48286V3.42286C95.5106 2.02286 95.3506 1.94286 93.9506 1.94286H93.5106V1.76286H103.251V1.94286H102.531C101.571 1.94286 101.471 2.22286 101.471 3.18286V15.7829H103.251V19.5029H102.531V17.3829C102.531 16.4229 102.411 16.1429 101.451 16.1429H92.4106C91.4506 16.1429 91.3306 16.4229 91.3306 17.3829V19.5029H90.6106V15.7829ZM94.1906 15.7829H99.9106V2.12286H96.0306V7.00286C96.0306 10.9829 95.1706 14.0229 94.1906 15.7829ZM104.032 16.1429V15.9629H104.732C105.692 15.9629 105.792 15.6829 105.792 14.7229V3.18286C105.792 2.22286 105.692 1.94286 104.732 1.94286H104.032V1.76286H108.952V1.94286H108.432C107.472 1.94286 107.352 2.22286 107.352 3.18286V8.40286H112.832V3.18286C112.832 2.22286 112.712 1.94286 111.752 1.94286H111.232V1.76286H116.172V1.94286H115.452C114.492 1.94286 114.392 2.22286 114.392 3.18286V14.7229C114.392 15.6829 114.492 15.9629 115.452 15.9629H116.172V16.1429H111.232V15.9629H111.772C112.732 15.9629 112.832 15.6829 112.832 14.7229V8.76286H107.352V14.7229C107.352 15.6829 107.472 15.9629 108.432 15.9629H108.952V16.1429H104.032ZM127.044 16.1429V15.9629H127.744C128.704 15.9629 128.804 15.8829 128.804 14.9229V2.98286C128.804 2.02286 128.704 1.94286 127.744 1.94286H127.044V1.76286H132.144V1.98286H131.444C130.484 1.98286 130.364 2.06286 130.364 3.02286V14.9229C130.364 15.8829 130.484 15.9629 131.444 15.9629H132.144V16.1429H127.044ZM116.864 16.1429V15.9429H117.564C118.524 15.9429 118.624 15.8429 118.624 14.8829V2.98286C118.624 2.02286 118.524 1.94286 117.564 1.94286H116.864V1.76286H121.964V1.94286H121.264C120.304 1.94286 120.184 2.06286 120.184 3.02286V8.74286H121.704C124.764 8.74286 126.804 10.2229 126.804 12.4429C126.804 14.6629 124.764 16.1429 121.704 16.1429H116.864ZM120.184 9.08286V14.7229C120.184 15.1829 120.084 15.5029 119.844 15.7429V15.7829H121.324C123.744 15.7829 125.064 14.6229 125.064 12.4429C125.064 10.2629 123.744 9.08286 121.324 9.08286H120.184ZM139.3 12.0229H139.12V10.9229C139.12 9.00286 138.08 8.78286 136.96 8.78286H136.16V14.7229C136.16 15.1629 135.96 15.5229 135.72 15.7629V15.7829H139.7C141.62 15.7829 142.54 15.0029 142.68 13.0829L142.8 11.4829H143.12L142.78 16.9029H142.6L142.66 15.9629H142.64C142.5 16.1029 142.22 16.1429 141.9 16.1429H132.84V15.9629H133.54C134.5 15.9629 134.6 15.8629 134.6 14.9029V3.00286C134.6 2.04286 134.5 1.94286 133.54 1.94286H132.84V1.76286H140.82C141.14 1.76286 141.42 1.80286 141.56 1.94286H141.58L141.52 1.02286L141.7 1.00286L142.06 6.42286H141.7L141.62 5.02286C141.5 2.86286 140.46 2.12286 138.54 2.12286H135.72V2.14286C135.96 2.38286 136.16 2.74286 136.16 3.18286V8.42286H136.96C138.08 8.42286 139.12 8.22286 139.12 6.30286V5.60286H139.3V12.0229ZM149.188 16.1429V15.9629H149.888C150.848 15.9629 150.948 15.6829 150.948 14.7229V3.18286C150.948 2.22286 150.848 1.94286 149.888 1.94286H149.188V1.76286H154.108V1.94286H153.588C152.628 1.94286 152.508 2.22286 152.508 3.18286V14.7829L158.188 1.76286H161.328V1.94286H160.608C159.648 1.94286 159.548 2.22286 159.548 3.18286V14.7229C159.548 15.6829 159.648 15.9629 160.608 15.9629H161.328V16.1429H156.388V15.9629H156.928C157.888 15.9629 157.988 15.6829 157.988 14.7229V3.12286L152.308 16.1429H149.188ZM168.933 1.76286H170.653H176.133H179.473V1.94286H178.753C177.793 1.94286 177.693 2.22286 177.693 3.18286V14.7229C177.693 15.6829 177.793 15.9629 178.753 15.9629H179.473V16.1429H174.533V15.9629H175.073C176.033 15.9629 176.133 15.6829 176.133 14.7229V2.12286H171.453V7.00286C171.453 12.3429 169.913 15.7629 168.573 16.8829L167.413 15.5429C168.873 14.2629 170.913 11.4629 170.933 7.48286V3.42286C170.933 2.02286 170.773 1.94286 169.373 1.94286H168.933V1.76286ZM180.165 16.1429V15.9629H180.865C181.825 15.9629 181.925 15.8829 181.925 14.9229V2.98286C181.925 2.02286 181.825 1.94286 180.865 1.94286H180.165V1.76286H185.265V1.98286H184.565C183.605 1.98286 183.485 2.06286 183.485 3.02286V8.76286H185.825C185.885 4.46286 188.685 1.60286 192.845 1.60286C197.025 1.60286 199.825 4.54286 199.825 8.94286C199.825 13.3629 197.025 16.3029 192.845 16.3029C188.685 16.3029 185.885 13.4429 185.825 9.12286H183.485V14.9229C183.485 15.8829 183.605 15.9629 184.565 15.9629H185.265V16.1429H180.165ZM192.905 15.9429C196.265 15.9429 198.085 13.6429 198.085 9.32286C198.085 4.54286 196.205 1.96286 192.765 1.96286C189.385 1.96286 187.565 4.28286 187.565 8.58286C187.565 13.3829 189.425 15.9429 192.905 15.9429ZM200.848 16.1429V15.9429H201.548C202.508 15.9429 202.608 15.8429 202.608 14.8829V3.00286C202.608 2.04286 202.508 1.94286 201.548 1.94286H200.848V1.76286H209.168C209.488 1.76286 209.568 1.80286 209.708 1.94286H209.728L209.648 0.582855L209.828 0.562856L210.208 6.42286H209.848L209.768 5.02286C209.628 2.88286 208.068 2.12286 206.148 2.12286H203.728V2.14286C203.968 2.38286 204.168 2.74286 204.168 3.18286V8.34286H205.568C209.188 8.34286 211.588 9.90286 211.588 12.2429C211.588 14.5829 209.388 16.1429 206.088 16.1429H200.848ZM204.168 8.68286V14.7229C204.168 15.1829 204.068 15.5029 203.828 15.7429V15.7829H205.708C208.388 15.7829 209.848 14.5629 209.848 12.2429C209.848 9.94286 208.348 8.68286 205.588 8.68286H204.168ZM212.294 16.1429V15.9629H212.994C213.954 15.9629 214.054 15.6829 214.054 14.7229V3.18286C214.054 2.22286 213.954 1.94286 212.994 1.94286H212.294V1.76286H217.214V1.94286H216.694C215.734 1.94286 215.614 2.22286 215.614 3.18286V14.7829L221.294 1.76286H224.434V1.94286H223.714C222.754 1.94286 222.654 2.22286 222.654 3.18286V14.7229C222.654 15.6829 222.754 15.9629 223.714 15.9629H224.434V16.1429H219.494V15.9629H220.034C220.994 15.9629 221.094 15.6829 221.094 14.7229V3.12286L215.414 16.1429H212.294ZM224.946 16.1429V15.9629H225.266C226.286 15.9629 226.446 15.6629 226.506 14.5429L227.046 3.00286C227.046 2.86286 227.046 2.72286 227.046 2.58286C227.046 2.14286 226.926 1.94286 226.066 1.94286H225.266V1.76286H228.206L233.386 13.2229C233.566 13.6229 233.686 13.9629 233.686 14.0829H233.786C233.786 13.9629 233.926 13.5229 234.066 13.2229L239.246 1.76286H242.246V1.94286H241.566C240.586 1.94286 240.446 2.24286 240.446 2.82286C240.446 2.98286 240.446 3.16286 240.466 3.36286L240.926 14.5429C240.966 15.6829 241.106 15.9629 242.206 15.9629H242.646V16.1429H237.426V15.9629H238.146C239.226 15.9629 239.366 15.6829 239.366 15.2029C239.366 15.1029 239.366 14.9829 239.366 14.8429L238.966 4.30286C238.946 3.94286 238.946 3.64286 238.946 3.42286H238.826C238.826 3.48286 238.686 3.82286 238.506 4.24286L233.126 16.2229L233.066 16.3629H233.026L232.966 16.2229L227.666 4.46286C227.486 4.06286 227.446 3.68286 227.446 3.62286H227.366C227.366 3.80286 227.366 3.94286 227.346 4.30286L226.846 14.8029C226.826 14.9829 226.806 15.1429 226.806 15.2629C226.806 15.7429 226.986 15.9629 228.086 15.9629H228.806V16.1429H224.946ZM253.353 16.1429V15.9629H254.053C255.013 15.9629 255.113 15.8829 255.113 14.9229V2.98286C255.113 2.02286 255.013 1.94286 254.053 1.94286H253.353V1.76286H258.453V1.98286H257.753C256.793 1.98286 256.673 2.06286 256.673 3.02286V14.9229C256.673 15.8829 256.793 15.9629 257.753 15.9629H258.453V16.1429H253.353ZM243.173 16.1429V15.9429H243.873C244.833 15.9429 244.933 15.8429 244.933 14.8829V2.98286C244.933 2.02286 244.833 1.94286 243.873 1.94286H243.173V1.76286H248.273V1.94286H247.573C246.613 1.94286 246.493 2.06286 246.493 3.02286V8.74286H248.013C251.073 8.74286 253.113 10.2229 253.113 12.4429C253.113 14.6629 251.073 16.1429 248.013 16.1429H243.173ZM246.493 9.08286V14.7229C246.493 15.1829 246.393 15.5029 246.153 15.7429V15.7829H247.633C250.053 15.7829 251.373 14.6229 251.373 12.4429C251.373 10.2629 250.053 9.08286 247.633 9.08286H246.493ZM265.609 12.0229H265.429V10.9229C265.429 9.00286 264.389 8.78286 263.269 8.78286H262.469V14.7229C262.469 15.1629 262.269 15.5229 262.029 15.7629V15.7829H266.009C267.929 15.7829 268.849 15.0029 268.989 13.0829L269.109 11.4829H269.429L269.089 16.9029H268.909L268.969 15.9629H268.949C268.809 16.1029 268.529 16.1429 268.209 16.1429H259.149V15.9629H259.849C260.809 15.9629 260.909 15.8629 260.909 14.9029V3.00286C260.909 2.04286 260.809 1.94286 259.849 1.94286H259.149V1.76286H267.129C267.449 1.76286 267.729 1.80286 267.869 1.94286H267.889L267.829 1.02286L268.009 1.00286L268.369 6.42286H268.009L267.929 5.02286C267.809 2.86286 266.769 2.12286 264.849 2.12286H262.029V2.14286C262.269 2.38286 262.469 2.74286 262.469 3.18286V8.42286H263.269C264.389 8.42286 265.429 8.22286 265.429 6.30286V5.60286H265.609V12.0229ZM271.424 1.50286C271.424 1.40286 271.664 1.32286 272.124 1.32286C272.584 1.32286 272.844 1.38286 272.844 1.50286C272.844 5.40286 272.324 8.16286 272.324 12.0629H271.964C271.964 8.16286 271.424 5.40286 271.424 1.50286ZM272.124 14.5429C272.644 14.5429 273.024 14.8829 273.024 15.4429C273.024 15.9629 272.684 16.3229 272.124 16.3229C271.604 16.3229 271.244 16.0029 271.244 15.4429C271.244 14.9229 271.564 14.5429 272.124 14.5429ZM22.9168 37.9889C22.9168 34.2659 25.2798 31.7839 28.8498 31.7839C29.9888 31.7839 31.0938 32.1409 31.9608 32.8719C32.0458 32.9569 32.1138 33.0929 32.1478 33.2119L32.2668 33.1779C32.2328 33.0419 32.2158 32.8719 32.2158 32.6849L32.1818 31.4609L32.3348 31.4439L32.4878 36.3569L32.1818 36.3739L32.1308 34.7929C32.0458 33.2629 30.3968 32.0729 28.7138 32.0729C25.9258 32.0729 24.4298 34.0619 24.4298 37.7169C24.4298 41.7969 25.9938 43.9729 28.9008 43.9729C30.5158 43.9729 32.0798 43.0889 32.6748 41.6609L32.9638 41.7629C32.2838 43.4629 30.6518 44.2789 28.8668 44.2789C25.2968 44.2789 22.9168 41.7629 22.9168 37.9889ZM40.2456 44.2789C36.4546 44.2789 33.9386 41.7799 33.9386 38.0229C33.9386 34.2829 36.4546 31.7839 40.2456 31.7839C44.0026 31.7839 46.5186 34.2829 46.5186 38.0229C46.5186 41.7799 44.0026 44.2789 40.2456 44.2789ZM40.2966 43.9729C43.3736 43.9729 45.0396 42.0179 45.0396 38.3459C45.0396 34.2829 43.3226 32.0899 40.1776 32.0899C37.0836 32.0899 35.4176 34.0619 35.4176 37.7169C35.4176 41.7969 37.1176 43.9729 40.2966 43.9729ZM49.8805 43.8369H51.8185C53.9265 43.8369 55.3375 42.5449 55.3375 40.6069C55.3375 38.5669 53.8245 37.1049 51.7165 37.1049H50.8155V36.8159H51.4955C52.9915 36.8159 54.0795 35.8639 54.0795 34.5209C54.0795 33.1439 52.9405 32.2259 51.2575 32.2259H49.8805V32.2429C50.0845 32.4469 50.1695 32.7359 50.1695 33.1269V42.9359C50.1695 43.3269 50.0845 43.5989 49.8805 43.8029V43.8369ZM47.3475 44.1429V43.9899H47.9425C48.7585 43.9899 48.8435 43.9049 48.8435 43.0889V32.9739C48.8435 32.1579 48.7585 32.0729 47.9425 32.0729H47.3475V31.9199H51.4955C53.9095 31.9199 55.5245 32.9569 55.5245 34.4869C55.5245 35.4559 54.6405 36.6459 53.0765 36.8669V36.9349C55.2865 37.0879 56.8165 38.8729 56.8165 40.6069C56.8165 42.7319 54.7595 44.1429 52.1245 44.1429H47.3475ZM57.6971 37.9889C57.6971 34.2659 60.0601 31.7839 63.6301 31.7839C64.7691 31.7839 65.8741 32.1409 66.7411 32.8719C66.8261 32.9569 66.8941 33.0929 66.9281 33.2119L67.0471 33.1779C67.0131 33.0419 66.9961 32.8719 66.9961 32.6849L66.9621 31.4609L67.1151 31.4439L67.2681 36.3569L66.9621 36.3739L66.9111 34.7929C66.8261 33.2629 65.1771 32.0729 63.4941 32.0729C60.7061 32.0729 59.2101 34.0619 59.2101 37.7169C59.2101 41.7969 60.7741 43.9729 63.6811 43.9729C65.2961 43.9729 66.8601 43.0889 67.4551 41.6609L67.7441 41.7629C67.0641 43.4629 65.4321 44.2789 63.6471 44.2789C60.0771 44.2789 57.6971 41.7629 57.6971 37.9889ZM73.9889 40.6409H73.8359V39.7059C73.8359 38.0739 72.9519 37.8869 71.9999 37.8869H71.3199V42.9359C71.3199 43.3099 71.1499 43.6159 70.9459 43.8199V43.8369H74.3289C75.9609 43.8369 76.7429 43.1739 76.8619 41.5419L76.9639 40.1819H77.2359L76.9469 44.7889H76.7939L76.8449 43.9899H76.8279C76.7089 44.1089 76.4709 44.1429 76.1989 44.1429H68.4979V43.9899H69.0929C69.9089 43.9899 69.9939 43.9049 69.9939 43.0889V32.9739C69.9939 32.1579 69.9089 32.0729 69.0929 32.0729H68.4979V31.9199H75.2809C75.5529 31.9199 75.7909 31.9539 75.9099 32.0729H75.9269L75.8759 31.2909L76.0289 31.2739L76.3349 35.8809H76.0289L75.9609 34.6909C75.8589 32.8549 74.9749 32.2259 73.3429 32.2259H70.9459V32.2429C71.1499 32.4469 71.3199 32.7529 71.3199 33.1269V37.5809H71.9999C72.9519 37.5809 73.8359 37.4109 73.8359 35.7789V35.1839H73.9889V40.6409ZM77.7248 44.1429V43.9899H77.9968C78.8638 43.9899 78.9998 43.7349 79.0508 42.7829L79.5098 32.9739C79.5098 32.8549 79.5098 32.7359 79.5098 32.6169C79.5098 32.2429 79.4078 32.0729 78.6768 32.0729H77.9968V31.9199H80.4958L84.8988 41.6609C85.0518 42.0009 85.1538 42.2899 85.1538 42.3919H85.2388C85.2388 42.2899 85.3578 41.9159 85.4768 41.6609L89.8798 31.9199H92.4298V32.0729H91.8518C91.0188 32.0729 90.8998 32.3279 90.8998 32.8209C90.8998 32.9569 90.8998 33.1099 90.9168 33.2799L91.3078 42.7829C91.3418 43.7519 91.4608 43.9899 92.3958 43.9899H92.7698V44.1429H88.3328V43.9899H88.9448C89.8628 43.9899 89.9818 43.7519 89.9818 43.3439C89.9818 43.2589 89.9818 43.1569 89.9818 43.0379L89.6418 34.0789C89.6248 33.7729 89.6248 33.5179 89.6248 33.3309H89.5228C89.5228 33.3819 89.4038 33.6709 89.2508 34.0279L84.6778 44.2109L84.6268 44.3299H84.5928L84.5418 44.2109L80.0368 34.2149C79.8838 33.8749 79.8498 33.5519 79.8498 33.5009H79.7818C79.7818 33.6539 79.7818 33.7729 79.7648 34.0789L79.3398 43.0039C79.3228 43.1569 79.3058 43.2929 79.3058 43.3949C79.3058 43.8029 79.4588 43.9899 80.3938 43.9899H81.0058V44.1429H77.7248ZM98.0222 37.9889C98.0222 34.2659 100.385 31.7839 103.955 31.7839C105.094 31.7839 106.199 32.1409 107.066 32.8719C107.151 32.9569 107.219 33.0929 107.253 33.2119L107.372 33.1779C107.338 33.0419 107.321 32.8719 107.321 32.6849L107.287 31.4609L107.44 31.4439L107.593 36.3569L107.287 36.3739L107.236 34.7929C107.151 33.2629 105.502 32.0729 103.819 32.0729C101.031 32.0729 99.5352 34.0619 99.5352 37.7169C99.5352 41.7969 101.099 43.9729 104.006 43.9729C105.621 43.9729 107.185 43.0889 107.78 41.6609L108.069 41.7629C107.389 43.4629 105.757 44.2789 103.972 44.2789C100.402 44.2789 98.0222 41.7629 98.0222 37.9889ZM124.157 42.0689C121.08 42.0689 119.04 40.0119 119.04 36.9179C119.04 33.8409 121.08 31.7839 124.157 31.7839C127.2 31.7839 129.24 33.8409 129.24 36.9179C129.24 40.0119 127.2 42.0689 124.157 42.0689ZM124.208 41.7629C126.503 41.7629 127.761 40.1819 127.761 37.2409C127.761 33.9089 126.469 32.0899 124.089 32.0899C121.76 32.0899 120.519 33.6879 120.519 36.6119C120.519 39.9609 121.794 41.7629 124.208 41.7629ZM108.823 44.1429V43.9899H109.418C110.234 43.9899 110.319 43.8879 110.319 42.9359V32.9739C110.319 32.1579 110.234 32.0729 109.418 32.0729H108.823V31.9199H112.716V32.0729H112.563C111.73 32.0729 111.645 32.1409 111.645 32.9399V36.7989C112.257 36.7989 112.58 36.7649 112.75 36.5609L115.436 33.1779C115.64 32.9229 115.742 32.7019 115.742 32.5489C115.742 32.2259 115.385 32.0729 114.858 32.0729H114.705V31.9199H118.547V32.0729H118.258C117.51 32.0729 116.473 32.3449 115.759 33.2459L113.056 36.6629L113.073 36.7309C114.671 37.1049 115.691 38.5159 116.779 40.0459C118.241 42.1539 119.907 44.4319 123.443 44.4319C126.061 44.4319 128.203 42.9869 128.747 42.5279L129.121 42.2049L129.223 42.3239L128.849 42.6469C127.676 43.6499 125.347 44.9589 122.814 44.9589C118.7 44.9589 116.66 42.0859 115.045 39.7739C113.957 38.2269 113.056 36.9519 111.849 36.9519H111.645V42.9359C111.645 42.9699 111.645 43.0039 111.645 43.0209C111.645 43.9049 111.764 43.9899 112.563 43.9899H113.158V44.1429H108.823ZM132.606 32.2429V32.3279C132.81 32.5999 132.895 32.9909 132.895 33.3819V39.0769H133.847C135.989 39.0769 137.145 37.8869 137.145 35.6599C137.145 33.4499 135.989 32.2429 133.847 32.2429H132.606ZM130.073 44.1429V43.9899H130.668C131.484 43.9899 131.569 43.9049 131.569 43.0889V32.9739C131.569 32.1579 131.484 32.0729 130.668 32.0729H130.073V31.9199H134.357C136.907 31.9199 138.624 33.4159 138.624 35.6599C138.624 37.9039 136.907 39.3829 134.357 39.3829H132.895V43.0889C132.895 43.9049 132.997 43.9899 133.813 43.9899H134.238V44.1429H130.073ZM145.898 44.2789C142.107 44.2789 139.591 41.7799 139.591 38.0229C139.591 34.2829 142.107 31.7839 145.898 31.7839C149.655 31.7839 152.171 34.2829 152.171 38.0229C152.171 41.7799 149.655 44.2789 145.898 44.2789ZM145.949 43.9729C149.026 43.9729 150.692 42.0179 150.692 38.3459C150.692 34.2829 148.975 32.0899 145.83 32.0899C142.736 32.0899 141.07 34.0619 141.07 37.7169C141.07 41.7969 142.77 43.9729 145.949 43.9729ZM156.097 44.1429V44.0349H156.517C157.093 44.0349 157.153 43.8669 157.153 43.2909V36.3669C157.153 35.7909 157.093 35.6229 156.517 35.6229H156.097V35.5149H159.049V35.6229H158.737C158.161 35.6229 158.089 35.7909 158.089 36.3669V39.4989H161.377V36.3669C161.377 35.7909 161.305 35.6229 160.729 35.6229H160.417V35.5149H163.381V35.6229H162.949C162.373 35.6229 162.313 35.7909 162.313 36.3669V43.2909C162.313 43.8669 162.373 44.0349 162.949 44.0349H163.381V44.1429H160.417V44.0349H160.741C161.317 44.0349 161.377 43.8669 161.377 43.2909V39.7149H158.089V43.2909C158.089 43.8669 158.161 44.0349 158.737 44.0349H159.049V44.1429H156.097ZM163.677 44.1429V44.0349H163.869C164.169 44.0349 164.349 43.6989 164.529 43.2909L167.889 35.5149H168.825V35.6589C168.825 35.8989 168.873 36.2109 168.933 36.3549L171.765 43.2909C172.005 43.8669 172.077 44.0349 172.473 44.0349H172.569V44.1429H170.277V44.0349H171.201V44.0109C171.045 43.9509 170.913 43.6509 170.829 43.4469L170.157 41.8029H165.405L164.757 43.2909C164.709 43.3989 164.685 43.4829 164.685 43.5669C164.685 43.8549 164.913 44.0349 165.273 44.0349H165.861V44.1429H163.677ZM165.489 41.5869H170.061L168.033 36.5829C167.949 36.3909 167.937 36.2349 167.937 36.1029H167.829C167.829 36.1749 167.793 36.3309 167.685 36.5829L165.489 41.5869ZM173.001 39.7989C173.001 37.1709 174.669 35.4189 177.189 35.4189C177.993 35.4189 178.773 35.6709 179.385 36.1869C179.445 36.2469 179.493 36.3429 179.517 36.4269L179.601 36.4029C179.577 36.3069 179.565 36.1869 179.565 36.0549L179.541 35.1909L179.649 35.1789L179.757 38.6469L179.541 38.6589L179.505 37.5429C179.445 36.4629 178.281 35.6229 177.093 35.6229C175.125 35.6229 174.069 37.0269 174.069 39.6069C174.069 42.4869 175.173 44.0229 177.225 44.0229C178.365 44.0229 179.469 43.3989 179.889 42.3909L180.093 42.4629C179.613 43.6629 178.461 44.2389 177.201 44.2389C174.681 44.2389 173.001 42.4629 173.001 39.7989ZM181.504 44.1429V44.0349H182.416C182.992 44.0349 183.052 43.9749 183.052 43.3989V35.7309H182.332C181.18 35.7309 180.772 35.9589 180.712 37.1109L180.664 37.6149L180.46 37.5909L180.64 34.8069L180.76 34.8189L180.712 35.5149H186.304L186.244 34.8309L186.376 34.8189L186.556 37.5909L186.34 37.6149L186.304 37.1109C186.22 35.9589 185.836 35.7309 184.684 35.7309H183.988V43.3989C183.988 43.9749 184.048 44.0349 184.624 44.0349H185.512V44.1429H181.504ZM187.805 43.2909C187.973 43.3269 188.309 43.3749 188.477 43.3749C189.365 43.3749 189.701 42.9789 189.941 42.4029L190.037 42.1749C190.073 42.0909 190.097 41.9829 190.097 41.8749C190.097 41.7549 190.073 41.6349 190.025 41.5029L187.793 36.3669C187.565 35.8149 187.481 35.6229 187.073 35.6229H186.893V35.5149H189.209V35.6229H188.357V35.6469C188.525 35.7069 188.657 35.9949 188.753 36.2109L190.481 40.1469C190.553 40.3149 190.565 40.5789 190.565 40.6509V40.6749L190.649 40.6509L192.329 36.3669C192.377 36.2469 192.413 36.1149 192.413 36.0069C192.413 35.7909 192.269 35.6229 191.825 35.6229H191.273V35.5149H193.337V35.6109H193.265C192.869 35.6109 192.773 35.8389 192.569 36.3669L190.037 42.7749C189.641 43.7589 189.029 44.2389 188.417 44.2389C188.009 44.2389 187.805 43.9269 187.805 43.2909ZM193.644 44.1429V44.0349H194.064C194.64 44.0349 194.7 43.8669 194.7 43.2909V36.3669C194.7 35.7909 194.64 35.6229 194.064 35.6229H193.644V35.5149H200.928V35.6229H200.496C199.92 35.6229 199.86 35.7909 199.86 36.3669V43.2909C199.86 43.8669 199.92 44.0349 200.496 44.0349H200.928V44.1429H197.964V44.0349H198.288C198.864 44.0349 198.924 43.8669 198.924 43.2909V35.7309H195.636V43.2909C195.636 43.8669 195.708 44.0349 196.284 44.0349H196.596V44.1429H193.644ZM201.343 44.1429V44.0349H201.763C202.339 44.0349 202.399 43.8669 202.399 43.2909V36.3669C202.399 35.7909 202.339 35.6229 201.763 35.6229H201.343V35.5149H204.295V35.6229H203.983C203.407 35.6229 203.335 35.7909 203.335 36.3669V43.3269L206.743 35.5149H208.627V35.6229H208.195C207.619 35.6229 207.559 35.7909 207.559 36.3669V43.2909C207.559 43.8669 207.619 44.0349 208.195 44.0349H208.627V44.1429H205.663V44.0349H205.987C206.563 44.0349 206.623 43.8669 206.623 43.2909V36.3309L203.215 44.1429H201.343ZM210.051 44.1429V44.0349H210.963C211.539 44.0349 211.599 43.9749 211.599 43.3989V35.7309H210.879C209.727 35.7309 209.319 35.9589 209.259 37.1109L209.211 37.6149L209.007 37.5909L209.187 34.8069L209.307 34.8189L209.259 35.5149H214.851L214.791 34.8309L214.923 34.8189L215.103 37.5909L214.887 37.6149L214.851 37.1109C214.767 35.9589 214.383 35.7309 213.231 35.7309H212.535V43.3989C212.535 43.9749 212.595 44.0349 213.171 44.0349H214.059V44.1429H210.051ZM218.603 43.9269H219.431C220.307 43.1709 221.531 41.3349 221.543 38.9469V36.5109C221.543 35.6709 221.447 35.6229 220.607 35.6229H220.343V35.5149H226.187V35.6229H225.755C225.179 35.6229 225.119 35.7909 225.119 36.3669V43.9269H226.187V46.1589H225.755V44.8869C225.755 44.3109 225.683 44.1429 225.107 44.1429H219.683C219.107 44.1429 219.035 44.3109 219.035 44.8869V46.1589H218.603V43.9269ZM220.751 43.9269H224.183V35.7309H221.855V38.6589C221.855 41.0469 221.339 42.8709 220.751 43.9269ZM230.532 41.6709H230.424V41.0109C230.424 39.8589 229.8 39.7269 229.128 39.7269H228.648V43.2909C228.648 43.5549 228.528 43.7709 228.384 43.9149V43.9269H230.772C231.924 43.9269 232.476 43.4589 232.56 42.3069L232.632 41.3469H232.824L232.62 44.5989H232.512L232.548 44.0349H232.536C232.452 44.1189 232.284 44.1429 232.092 44.1429H226.656V44.0349H227.076C227.652 44.0349 227.712 43.9749 227.712 43.3989V36.2589C227.712 35.6829 227.652 35.6229 227.076 35.6229H226.656V35.5149H231.444C231.636 35.5149 231.804 35.5389 231.888 35.6229H231.9L231.864 35.0709L231.972 35.0589L232.188 38.3109H231.972L231.924 37.4709C231.852 36.1749 231.228 35.7309 230.076 35.7309H228.384V35.7429C228.528 35.8869 228.648 36.1029 228.648 36.3669V39.5109H229.128C229.8 39.5109 230.424 39.3909 230.424 38.2389V37.8189H230.532V41.6709ZM233.277 44.1429V44.0349H233.697C234.273 44.0349 234.333 43.8669 234.333 43.2909V36.3669C234.333 35.7909 234.273 35.6229 233.697 35.6229H233.277V35.5149H236.229V35.6229H235.917C235.341 35.6229 235.269 35.7909 235.269 36.3669V39.4989H238.557V36.3669C238.557 35.7909 238.485 35.6229 237.909 35.6229H237.597V35.5149H240.561V35.6229H240.129C239.553 35.6229 239.493 35.7909 239.493 36.3669V43.2909C239.493 43.8669 239.553 44.0349 240.129 44.0349H240.561V44.1429H237.597V44.0349H237.921C238.497 44.0349 238.557 43.8669 238.557 43.2909V39.7149H235.269V43.2909C235.269 43.8669 235.341 44.0349 235.917 44.0349H236.229V44.1429H233.277ZM240.976 44.1429V44.0229H241.396C241.972 44.0229 242.032 43.9629 242.032 43.3869V36.2469C242.032 35.6709 241.972 35.6229 241.396 35.6229H240.976V35.5149H244.036V35.6229H243.616C243.04 35.6229 242.968 35.6949 242.968 36.2709V39.7029H243.88C245.716 39.7029 246.94 40.5909 246.94 41.9229C246.94 43.2549 245.716 44.1429 243.88 44.1429H240.976ZM242.968 39.9069V43.2909C242.968 43.5669 242.908 43.7589 242.764 43.9029V43.9269H243.652C245.104 43.9269 245.896 43.2309 245.896 41.9229C245.896 40.6149 245.104 39.9069 243.652 39.9069H242.968ZM247.867 45.1149C248.191 45.1149 248.491 44.7909 248.551 44.4549C248.563 44.3709 248.575 44.2389 248.599 44.1909L248.563 44.1669C248.527 44.2149 248.407 44.2509 248.323 44.2509C247.975 44.2509 247.783 44.0709 247.783 43.7229C247.783 43.3749 247.975 43.1829 248.323 43.1829C248.647 43.1829 248.851 43.3989 248.851 43.7229C248.851 44.6229 248.455 45.2229 247.867 45.2229V45.1149ZM10.8623 70.6789C8.69027 70.6789 7.25027 69.2269 7.25027 67.0429C7.25027 64.8709 8.69027 63.4189 10.8623 63.4189C13.0103 63.4189 14.4503 64.8709 14.4503 67.0429C14.4503 69.2269 13.0103 70.6789 10.8623 70.6789ZM10.8983 70.4629C12.5183 70.4629 13.4063 69.3469 13.4063 67.2709C13.4063 64.9189 12.4943 63.6349 10.8143 63.6349C9.17027 63.6349 8.29427 64.7629 8.29427 66.8269C8.29427 69.1909 9.19427 70.4629 10.8983 70.4629ZM0.0382656 72.1429V72.0349H0.458266C1.03427 72.0349 1.09427 71.9629 1.09427 71.2909V64.2589C1.09427 63.6829 1.03427 63.6229 0.458266 63.6229H0.0382656V63.5149H2.78627V63.6229H2.67827C2.09027 63.6229 2.03027 63.6709 2.03027 64.2349V66.9589C2.46227 66.9589 2.69027 66.9349 2.81027 66.7909L4.70627 64.4029C4.85027 64.2229 4.92227 64.0669 4.92227 63.9589C4.92227 63.7309 4.67027 63.6229 4.29827 63.6229H4.19027V63.5149H6.90227V63.6229H6.69827C6.17027 63.6229 5.43827 63.8149 4.93427 64.4509L3.02627 66.8629L3.03827 66.9109C4.16627 67.1749 4.88627 68.1709 5.65427 69.2509C6.68627 70.7389 7.86227 72.3469 10.3583 72.3469C12.2063 72.3469 13.7183 71.3269 14.1023 71.0029L14.3663 70.7749L14.4383 70.8589L14.1743 71.0869C13.3463 71.7949 11.7023 72.7189 9.91427 72.7189C7.01027 72.7189 5.57027 70.6909 4.43027 69.0589C3.66227 67.9669 3.02627 67.0669 2.17427 67.0669H2.03027V71.2909C2.03027 71.3149 2.03027 71.3389 2.03027 71.3509C2.03027 71.9749 2.11427 72.0349 2.67827 72.0349H3.09827V72.1429H0.0382656ZM16.0463 72.1429V72.0349H16.9583C17.5343 72.0349 17.5943 71.9749 17.5943 71.3989V63.7309H16.8743C15.7223 63.7309 15.3143 63.9589 15.2543 65.1109L15.2063 65.6149L15.0023 65.5909L15.1823 62.8069L15.3023 62.8189L15.2543 63.5149H20.8463L20.7863 62.8309L20.9183 62.8189L21.0983 65.5909L20.8823 65.6149L20.8463 65.1109C20.7623 63.9589 20.3783 63.7309 19.2263 63.7309H18.5303V71.3989C18.5303 71.9749 18.5903 72.0349 19.1663 72.0349H20.0543V72.1429H16.0463ZM26.0095 72.2389C23.3335 72.2389 21.5575 70.4749 21.5575 67.8229C21.5575 65.1829 23.3335 63.4189 26.0095 63.4189C28.6615 63.4189 30.4375 65.1829 30.4375 67.8229C30.4375 70.4749 28.6615 72.2389 26.0095 72.2389ZM26.0455 72.0229C28.2175 72.0229 29.3935 70.6429 29.3935 68.0509C29.3935 65.1829 28.1815 63.6349 25.9615 63.6349C23.7775 63.6349 22.6015 65.0269 22.6015 67.6069C22.6015 70.4869 23.8015 72.0229 26.0455 72.0229ZM32.8106 63.7429V63.8029C32.9546 63.9949 33.0146 64.2709 33.0146 64.5469V68.5669H33.6866C35.1986 68.5669 36.0146 67.7269 36.0146 66.1549C36.0146 64.5949 35.1986 63.7429 33.6866 63.7429H32.8106ZM31.0226 72.1429V72.0349H31.4426C32.0186 72.0349 32.0786 71.9749 32.0786 71.3989V64.2589C32.0786 63.6829 32.0186 63.6229 31.4426 63.6229H31.0226V63.5149H34.0466C35.8466 63.5149 37.0586 64.5709 37.0586 66.1549C37.0586 67.7389 35.8466 68.7829 34.0466 68.7829H33.0146V71.3989C33.0146 71.9749 33.0866 72.0349 33.6626 72.0349H33.9626V72.1429H31.0226ZM43.6931 72.1429V72.0349H44.1131C44.6891 72.0349 44.7491 71.9869 44.7491 71.4109V64.2469C44.7491 63.6709 44.6891 63.6229 44.1131 63.6229H43.6931V63.5149H46.7531V63.6469H46.3331C45.7571 63.6469 45.6851 63.6949 45.6851 64.2709V71.4109C45.6851 71.9869 45.7571 72.0349 46.3331 72.0349H46.7531V72.1429H43.6931ZM37.5851 72.1429V72.0229H38.0051C38.5811 72.0229 38.6411 71.9629 38.6411 71.3869V64.2469C38.6411 63.6709 38.5811 63.6229 38.0051 63.6229H37.5851V63.5149H40.6451V63.6229H40.2251C39.6491 63.6229 39.5771 63.6949 39.5771 64.2709V67.7029H40.4891C42.3251 67.7029 43.5491 68.5909 43.5491 69.9229C43.5491 71.2549 42.3251 72.1429 40.4891 72.1429H37.5851ZM39.5771 67.9069V71.2909C39.5771 71.5669 39.5171 71.7589 39.3731 71.9029V71.9269H40.2611C41.7131 71.9269 42.5051 71.2309 42.5051 69.9229C42.5051 68.6149 41.7131 67.9069 40.2611 67.9069H39.5771ZM47.1711 72.1429V72.0349H47.5911C48.1671 72.0349 48.2271 71.8669 48.2271 71.2909V64.3669C48.2271 63.7909 48.1671 63.6229 47.5911 63.6229H47.1711V63.5149H50.1231V63.6229H49.8111C49.2351 63.6229 49.1631 63.7909 49.1631 64.3669V71.3269L52.5711 63.5149H54.4551V63.6229H54.0231C53.4471 63.6229 53.3871 63.7909 53.3871 64.3669V71.2909C53.3871 71.8669 53.4471 72.0349 54.0231 72.0349H54.4551V72.1429H51.4911V72.0349H51.8151C52.3911 72.0349 52.4511 71.8669 52.4511 71.2909V64.3309L49.0431 72.1429H47.1711ZM49.3311 61.3549L49.7631 61.3189C49.7631 61.9789 50.3031 62.5189 50.9871 62.5189C51.6591 62.5189 52.2111 61.9789 52.2111 61.3189L52.6431 61.3549C52.6431 62.1349 51.8991 62.7349 50.9871 62.7349C50.0631 62.7349 49.3311 62.1349 49.3311 61.3549ZM58.2618 67.7989C58.2618 65.1709 59.9298 63.4189 62.4498 63.4189C63.2538 63.4189 64.0338 63.6709 64.6458 64.1869C64.7058 64.2469 64.7538 64.3429 64.7778 64.4269L64.8618 64.4029C64.8378 64.3069 64.8258 64.1869 64.8258 64.0549L64.8018 63.1909L64.9098 63.1789L65.0178 66.6469L64.8018 66.6589L64.7658 65.5429C64.7058 64.4629 63.5418 63.6229 62.3538 63.6229C60.3858 63.6229 59.3298 65.0269 59.3298 67.6069C59.3298 70.4869 60.4338 72.0229 62.4858 72.0229C63.6258 72.0229 64.7298 71.3989 65.1498 70.3909L65.3538 70.4629C64.8738 71.6629 63.7218 72.2389 62.4618 72.2389C59.9418 72.2389 58.2618 70.4629 58.2618 67.7989ZM66.765 72.1429V72.0349H67.677C68.253 72.0349 68.313 71.9749 68.313 71.3989V63.7309H67.593C66.441 63.7309 66.033 63.9589 65.973 65.1109L65.925 65.6149L65.721 65.5909L65.901 62.8069L66.021 62.8189L65.973 63.5149H71.565L71.505 62.8309L71.637 62.8189L71.817 65.5909L71.601 65.6149L71.565 65.1109C71.481 63.9589 71.097 63.7309 69.945 63.7309H69.249V71.3989C69.249 71.9749 69.309 72.0349 69.885 72.0349H70.773V72.1429H66.765ZM71.1565 72.1429V72.0349H71.3485C71.6485 72.0349 71.8285 71.6989 72.0085 71.2909L75.3685 63.5149H76.3045V63.6589C76.3045 63.8989 76.3525 64.2109 76.4125 64.3549L79.2445 71.2909C79.4845 71.8669 79.5565 72.0349 79.9525 72.0349H80.0485V72.1429H77.7565V72.0349H78.6805V72.0109C78.5245 71.9509 78.3925 71.6509 78.3085 71.4469L77.6365 69.8029H72.8845L72.2365 71.2909C72.1885 71.3989 72.1645 71.4829 72.1645 71.5669C72.1645 71.8549 72.3925 72.0349 72.7525 72.0349H73.3405V72.1429H71.1565ZM72.9685 69.5869H77.5405L75.5125 64.5829C75.4285 64.3909 75.4165 64.2349 75.4165 64.1029H75.3085C75.3085 64.1749 75.2725 64.3309 75.1645 64.5829L72.9685 69.5869ZM80.3703 72.1429V72.0349H80.7903C81.3663 72.0349 81.4263 71.8669 81.4263 71.2909V64.3669C81.4263 63.7909 81.3663 63.6229 80.7903 63.6229H80.3703V63.5149H83.3223V63.6229H83.0103C82.4343 63.6229 82.3623 63.7909 82.3623 64.3669V67.4989H85.6503V64.3669C85.6503 63.7909 85.5783 63.6229 85.0023 63.6229H84.6903V63.5149H87.6543V63.6229H87.2223C86.6463 63.6229 86.5863 63.7909 86.5863 64.3669V71.2909C86.5863 71.8669 86.6463 72.0349 87.2223 72.0349H87.6543V72.1429H84.6903V72.0349H85.0143C85.5903 72.0349 85.6503 71.8669 85.6503 71.2909V67.7149H82.3623V71.2909C82.3623 71.8669 82.4343 72.0349 83.0103 72.0349H83.3223V72.1429H80.3703ZM91.9455 69.6709H91.8375V69.0109C91.8375 67.8589 91.2135 67.7269 90.5415 67.7269H90.0615V71.2909C90.0615 71.5549 89.9415 71.7709 89.7975 71.9149V71.9269H92.1855C93.3375 71.9269 93.8895 71.4589 93.9735 70.3069L94.0455 69.3469H94.2375L94.0335 72.5989H93.9255L93.9615 72.0349H93.9495C93.8655 72.1189 93.6975 72.1429 93.5055 72.1429H88.0695V72.0349H88.4895C89.0655 72.0349 89.1255 71.9749 89.1255 71.3989V64.2589C89.1255 63.6829 89.0655 63.6229 88.4895 63.6229H88.0695V63.5149H92.8575C93.0495 63.5149 93.2175 63.5389 93.3015 63.6229H93.3135L93.2775 63.0709L93.3855 63.0589L93.6015 66.3109H93.3855L93.3375 65.4709C93.2655 64.1749 92.6415 63.7309 91.4895 63.7309H89.7975V63.7429C89.9415 63.8869 90.0615 64.1029 90.0615 64.3669V67.5109H90.5415C91.2135 67.5109 91.8375 67.3909 91.8375 66.2389V65.8189H91.9455V69.6709ZM95.5697 72.1429V72.0349H96.4817C97.0577 72.0349 97.1177 71.9749 97.1177 71.3989V63.7309H96.3977C95.2457 63.7309 94.8377 63.9589 94.7777 65.1109L94.7297 65.6149L94.5257 65.5909L94.7057 62.8069L94.8257 62.8189L94.7777 63.5149H100.37L100.31 62.8309L100.442 62.8189L100.622 65.5909L100.406 65.6149L100.37 65.1109C100.286 63.9589 99.9017 63.7309 98.7497 63.7309H98.0537V71.3989C98.0537 71.9749 98.1137 72.0349 98.6897 72.0349H99.5777V72.1429H95.5697ZM104.122 71.9269H104.95C105.826 71.1709 107.05 69.3349 107.062 66.9469V64.5109C107.062 63.6709 106.966 63.6229 106.126 63.6229H105.862V63.5149H111.706V63.6229H111.274C110.698 63.6229 110.638 63.7909 110.638 64.3669V71.9269H111.706V74.1589H111.274V72.8869C111.274 72.3109 111.202 72.1429 110.626 72.1429H105.202C104.626 72.1429 104.554 72.3109 104.554 72.8869V74.1589H104.122V71.9269ZM106.27 71.9269H109.702V63.7309H107.374V66.6589C107.374 69.0469 106.858 70.8709 106.27 71.9269ZM112.936 63.5149H113.968H117.256H119.26V63.6229H118.828C118.252 63.6229 118.192 63.7909 118.192 64.3669V71.2909C118.192 71.8669 118.252 72.0349 118.828 72.0349H119.26V72.1429H116.296V72.0349H116.62C117.196 72.0349 117.256 71.8669 117.256 71.2909V63.7309H114.448V66.6589C114.448 69.8629 113.524 71.9149 112.72 72.5869L112.024 71.7829C112.9 71.0149 114.124 69.3349 114.136 66.9469V64.5109C114.136 63.6709 114.04 63.6229 113.2 63.6229H112.936V63.5149ZM123.659 72.1429V72.0349H123.875C124.451 72.0349 124.523 71.9749 124.523 71.3989V68.3629H123.599C123.575 70.6909 122.579 72.2389 121.079 72.2389C120.587 72.2389 120.119 72.0829 119.759 71.7709V70.8229C120.335 71.2429 120.875 71.4469 121.343 71.4469C122.651 71.4469 123.371 70.3309 123.371 68.3629C121.451 68.3629 120.071 67.5469 120.071 65.9389C120.071 64.3429 121.463 63.5149 123.383 63.5149H126.515V63.6229H126.095C125.519 63.6229 125.459 63.6829 125.459 64.2589V71.3989C125.459 71.9749 125.519 72.0349 126.095 72.0349H126.515V72.1429H123.659ZM124.523 68.1469V64.3669C124.523 64.0909 124.583 63.8869 124.727 63.7429V63.7309H123.479C122.015 63.7309 121.115 64.3549 121.115 65.9389C121.115 67.5469 122.015 68.1469 123.479 68.1469H124.523ZM130.14 72.1429V72.0349H130.56C131.136 72.0349 131.196 71.8669 131.196 71.2909V64.3669C131.196 63.7909 131.136 63.6229 130.56 63.6229H130.14V63.5149H133.092V63.6229H132.78C132.204 63.6229 132.132 63.7909 132.132 64.3669V67.4989H135.42V64.3669C135.42 63.7909 135.348 63.6229 134.772 63.6229H134.46V63.5149H137.424V63.6229H136.992C136.416 63.6229 136.356 63.7909 136.356 64.3669V71.2909C136.356 71.8669 136.416 72.0349 136.992 72.0349H137.424V72.1429H134.46V72.0349H134.784C135.36 72.0349 135.42 71.8669 135.42 71.2909V67.7149H132.132V71.2909C132.132 71.8669 132.204 72.0349 132.78 72.0349H133.092V72.1429H130.14ZM137.719 72.1429V72.0349H137.911C138.211 72.0349 138.391 71.6989 138.571 71.2909L141.931 63.5149H142.867V63.6589C142.867 63.8989 142.915 64.2109 142.975 64.3549L145.807 71.2909C146.047 71.8669 146.119 72.0349 146.515 72.0349H146.611V72.1429H144.319V72.0349H145.243V72.0109C145.087 71.9509 144.955 71.6509 144.871 71.4469L144.199 69.8029H139.447L138.799 71.2909C138.751 71.3989 138.727 71.4829 138.727 71.5669C138.727 71.8549 138.955 72.0349 139.315 72.0349H139.903V72.1429H137.719ZM139.531 69.5869H144.103L142.075 64.5829C141.991 64.3909 141.979 64.2349 141.979 64.1029H141.871C141.871 64.1749 141.835 64.3309 141.727 64.5829L139.531 69.5869ZM147.043 67.7989C147.043 65.1709 148.711 63.4189 151.231 63.4189C152.035 63.4189 152.815 63.6709 153.427 64.1869C153.487 64.2469 153.535 64.3429 153.559 64.4269L153.643 64.4029C153.619 64.3069 153.607 64.1869 153.607 64.0549L153.583 63.1909L153.691 63.1789L153.799 66.6469L153.583 66.6589L153.547 65.5429C153.487 64.4629 152.323 63.6229 151.135 63.6229C149.167 63.6229 148.111 65.0269 148.111 67.6069C148.111 70.4869 149.215 72.0229 151.267 72.0229C152.407 72.0229 153.511 71.3989 153.931 70.3909L154.135 70.4629C153.655 71.6629 152.503 72.2389 151.243 72.2389C148.723 72.2389 147.043 70.4629 147.043 67.7989ZM164.473 72.2789C160.682 72.2789 158.166 69.7799 158.166 66.0229C158.166 62.2829 160.682 59.7839 164.473 59.7839C168.23 59.7839 170.746 62.2829 170.746 66.0229C170.746 69.7799 168.23 72.2789 164.473 72.2789ZM164.524 71.9729C167.601 71.9729 169.267 70.0179 169.267 66.3459C169.267 62.2829 167.55 60.0899 164.405 60.0899C161.311 60.0899 159.645 62.0619 159.645 65.7169C159.645 69.7969 161.345 71.9729 164.524 71.9729ZM171.864 65.9889C171.864 62.2659 174.227 59.7839 177.797 59.7839C178.936 59.7839 180.041 60.1409 180.908 60.8719C180.993 60.9569 181.061 61.0929 181.095 61.2119L181.214 61.1779C181.18 61.0419 181.163 60.8719 181.163 60.6849L181.129 59.4609L181.282 59.4439L181.435 64.3569L181.129 64.3739L181.078 62.7929C180.993 61.2629 179.344 60.0729 177.661 60.0729C174.873 60.0729 173.377 62.0619 173.377 65.7169C173.377 69.7969 174.941 71.9729 177.848 71.9729C179.463 71.9729 181.027 71.0889 181.622 69.6609L181.911 69.7629C181.231 71.4629 179.599 72.2789 177.814 72.2789C174.244 72.2789 171.864 69.7629 171.864 65.9889ZM189.192 72.2789C185.401 72.2789 182.885 69.7799 182.885 66.0229C182.885 62.2829 185.401 59.7839 189.192 59.7839C192.949 59.7839 195.465 62.2829 195.465 66.0229C195.465 69.7799 192.949 72.2789 189.192 72.2789ZM189.243 71.9729C192.32 71.9729 193.986 70.0179 193.986 66.3459C193.986 62.2829 192.269 60.0899 189.124 60.0899C186.03 60.0899 184.364 62.0619 184.364 65.7169C184.364 69.7969 186.064 71.9729 189.243 71.9729ZM196.294 72.1429V71.9729H196.889C197.705 71.9729 197.79 71.8879 197.79 71.0719V60.9739C197.79 60.1579 197.705 60.0729 196.889 60.0729H196.294V59.9199H203.366C203.638 59.9199 203.706 59.9539 203.825 60.0729H203.842L203.774 58.9169L203.927 58.8999L204.25 63.8809H203.944L203.876 62.6909C203.757 60.8719 202.431 60.2259 200.799 60.2259H198.742V60.2429C198.946 60.4469 199.116 60.7529 199.116 61.1269V65.5129H200.306C203.383 65.5129 205.423 66.8389 205.423 68.8279C205.423 70.8169 203.553 72.1429 200.748 72.1429H196.294ZM199.116 65.8019V70.9359C199.116 71.3269 199.031 71.5989 198.827 71.8029V71.8369H200.425C202.703 71.8369 203.944 70.7999 203.944 68.8279C203.944 66.8729 202.669 65.8019 200.323 65.8019H199.116ZM211.514 68.6409H211.361V67.7059C211.361 66.0739 210.477 65.8869 209.525 65.8869H208.845V70.9359C208.845 71.3099 208.675 71.6159 208.471 71.8199V71.8369H211.854C213.486 71.8369 214.268 71.1739 214.387 69.5419L214.489 68.1819H214.761L214.472 72.7889H214.319L214.37 71.9899H214.353C214.234 72.1089 213.996 72.1429 213.724 72.1429H206.023V71.9899H206.618C207.434 71.9899 207.519 71.9049 207.519 71.0889V60.9739C207.519 60.1579 207.434 60.0729 206.618 60.0729H206.023V59.9199H212.806C213.078 59.9199 213.316 59.9539 213.435 60.0729H213.452L213.401 59.2909L213.554 59.2739L213.86 63.8809H213.554L213.486 62.6909C213.384 60.8549 212.5 60.2259 210.868 60.2259H208.471V60.2429C208.675 60.4469 208.845 60.7529 208.845 61.1269V65.5809H209.525C210.477 65.5809 211.361 65.4109 211.361 63.7789V63.1839H211.514V68.6409ZM215.403 72.1429V71.9899H215.998C216.814 71.9899 216.899 71.7519 216.899 70.9359V61.1269C216.899 60.3109 216.814 60.0729 215.998 60.0729H215.403V59.9199H219.585V60.0729H219.143C218.327 60.0729 218.225 60.3109 218.225 61.1269V65.5639H222.883V61.1269C222.883 60.3109 222.781 60.0729 221.965 60.0729H221.523V59.9199H225.722V60.0729H225.11C224.294 60.0729 224.209 60.3109 224.209 61.1269V70.9359C224.209 71.7519 224.294 71.9899 225.11 71.9899H225.722V72.1429H221.523V71.9899H221.982C222.798 71.9899 222.883 71.7519 222.883 70.9359V65.8699H218.225V70.9359C218.225 71.7519 218.327 71.9899 219.143 71.9899H219.585V72.1429H215.403ZM226.31 72.1429V71.9899H226.905C227.721 71.9899 227.806 71.7519 227.806 70.9359V61.1269C227.806 60.3109 227.721 60.0729 226.905 60.0729H226.31V59.9199H230.492V60.0729H230.05C229.234 60.0729 229.132 60.3109 229.132 61.1269V65.5639H233.79V61.1269C233.79 60.3109 233.688 60.0729 232.872 60.0729H232.43V59.9199H236.629V60.0729H236.017C235.201 60.0729 235.116 60.3109 235.116 61.1269V70.9359C235.116 71.7519 235.201 71.9899 236.017 71.9899H236.629V72.1429H232.43V71.9899H232.889C233.705 71.9899 233.79 71.7519 233.79 70.9359V65.8699H229.132V70.9359C229.132 71.7519 229.234 71.9899 230.05 71.9899H230.492V72.1429H226.31ZM245.87 72.1429V71.9899H246.465C247.281 71.9899 247.366 71.9219 247.366 71.1059V60.9569C247.366 60.1409 247.281 60.0729 246.465 60.0729H245.87V59.9199H250.205V60.1069H249.61C248.794 60.1069 248.692 60.1749 248.692 60.9909V71.1059C248.692 71.9219 248.794 71.9899 249.61 71.9899H250.205V72.1429H245.87ZM237.217 72.1429V71.9729H237.812C238.628 71.9729 238.713 71.8879 238.713 71.0719V60.9569C238.713 60.1409 238.628 60.0729 237.812 60.0729H237.217V59.9199H241.552V60.0729H240.957C240.141 60.0729 240.039 60.1749 240.039 60.9909V65.8529H241.331C243.932 65.8529 245.666 67.1109 245.666 68.9979C245.666 70.8849 243.932 72.1429 241.331 72.1429H237.217ZM240.039 66.1419V70.9359C240.039 71.3269 239.954 71.5989 239.75 71.8029V71.8369H241.008C243.065 71.8369 244.187 70.8509 244.187 68.9979C244.187 67.1449 243.065 66.1419 241.008 66.1419H240.039ZM250.644 72.1429V71.9899H250.916C251.783 71.9899 251.919 71.7349 251.97 70.7829L252.429 60.9739C252.429 60.8549 252.429 60.7359 252.429 60.6169C252.429 60.2429 252.327 60.0729 251.596 60.0729H250.916V59.9199H253.415L257.818 69.6609C257.971 70.0009 258.073 70.2899 258.073 70.3919H258.158C258.158 70.2899 258.277 69.9159 258.396 69.6609L262.799 59.9199H265.349V60.0729H264.771C263.938 60.0729 263.819 60.3279 263.819 60.8209C263.819 60.9569 263.819 61.1099 263.836 61.2799L264.227 70.7829C264.261 71.7519 264.38 71.9899 265.315 71.9899H265.689V72.1429H261.252V71.9899H261.864C262.782 71.9899 262.901 71.7519 262.901 71.3439C262.901 71.2589 262.901 71.1569 262.901 71.0379L262.561 62.0789C262.544 61.7729 262.544 61.5179 262.544 61.3309H262.442C262.442 61.3819 262.323 61.6709 262.17 62.0279L257.597 72.2109L257.546 72.3299H257.512L257.461 72.2109L252.956 62.2149C252.803 61.8749 252.769 61.5519 252.769 61.5009H252.701C252.701 61.6539 252.701 61.7729 252.684 62.0789L252.259 71.0039C252.242 71.1569 252.225 71.2929 252.225 71.3949C252.225 71.8029 252.378 71.9899 253.313 71.9899H253.925V72.1429H250.644ZM274.801 67.4679H270.653L270.721 67.0089H274.886L274.801 67.4679ZM25.5423 104.783H26.9223C28.3823 103.523 30.4223 100.463 30.4423 96.4829V92.4229C30.4423 91.0229 30.2823 90.9429 28.8823 90.9429H28.4423V90.7629H38.1823V90.9429H37.4623C36.5023 90.9429 36.4023 91.2229 36.4023 92.1829V104.783H38.1823V108.503H37.4623V106.383C37.4623 105.423 37.3423 105.143 36.3823 105.143H27.3423C26.3823 105.143 26.2623 105.423 26.2623 106.383V108.503H25.5423V104.783ZM29.1223 104.783H34.8423V91.1229H30.9623V96.0029C30.9623 99.9829 30.1023 103.023 29.1223 104.783ZM45.4235 101.023H45.2435V99.9229C45.2435 98.0029 44.2035 97.7829 43.0835 97.7829H42.2835V103.723C42.2835 104.163 42.0835 104.523 41.8435 104.763V104.783H45.8235C47.7435 104.783 48.6635 104.003 48.8035 102.083L48.9235 100.483H49.2435L48.9035 105.903H48.7235L48.7835 104.963H48.7635C48.6235 105.103 48.3435 105.143 48.0235 105.143H38.9635V104.963H39.6635C40.6235 104.963 40.7235 104.863 40.7235 103.903V92.0029C40.7235 91.0429 40.6235 90.9429 39.6635 90.9429H38.9635V90.7629H46.9435C47.2635 90.7629 47.5435 90.8029 47.6835 90.9429H47.7035L47.6435 90.0229L47.8235 90.0029L48.1835 95.4229H47.8235L47.7435 94.0229C47.6235 91.8629 46.5835 91.1229 44.6635 91.1229H41.8435V91.1429C42.0835 91.3829 42.2835 91.7429 42.2835 92.1829V97.4229H43.0835C44.2035 97.4229 45.2435 97.2229 45.2435 95.3029V94.6029H45.4235V101.023ZM49.9987 105.143V104.963H50.6987C51.6587 104.963 51.7587 104.683 51.7587 103.723V92.1829C51.7587 91.2229 51.6587 90.9429 50.6987 90.9429H49.9987V90.7629H54.9187V90.9429H54.3987C53.4387 90.9429 53.3187 91.2229 53.3187 92.1829V97.4029H58.7987V92.1829C58.7987 91.2229 58.6787 90.9429 57.7187 90.9429H57.1987V90.7629H62.1387V90.9429H61.4187C60.4587 90.9429 60.3587 91.2229 60.3587 92.1829V103.723C60.3587 104.683 60.4587 104.963 61.4187 104.963H62.1387V105.143H57.1987V104.963H57.7387C58.6987 104.963 58.7987 104.683 58.7987 103.723V97.7629H53.3187V103.723C53.3187 104.683 53.4387 104.963 54.3987 104.963H54.9187V105.143H49.9987ZM62.8307 105.143V104.943H63.5307C64.4907 104.943 64.5907 104.843 64.5907 103.883V91.9829C64.5907 91.0229 64.4907 90.9429 63.5307 90.9429H62.8307V90.7629H67.9307V90.9429H67.2307C66.2707 90.9429 66.1507 91.0629 66.1507 92.0229V97.7429H67.6707C70.7307 97.7429 72.7707 99.2229 72.7707 101.443C72.7707 103.663 70.7307 105.143 67.6707 105.143H62.8307ZM66.1507 98.0829V103.723C66.1507 104.183 66.0507 104.503 65.8107 104.743V104.783H67.2907C69.7107 104.783 71.0307 103.623 71.0307 101.443C71.0307 99.2629 69.7107 98.0829 67.2907 98.0829H66.1507ZM78.7877 105.143V104.963H79.4877C80.4477 104.963 80.5477 104.683 80.5477 103.723V92.1829C80.5477 91.2229 80.4477 90.9429 79.4877 90.9429H78.7877V90.7629H83.7077V90.9429H83.1877C82.2277 90.9429 82.1077 91.2229 82.1077 92.1829V97.4029H87.5877V92.1829C87.5877 91.2229 87.4677 90.9429 86.5077 90.9429H85.9877V90.7629H90.9277V90.9429H90.2077C89.2477 90.9429 89.1477 91.2229 89.1477 92.1829V103.723C89.1477 104.683 89.2477 104.963 90.2077 104.963H90.9277V105.143H85.9877V104.963H86.5277C87.4877 104.963 87.5877 104.683 87.5877 103.723V97.7629H82.1077V103.723C82.1077 104.683 82.2277 104.963 83.1877 104.963H83.7077V105.143H78.7877ZM91.4198 105.143V104.963H91.7398C92.2398 104.963 92.5398 104.403 92.8398 103.723L98.4398 90.7629H99.9998V91.0029C99.9998 91.4029 100.08 91.9229 100.18 92.1629L104.9 103.723C105.3 104.683 105.42 104.963 106.08 104.963H106.24V105.143H102.42V104.963H103.96V104.923C103.7 104.823 103.48 104.323 103.34 103.983L102.22 101.243H94.2998L93.2198 103.723C93.1398 103.903 93.0998 104.043 93.0998 104.183C93.0998 104.663 93.4798 104.963 94.0798 104.963H95.0598V105.143H91.4198ZM94.4398 100.883H102.06L98.6798 92.5429C98.5398 92.2229 98.5198 91.9629 98.5198 91.7429H98.3398C98.3398 91.8629 98.2798 92.1229 98.0998 92.5429L94.4398 100.883ZM106.776 105.143V104.963H107.496C108.456 104.963 108.556 104.683 108.556 103.723V92.1829C108.556 91.2229 108.456 90.9429 107.496 90.9429H106.776V90.7629H111.716V90.9429H111.176C110.216 90.9429 110.116 91.2229 110.116 92.1829V104.783H114.816V103.723V92.1829C114.816 91.2429 114.696 90.9629 113.756 90.9429H113.216V90.7629H117.976V90.9429H117.436C116.476 90.9429 116.376 91.2229 116.376 92.1829V103.723V104.783H121.076V92.1829C121.076 91.2229 120.956 90.9429 119.996 90.9429H119.476V90.7629H124.396V90.9429H123.696C122.736 90.9429 122.636 91.2229 122.636 92.1829V103.723C122.636 104.683 122.736 104.963 123.696 104.963H124.396V105.143H106.776ZM131.556 101.023H131.376V99.9229C131.376 98.0029 130.336 97.7829 129.216 97.7829H128.416V103.723C128.416 104.163 128.216 104.523 127.976 104.763V104.783H131.956C133.876 104.783 134.796 104.003 134.936 102.083L135.056 100.483H135.376L135.036 105.903H134.856L134.916 104.963H134.896C134.756 105.103 134.476 105.143 134.156 105.143H125.096V104.963H125.796C126.756 104.963 126.856 104.863 126.856 103.903V92.0029C126.856 91.0429 126.756 90.9429 125.796 90.9429H125.096V90.7629H133.076C133.396 90.7629 133.676 90.8029 133.816 90.9429H133.836L133.776 90.0229L133.956 90.0029L134.316 95.4229H133.956L133.876 94.0229C133.756 91.8629 132.716 91.1229 130.796 91.1229H127.976V91.1429C128.216 91.3829 128.416 91.7429 128.416 92.1829V97.4229H129.216C130.336 97.4229 131.376 97.2229 131.376 95.3029V94.6029H131.556V101.023ZM136.131 105.143V104.963H136.831C137.791 104.963 137.891 104.683 137.891 103.723V92.1829C137.891 91.2229 137.791 90.9429 136.831 90.9429H136.131V90.7629H141.051V90.9429H140.531C139.571 90.9429 139.451 91.2229 139.451 92.1829V103.783L145.131 90.7629H148.271V90.9429H147.551C146.591 90.9429 146.491 91.2229 146.491 92.1829V103.723C146.491 104.683 146.591 104.963 147.551 104.963H148.271V105.143H143.331V104.963H143.871C144.831 104.963 144.931 104.683 144.931 103.723V92.1229L139.251 105.143H136.131ZM139.731 87.1629L140.451 87.1029C140.451 88.2029 141.351 89.1029 142.491 89.1029C143.611 89.1029 144.531 88.2029 144.531 87.1029L145.251 87.1629C145.251 88.4629 144.011 89.4629 142.491 89.4629C140.951 89.4629 139.731 88.4629 139.731 87.1629ZM154.616 97.9029C154.616 93.5229 157.396 90.6029 161.596 90.6029C162.936 90.6029 164.236 91.0229 165.256 91.8829C165.356 91.9829 165.436 92.1429 165.476 92.2829L165.616 92.2429C165.576 92.0829 165.556 91.8829 165.556 91.6629L165.516 90.2229L165.696 90.2029L165.876 95.9829L165.516 96.0029L165.456 94.1429C165.356 92.3429 163.416 90.9429 161.436 90.9429C158.156 90.9429 156.396 93.2829 156.396 97.5829C156.396 102.383 158.236 104.943 161.656 104.943C163.556 104.943 165.396 103.903 166.096 102.223L166.436 102.343C165.636 104.343 163.716 105.303 161.616 105.303C157.416 105.303 154.616 102.343 154.616 97.9029ZM170.303 104.783H172.583C175.063 104.783 176.723 103.263 176.723 100.983C176.723 98.5829 174.943 96.8629 172.463 96.8629H171.403V96.5229H172.203C173.963 96.5229 175.243 95.4029 175.243 93.8229C175.243 92.2029 173.903 91.1229 171.923 91.1229H170.303V91.1429C170.543 91.3829 170.643 91.7229 170.643 92.1829V103.723C170.643 104.183 170.543 104.503 170.303 104.743V104.783ZM167.323 105.143V104.963H168.023C168.983 104.963 169.083 104.863 169.083 103.903V92.0029C169.083 91.0429 168.983 90.9429 168.023 90.9429H167.323V90.7629H172.203C175.043 90.7629 176.943 91.9829 176.943 93.7829C176.943 94.9229 175.903 96.3229 174.063 96.5829V96.6629C176.663 96.8429 178.463 98.9429 178.463 100.983C178.463 103.483 176.043 105.143 172.943 105.143H167.323ZM178.724 105.143V104.963H179.044C179.544 104.963 179.844 104.403 180.144 103.723L185.744 90.7629H187.304V91.0029C187.304 91.4029 187.384 91.9229 187.484 92.1629L192.204 103.723C192.604 104.683 192.724 104.963 193.384 104.963H193.544V105.143H189.724V104.963H191.264V104.923C191.004 104.823 190.784 104.323 190.644 103.983L189.524 101.243H181.604L180.524 103.723C180.444 103.903 180.404 104.043 180.404 104.183C180.404 104.663 180.784 104.963 181.384 104.963H182.364V105.143H178.724ZM181.744 100.883H189.364L185.984 92.5429C185.844 92.2229 185.824 91.9629 185.824 91.7429H185.644C185.644 91.8629 185.584 92.1229 185.404 92.5429L181.744 100.883ZM193.941 104.783H195.321C196.781 103.523 198.821 100.463 198.841 96.4829V92.4229C198.841 91.0229 198.681 90.9429 197.281 90.9429H196.841V90.7629H206.581V90.9429H205.861C204.901 90.9429 204.801 91.2229 204.801 92.1829V104.783H206.581V108.503H205.861V106.383C205.861 105.423 205.741 105.143 204.781 105.143H195.741C194.781 105.143 194.661 105.423 194.661 106.383V108.503H193.941V104.783ZM197.521 104.783H203.241V91.1229H199.361V96.0029C199.361 99.9829 198.501 103.023 197.521 104.783ZM207.362 105.143V104.943H208.062C209.022 104.943 209.122 104.843 209.122 103.883V91.9829C209.122 91.0229 209.022 90.9429 208.062 90.9429H207.362V90.7629H212.462V90.9429H211.762C210.802 90.9429 210.682 91.0629 210.682 92.0229V97.7429H212.202C215.262 97.7429 217.302 99.2229 217.302 101.443C217.302 103.663 215.262 105.143 212.202 105.143H207.362ZM210.682 98.0829V103.723C210.682 104.183 210.582 104.503 210.342 104.743V104.783H211.822C214.242 104.783 215.562 103.623 215.562 101.443C215.562 99.2629 214.242 98.0829 211.822 98.0829H210.682ZM218.006 105.143V104.943H218.706C219.666 104.943 219.766 104.843 219.766 103.883V92.0029C219.766 91.0429 219.666 90.9429 218.706 90.9429H218.006V90.7629H226.326C226.646 90.7629 226.726 90.8029 226.866 90.9429H226.886L226.806 89.5829L226.986 89.5629L227.366 95.4229H227.006L226.926 94.0229C226.786 91.8829 225.226 91.1229 223.306 91.1229H220.886V91.1429C221.126 91.3829 221.326 91.7429 221.326 92.1829V97.3429H222.726C226.346 97.3429 228.746 98.9029 228.746 101.243C228.746 103.583 226.546 105.143 223.246 105.143H218.006ZM221.326 97.6829V103.723C221.326 104.183 221.226 104.503 220.986 104.743V104.783H222.866C225.546 104.783 227.006 103.563 227.006 101.243C227.006 98.9429 225.506 97.6829 222.746 97.6829H221.326ZM239.632 105.143V104.963H240.332C241.292 104.963 241.392 104.883 241.392 103.923V91.9829C241.392 91.0229 241.292 90.9429 240.332 90.9429H239.632V90.7629H244.732V90.9829H244.032C243.072 90.9829 242.952 91.0629 242.952 92.0229V103.923C242.952 104.883 243.072 104.963 244.032 104.963H244.732V105.143H239.632ZM229.452 105.143V104.943H230.152C231.112 104.943 231.212 104.843 231.212 103.883V91.9829C231.212 91.0229 231.112 90.9429 230.152 90.9429H229.452V90.7629H234.552V90.9429H233.852C232.892 90.9429 232.772 91.0629 232.772 92.0229V97.7429H234.292C237.352 97.7429 239.392 99.2229 239.392 101.443C239.392 103.663 237.352 105.143 234.292 105.143H229.452ZM232.772 98.0829V103.723C232.772 104.183 232.672 104.503 232.432 104.743V104.783H233.912C236.332 104.783 237.652 103.623 237.652 101.443C237.652 99.2629 236.332 98.0829 233.912 98.0829H232.772ZM246.668 90.5029C246.668 90.4029 246.908 90.3229 247.368 90.3229C247.828 90.3229 248.088 90.3829 248.088 90.5029C248.088 94.4029 247.568 97.1629 247.568 101.063H247.208C247.208 97.1629 246.668 94.4029 246.668 90.5029ZM247.368 103.543C247.888 103.543 248.268 103.883 248.268 104.443C248.268 104.963 247.928 105.323 247.368 105.323C246.848 105.323 246.488 105.003 246.488 104.443C246.488 103.923 246.808 103.543 247.368 103.543Z" fill="black"/>
</svg>
