<svg width="267" height="40" viewBox="0 0 267 40" fill="none" xmlns="http://www.w3.org/2000/svg">
<path d="M14.9933 14V13.847H15.2653C16.1323 13.847 16.2683 13.592 16.3193 12.64L16.7783 2.831C16.7783 2.712 16.7783 2.593 16.7783 2.474C16.7783 2.1 16.6763 1.93 15.9453 1.93H15.2653V1.777H17.7643L22.1673 11.518C22.3203 11.858 22.4223 12.147 22.4223 12.249H22.5073C22.5073 12.147 22.6263 11.773 22.7453 11.518L27.1483 1.777H29.6983V1.93H29.1203C28.2873 1.93 28.1683 2.185 28.1683 2.678C28.1683 2.814 28.1683 2.967 28.1853 3.137L28.5763 12.64C28.6103 13.609 28.7293 13.847 29.6643 13.847H30.0383V14H25.6013V13.847H26.2133C27.1313 13.847 27.2503 13.609 27.2503 13.201C27.2503 13.116 27.2503 13.014 27.2503 12.895L26.9103 3.936C26.8933 3.63 26.8933 3.375 26.8933 3.188H26.7913C26.7913 3.239 26.6723 3.528 26.5193 3.885L21.9463 14.068L21.8953 14.187H21.8613L21.8103 14.068L17.3053 4.072C17.1523 3.732 17.1183 3.409 17.1183 3.358H17.0503C17.0503 3.511 17.0503 3.63 17.0333 3.936L16.6083 12.861C16.5913 13.014 16.5743 13.15 16.5743 13.252C16.5743 13.66 16.7273 13.847 17.6623 13.847H18.2743V14H14.9933ZM39.1392 14V13.847H39.7342C40.5502 13.847 40.6352 13.779 40.6352 12.963V2.814C40.6352 1.998 40.5502 1.93 39.7342 1.93H39.1392V1.777H43.4742V1.964H42.8792C42.0632 1.964 41.9612 2.032 41.9612 2.848V12.963C41.9612 13.779 42.0632 13.847 42.8792 13.847H43.4742V14H39.1392ZM30.4862 14V13.83H31.0812C31.8972 13.83 31.9822 13.745 31.9822 12.929V2.814C31.9822 1.998 31.8972 1.93 31.0812 1.93H30.4862V1.777H34.8212V1.93H34.2262C33.4102 1.93 33.3082 2.032 33.3082 2.848V7.71H34.6002C37.2012 7.71 38.9352 8.968 38.9352 10.855C38.9352 12.742 37.2012 14 34.6002 14H30.4862ZM33.3082 7.999V12.793C33.3082 13.184 33.2232 13.456 33.0192 13.66V13.694H34.2772C36.3342 13.694 37.4562 12.708 37.4562 10.855C37.4562 9.002 36.3342 7.999 34.2772 7.999H33.3082ZM55.1099 14.136C51.3189 14.136 48.8029 11.637 48.8029 7.88C48.8029 4.14 51.3189 1.641 55.1099 1.641C58.8669 1.641 61.3829 4.14 61.3829 7.88C61.3829 11.637 58.8669 14.136 55.1099 14.136ZM55.1609 13.83C58.2379 13.83 59.9039 11.875 59.9039 8.203C59.9039 4.14 58.1869 1.947 55.0419 1.947C51.9479 1.947 50.2819 3.919 50.2819 7.574C50.2819 11.654 51.9819 13.83 55.1609 13.83ZM66.6101 14V13.847H67.2051C68.0211 13.847 68.1061 13.779 68.1061 12.963V8.73H65.5901C63.9241 8.73 63.0231 7.829 63.0231 6.163V2.831C63.0231 2.015 62.9381 1.93 62.1221 1.93H61.6801V1.777H65.2161V1.93H64.0771V1.964C64.1961 2.083 64.2301 2.134 64.2301 2.406V6.027C64.2301 7.608 64.7401 8.441 65.7261 8.441H68.1061V2.814C68.1061 1.998 68.0211 1.93 67.2051 1.93H66.6101V1.777H70.9451V1.964H70.3501C69.5341 1.964 69.4321 2.032 69.4321 2.848V12.963C69.4321 13.779 69.5341 13.847 70.3501 13.847H70.9451V14H66.6101ZM77.0328 10.498H76.8798V9.563C76.8798 7.931 75.9958 7.744 75.0438 7.744H74.3638V12.793C74.3638 13.167 74.1938 13.473 73.9898 13.677V13.694H77.3728C79.0048 13.694 79.7868 13.031 79.9058 11.399L80.0078 10.039H80.2798L79.9908 14.646H79.8378L79.8888 13.847H79.8718C79.7528 13.966 79.5148 14 79.2428 14H71.5418V13.847H72.1368C72.9528 13.847 73.0378 13.762 73.0378 12.946V2.831C73.0378 2.015 72.9528 1.93 72.1368 1.93H71.5418V1.777H78.3248C78.5968 1.777 78.8348 1.811 78.9538 1.93H78.9708L78.9198 1.148L79.0728 1.131L79.3788 5.738H79.0728L79.0048 4.548C78.9028 2.712 78.0188 2.083 76.3868 2.083H73.9898V2.1C74.1938 2.304 74.3638 2.61 74.3638 2.984V7.438H75.0438C75.9958 7.438 76.8798 7.268 76.8798 5.636V5.041H77.0328V10.498ZM80.9217 14V13.847H81.5167C82.3327 13.847 82.4177 13.609 82.4177 12.793V2.984C82.4177 2.168 82.3327 1.93 81.5167 1.93H80.9217V1.777H85.1037V1.93H84.6617C83.8457 1.93 83.7437 2.168 83.7437 2.984V7.421H88.4017V2.984C88.4017 2.168 88.2997 1.93 87.4837 1.93H87.0417V1.777H91.2407V1.93H90.6287C89.8127 1.93 89.7277 2.168 89.7277 2.984V12.793C89.7277 13.609 89.8127 13.847 90.6287 13.847H91.2407V14H87.0417V13.847H87.5007C88.3167 13.847 88.4017 13.609 88.4017 12.793V7.727H83.7437V12.793C83.7437 13.609 83.8457 13.847 84.6617 13.847H85.1037V14H80.9217ZM91.8289 14V13.83H92.4239C93.2399 13.83 93.3249 13.745 93.3249 12.929V2.814C93.3249 1.998 93.2399 1.93 92.4239 1.93H91.8289V1.777H96.1639V1.93H95.5689C94.7529 1.93 94.6509 2.032 94.6509 2.848V7.71H95.9429C98.5439 7.71 100.278 8.968 100.278 10.855C100.278 12.742 98.5439 14 95.9429 14H91.8289ZM94.6509 7.999V12.793C94.6509 13.184 94.5659 13.456 94.3619 13.66V13.694H95.6199C97.6769 13.694 98.7989 12.708 98.7989 10.855C98.7989 9.002 97.6769 7.999 95.6199 7.999H94.6509ZM119.366 11.926C116.289 11.926 114.249 9.869 114.249 6.775C114.249 3.698 116.289 1.641 119.366 1.641C122.409 1.641 124.449 3.698 124.449 6.775C124.449 9.869 122.409 11.926 119.366 11.926ZM119.417 11.62C121.712 11.62 122.97 10.039 122.97 7.098C122.97 3.766 121.678 1.947 119.298 1.947C116.969 1.947 115.728 3.545 115.728 6.469C115.728 9.818 117.003 11.62 119.417 11.62ZM109.557 8.339L107.415 12.521C107.177 12.98 107.041 13.286 107.041 13.49C107.041 13.779 107.279 13.864 107.857 13.864H108.435V14H105.392V13.864H105.545C106.242 13.864 106.514 13.609 107.075 12.521L109.387 7.982L107.194 3.256C106.684 2.168 106.344 1.93 105.868 1.93H105.681V1.777H108.588V1.93H107.67V1.964C107.908 2.049 108.333 2.474 108.537 2.899L110.407 6.928L112.413 3.205C112.634 2.78 112.77 2.491 112.77 2.287C112.77 2.032 112.549 1.93 112.022 1.93H111.427V1.777H114.266V1.93H114.062C113.552 1.93 113.314 2.168 112.736 3.256L110.577 7.302C113.297 13.167 115.83 14.357 118.635 14.357C120.692 14.357 122.732 13.439 123.956 12.385L124.33 12.062L124.432 12.181L124.058 12.504C122.392 13.949 120.284 14.816 118.108 14.816C114.623 14.816 111.648 12.844 109.557 8.339ZM126.709 14V13.847H128.001C128.817 13.847 128.902 13.762 128.902 12.946V2.083H127.882C126.25 2.083 125.672 2.406 125.587 4.038L125.519 4.752L125.23 4.718L125.485 0.773999L125.655 0.791L125.587 1.777H133.509L133.424 0.808L133.611 0.791L133.866 4.718L133.56 4.752L133.509 4.038C133.39 2.406 132.846 2.083 131.214 2.083H130.228V12.946C130.228 13.762 130.313 13.847 131.129 13.847H132.387V14H126.709ZM134.429 14V13.847H135.024C135.84 13.847 135.925 13.609 135.925 12.793V2.984C135.925 2.168 135.84 1.93 135.024 1.93H134.429V1.777H138.611V1.93H138.169C137.353 1.93 137.251 2.168 137.251 2.984V12.844L142.079 1.777H144.748V1.93H144.136C143.32 1.93 143.235 2.168 143.235 2.984V12.793C143.235 13.609 143.32 13.847 144.136 13.847H144.748V14H140.549V13.847H141.008C141.824 13.847 141.909 13.609 141.909 12.793V2.933L137.081 14H134.429ZM145.183 14V13.847H145.455C146.322 13.847 146.458 13.592 146.509 12.64L146.968 2.831C146.968 2.712 146.968 2.593 146.968 2.474C146.968 2.1 146.866 1.93 146.135 1.93H145.455V1.777H147.954L152.357 11.518C152.51 11.858 152.612 12.147 152.612 12.249H152.697C152.697 12.147 152.816 11.773 152.935 11.518L157.338 1.777H159.888V1.93H159.31C158.477 1.93 158.358 2.185 158.358 2.678C158.358 2.814 158.358 2.967 158.375 3.137L158.766 12.64C158.8 13.609 158.919 13.847 159.854 13.847H160.228V14H155.791V13.847H156.403C157.321 13.847 157.44 13.609 157.44 13.201C157.44 13.116 157.44 13.014 157.44 12.895L157.1 3.936C157.083 3.63 157.083 3.375 157.083 3.188H156.981C156.981 3.239 156.862 3.528 156.709 3.885L152.136 14.068L152.085 14.187H152.051L152 14.068L147.495 4.072C147.342 3.732 147.308 3.409 147.308 3.358H147.24C147.24 3.511 147.24 3.63 147.223 3.936L146.798 12.861C146.781 13.014 146.764 13.15 146.764 13.252C146.764 13.66 146.917 13.847 147.852 13.847H148.464V14H145.183ZM161.39 15.377C161.849 15.377 162.274 14.918 162.359 14.442C162.376 14.323 162.393 14.136 162.427 14.068L162.376 14.034C162.325 14.102 162.155 14.153 162.036 14.153C161.543 14.153 161.271 13.898 161.271 13.405C161.271 12.912 161.543 12.64 162.036 12.64C162.495 12.64 162.784 12.946 162.784 13.405C162.784 14.68 162.223 15.53 161.39 15.53V15.377ZM173.425 14V13.847H174.02C174.836 13.847 174.921 13.779 174.921 12.963V8.73H172.405C170.739 8.73 169.838 7.829 169.838 6.163V2.831C169.838 2.015 169.753 1.93 168.937 1.93H168.495V1.777H172.031V1.93H170.892V1.964C171.011 2.083 171.045 2.134 171.045 2.406V6.027C171.045 7.608 171.555 8.441 172.541 8.441H174.921V2.814C174.921 1.998 174.836 1.93 174.02 1.93H173.425V1.777H177.76V1.964H177.165C176.349 1.964 176.247 2.032 176.247 2.848V12.963C176.247 13.779 176.349 13.847 177.165 13.847H177.76V14H173.425ZM179.784 14V13.847H181.076C181.892 13.847 181.977 13.762 181.977 12.946V2.083H180.957C179.325 2.083 178.747 2.406 178.662 4.038L178.594 4.752L178.305 4.718L178.56 0.773999L178.73 0.791L178.662 1.777H186.584L186.499 0.808L186.686 0.791L186.941 4.718L186.635 4.752L186.584 4.038C186.465 2.406 185.921 2.083 184.289 2.083H183.303V12.946C183.303 13.762 183.388 13.847 184.204 13.847H185.462V14H179.784ZM193.899 14.136C190.108 14.136 187.592 11.637 187.592 7.88C187.592 4.14 190.108 1.641 193.899 1.641C197.656 1.641 200.172 4.14 200.172 7.88C200.172 11.637 197.656 14.136 193.899 14.136ZM193.95 13.83C197.027 13.83 198.693 11.875 198.693 8.203C198.693 4.14 196.976 1.947 193.831 1.947C190.737 1.947 189.071 3.919 189.071 7.574C189.071 11.654 190.771 13.83 193.95 13.83ZM201.001 14V13.83H201.596C202.412 13.83 202.497 13.745 202.497 12.929V2.831C202.497 2.015 202.412 1.93 201.596 1.93H201.001V1.777H208.073C208.345 1.777 208.413 1.811 208.532 1.93H208.549L208.481 0.773999L208.634 0.756999L208.957 5.738H208.651L208.583 4.548C208.464 2.729 207.138 2.083 205.506 2.083H203.449V2.1C203.653 2.304 203.823 2.61 203.823 2.984V7.37H205.013C208.09 7.37 210.13 8.696 210.13 10.685C210.13 12.674 208.26 14 205.455 14H201.001ZM203.823 7.659V12.793C203.823 13.184 203.738 13.456 203.534 13.66V13.694H205.132C207.41 13.694 208.651 12.657 208.651 10.685C208.651 8.73 207.376 7.659 205.03 7.659H203.823ZM219.382 14V13.847H219.977C220.793 13.847 220.878 13.779 220.878 12.963V2.814C220.878 1.998 220.793 1.93 219.977 1.93H219.382V1.777H223.717V1.964H223.122C222.306 1.964 222.204 2.032 222.204 2.848V12.963C222.204 13.779 222.306 13.847 223.122 13.847H223.717V14H219.382ZM210.729 14V13.83H211.324C212.14 13.83 212.225 13.745 212.225 12.929V2.814C212.225 1.998 212.14 1.93 211.324 1.93H210.729V1.777H215.064V1.93H214.469C213.653 1.93 213.551 2.032 213.551 2.848V7.71H214.843C217.444 7.71 219.178 8.968 219.178 10.855C219.178 12.742 217.444 14 214.843 14H210.729ZM213.551 7.999V12.793C213.551 13.184 213.466 13.456 213.262 13.66V13.694H214.52C216.577 13.694 217.699 12.708 217.699 10.855C217.699 9.002 216.577 7.999 214.52 7.999H213.551ZM231.358 13.694H233.296C235.404 13.694 236.815 12.402 236.815 10.464C236.815 8.424 235.302 6.962 233.194 6.962H232.293V6.673H232.973C234.469 6.673 235.557 5.721 235.557 4.378C235.557 3.001 234.418 2.083 232.735 2.083H231.358V2.1C231.562 2.304 231.647 2.593 231.647 2.984V12.793C231.647 13.184 231.562 13.456 231.358 13.66V13.694ZM228.825 14V13.847H229.42C230.236 13.847 230.321 13.762 230.321 12.946V2.831C230.321 2.015 230.236 1.93 229.42 1.93H228.825V1.777H232.973C235.387 1.777 237.002 2.814 237.002 4.344C237.002 5.313 236.118 6.503 234.554 6.724V6.792C236.764 6.945 238.294 8.73 238.294 10.464C238.294 12.589 236.237 14 233.602 14H228.825ZM247.539 14V13.847H248.134C248.95 13.847 249.035 13.779 249.035 12.963V2.814C249.035 1.998 248.95 1.93 248.134 1.93H247.539V1.777H251.874V1.964H251.279C250.463 1.964 250.361 2.032 250.361 2.848V12.963C250.361 13.779 250.463 13.847 251.279 13.847H251.874V14H247.539ZM238.886 14V13.83H239.481C240.297 13.83 240.382 13.745 240.382 12.929V2.814C240.382 1.998 240.297 1.93 239.481 1.93H238.886V1.777H243.221V1.93H242.626C241.81 1.93 241.708 2.032 241.708 2.848V7.71H243C245.601 7.71 247.335 8.968 247.335 10.855C247.335 12.742 245.601 14 243 14H238.886ZM241.708 7.999V12.793C241.708 13.184 241.623 13.456 241.419 13.66V13.694H242.677C244.734 13.694 245.856 12.708 245.856 10.855C245.856 9.002 244.734 7.999 242.677 7.999H241.708ZM3.30238 25.1V25.185C3.50638 25.457 3.59138 25.848 3.59138 26.239V31.934H4.54338C6.68538 31.934 7.84138 30.744 7.84138 28.517C7.84138 26.307 6.68538 25.1 4.54338 25.1H3.30238ZM0.769379 37V36.847H1.36438C2.18038 36.847 2.26538 36.762 2.26538 35.946V25.831C2.26538 25.015 2.18038 24.93 1.36438 24.93H0.769379V24.777H5.05338C7.60338 24.777 9.32038 26.273 9.32038 28.517C9.32038 30.761 7.60338 32.24 5.05338 32.24H3.59138V35.946C3.59138 36.762 3.69338 36.847 4.50938 36.847H4.93438V37H0.769379ZM8.18629 37V36.847H8.45829C8.88329 36.847 9.13829 36.371 9.39329 35.793L14.1533 24.777H15.4793V24.981C15.4793 25.321 15.5473 25.763 15.6323 25.967L19.6443 35.793C19.9843 36.609 20.0863 36.847 20.6473 36.847H20.7833V37H17.5363V36.847H18.8453V36.813C18.6243 36.728 18.4373 36.303 18.3183 36.014L17.3663 33.685H10.6343L9.71629 35.793C9.64829 35.946 9.61429 36.065 9.61429 36.184C9.61429 36.592 9.93729 36.847 10.4473 36.847H11.2803V37H8.18629ZM10.7533 33.379H17.2303L14.3573 26.29C14.2383 26.018 14.2213 25.797 14.2213 25.61H14.0683C14.0683 25.712 14.0173 25.933 13.8643 26.29L10.7533 33.379ZM23.1385 30.132V29.826H23.7505C25.1275 29.826 26.1645 28.67 26.1645 27.174C26.1645 25.729 25.2465 24.947 23.9035 24.947C22.3055 24.947 21.7275 26.205 21.6425 27.293V27.854H21.3535V24.811H21.5065V25.491L21.5575 25.508C21.6255 25.389 21.7955 25.219 21.9315 25.151C22.4755 24.828 23.2745 24.658 23.8865 24.641C25.7735 24.641 27.2185 25.644 27.2185 27.14C27.2185 28.398 26.0965 29.724 24.9915 29.928V29.945C26.6745 30.166 27.9835 31.9 27.9835 33.685C27.9835 35.759 26.2325 37.136 23.8865 37.136C22.9855 37.136 21.8465 36.728 21.0135 35.895L21.2175 35.691C21.9825 36.456 23.0705 36.83 23.8865 36.83C25.5865 36.83 26.7085 35.742 26.7085 33.685C26.7085 31.628 25.5525 30.132 24.0055 30.132H23.1385ZM28.3584 36.694H29.5314C30.7724 35.623 32.5064 33.022 32.5234 29.639V26.188C32.5234 24.998 32.3874 24.93 31.1974 24.93H30.8234V24.777H39.1024V24.93H38.4904C37.6744 24.93 37.5894 25.168 37.5894 25.984V36.694H39.1024V39.856H38.4904V38.054C38.4904 37.238 38.3884 37 37.5724 37H29.8884C29.0724 37 28.9704 37.238 28.9704 38.054V39.856H28.3584V36.694ZM31.4014 36.694H36.2634V25.083H32.9654V29.231C32.9654 32.614 32.2344 35.198 31.4014 36.694ZM45.2574 33.498H45.1044V32.563C45.1044 30.931 44.2204 30.744 43.2684 30.744H42.5884V35.793C42.5884 36.167 42.4184 36.473 42.2144 36.677V36.694H45.5974C47.2294 36.694 48.0114 36.031 48.1305 34.399L48.2324 33.039H48.5044L48.2154 37.646H48.0624L48.1134 36.847H48.0964C47.9775 36.966 47.7394 37 47.4674 37H39.7664V36.847H40.3614C41.1774 36.847 41.2624 36.762 41.2624 35.946V25.831C41.2624 25.015 41.1774 24.93 40.3614 24.93H39.7664V24.777H46.5494C46.8214 24.777 47.0594 24.811 47.1784 24.93H47.1954L47.1444 24.148L47.2974 24.131L47.6034 28.738H47.2974L47.2294 27.548C47.1274 25.712 46.2434 25.083 44.6114 25.083H42.2144V25.1C42.4184 25.304 42.5884 25.61 42.5884 25.984V30.438H43.2684C44.2204 30.438 45.1044 30.268 45.1044 28.636V28.041H45.2574V33.498ZM50.5063 24.777H51.9683H56.6263H59.4653V24.93H58.8533C58.0373 24.93 57.9523 25.168 57.9523 25.984V35.793C57.9523 36.609 58.0373 36.847 58.8533 36.847H59.4653V37H55.2663V36.847H55.7253C56.5413 36.847 56.6263 36.609 56.6263 35.793V25.083H52.6483V29.231C52.6483 33.77 51.3393 36.677 50.2003 37.629L49.2143 36.49C50.4553 35.402 52.1893 33.022 52.2063 29.639V26.188C52.2063 24.998 52.0703 24.93 50.8803 24.93H50.5063V24.777ZM60.0536 37V36.847H60.6486C61.4646 36.847 61.5496 36.609 61.5496 35.793V25.984C61.5496 25.168 61.4646 24.93 60.6486 24.93H60.0536V24.777H64.2356V24.93H63.7936C62.9776 24.93 62.8756 25.168 62.8756 25.984V35.844L67.7036 24.777H70.3726V24.93H69.7606C68.9446 24.93 68.8596 25.168 68.8596 25.984V35.793C68.8596 36.609 68.9446 36.847 69.7606 36.847H70.3726V37H66.1736V36.847H66.6326C67.4486 36.847 67.5336 36.609 67.5336 35.793V25.933L62.7056 37H60.0536ZM72.3208 24.777H73.7828H78.4408H81.2798V24.93H80.6678C79.8518 24.93 79.7668 25.168 79.7668 25.984V35.793C79.7668 36.609 79.8518 36.847 80.6678 36.847H81.2798V37H77.0808V36.847H77.5398C78.3558 36.847 78.4408 36.609 78.4408 35.793V25.083H74.4628V29.231C74.4628 33.77 73.1538 36.677 72.0148 37.629L71.0288 36.49C72.2698 35.402 74.0038 33.022 74.0208 29.639V26.188C74.0208 24.998 73.8848 24.93 72.6948 24.93H72.3208V24.777ZM81.868 37V36.847H82.463C83.279 36.847 83.364 36.609 83.364 35.793V25.984C83.364 25.168 83.279 24.93 82.463 24.93H81.868V24.777H86.05V24.93H85.608C84.792 24.93 84.69 25.168 84.69 25.984V35.844L89.518 24.777H92.187V24.93H91.575C90.759 24.93 90.674 25.168 90.674 25.984V35.793C90.674 36.609 90.759 36.847 91.575 36.847H92.187V37H87.988V36.847H88.447C89.263 36.847 89.348 36.609 89.348 35.793V25.933L84.52 37H81.868ZM102.782 33.498H102.629V32.563C102.629 30.931 101.745 30.744 100.793 30.744H100.113V35.793C100.113 36.167 99.9429 36.473 99.7389 36.677V36.694H103.122C104.754 36.694 105.536 36.031 105.655 34.399L105.757 33.039H106.029L105.74 37.646H105.587L105.638 36.847H105.621C105.502 36.966 105.264 37 104.992 37H97.2909V36.847H97.8859C98.7019 36.847 98.7869 36.762 98.7869 35.946V25.831C98.7869 25.015 98.7019 24.93 97.8859 24.93H97.2909V24.777H104.074C104.346 24.777 104.584 24.811 104.703 24.93H104.72L104.669 24.148L104.822 24.131L105.128 28.738H104.822L104.754 27.548C104.652 25.712 103.768 25.083 102.136 25.083H99.7389V25.1C99.9429 25.304 100.113 25.61 100.113 25.984V30.438H100.793C101.745 30.438 102.629 30.268 102.629 28.636V28.041H102.782V33.498ZM106.671 37V36.847H107.266C108.082 36.847 108.167 36.762 108.167 35.946V25.831C108.167 25.015 108.082 24.93 107.266 24.93H106.671V24.777H113.063C113.335 24.777 113.403 24.811 113.522 24.93H113.539L113.471 23.774L113.624 23.757L113.947 28.738H113.641L113.573 27.548C113.471 25.712 112.128 25.083 110.496 25.083H109.119V25.1C109.323 25.304 109.493 25.61 109.493 25.984V35.946C109.493 36.762 109.595 36.847 110.411 36.847H111.516V37H106.671ZM120.985 37.136C117.194 37.136 114.678 34.637 114.678 30.88C114.678 27.14 117.194 24.641 120.985 24.641C124.742 24.641 127.258 27.14 127.258 30.88C127.258 34.637 124.742 37.136 120.985 37.136ZM121.036 36.83C124.113 36.83 125.779 34.875 125.779 31.203C125.779 27.14 124.062 24.947 120.917 24.947C117.823 24.947 116.157 26.919 116.157 30.574C116.157 34.654 117.857 36.83 121.036 36.83ZM135.135 36.694H137.073C139.181 36.694 140.592 35.402 140.592 33.464C140.592 31.424 139.079 29.962 136.971 29.962H136.07V29.673H136.75C138.246 29.673 139.334 28.721 139.334 27.378C139.334 26.001 138.195 25.083 136.512 25.083H135.135V25.1C135.339 25.304 135.424 25.593 135.424 25.984V35.793C135.424 36.184 135.339 36.456 135.135 36.66V36.694ZM132.602 37V36.847H133.197C134.013 36.847 134.098 36.762 134.098 35.946V25.831C134.098 25.015 134.013 24.93 133.197 24.93H132.602V24.777H136.75C139.164 24.777 140.779 25.814 140.779 27.344C140.779 28.313 139.895 29.503 138.331 29.724V29.792C140.541 29.945 142.071 31.73 142.071 33.464C142.071 35.589 140.014 37 137.379 37H132.602ZM142.377 37V36.847H142.649C143.516 36.847 143.652 36.592 143.703 35.64L144.162 25.831C144.162 25.712 144.162 25.593 144.162 25.474C144.162 25.1 144.06 24.93 143.329 24.93H142.649V24.777H145.148L149.551 34.518C149.704 34.858 149.806 35.147 149.806 35.249H149.891C149.891 35.147 150.01 34.773 150.129 34.518L154.532 24.777H157.082V24.93H156.504C155.671 24.93 155.552 25.185 155.552 25.678C155.552 25.814 155.552 25.967 155.569 26.137L155.96 35.64C155.994 36.609 156.113 36.847 157.048 36.847H157.422V37H152.985V36.847H153.597C154.515 36.847 154.634 36.609 154.634 36.201C154.634 36.116 154.634 36.014 154.634 35.895L154.294 26.936C154.277 26.63 154.277 26.375 154.277 26.188H154.175C154.175 26.239 154.056 26.528 153.903 26.885L149.33 37.068L149.279 37.187H149.245L149.194 37.068L144.689 27.072C144.536 26.732 144.502 26.409 144.502 26.358H144.434C144.434 26.511 144.434 26.63 144.417 26.936L143.992 35.861C143.975 36.014 143.958 36.15 143.958 36.252C143.958 36.66 144.111 36.847 145.046 36.847H145.658V37H142.377ZM163.361 33.498H163.208V32.563C163.208 30.931 162.324 30.744 161.372 30.744H160.692V35.793C160.692 36.167 160.522 36.473 160.318 36.677V36.694H163.701C165.333 36.694 166.115 36.031 166.234 34.399L166.336 33.039H166.608L166.319 37.646H166.166L166.217 36.847H166.2C166.081 36.966 165.843 37 165.571 37H157.87V36.847H158.465C159.281 36.847 159.366 36.762 159.366 35.946V25.831C159.366 25.015 159.281 24.93 158.465 24.93H157.87V24.777H164.653C164.925 24.777 165.163 24.811 165.282 24.93H165.299L165.248 24.148L165.401 24.131L165.707 28.738H165.401L165.333 27.548C165.231 25.712 164.347 25.083 162.715 25.083H160.318V25.1C160.522 25.304 160.692 25.61 160.692 25.984V30.438H161.372C162.324 30.438 163.208 30.268 163.208 28.636V28.041H163.361V33.498ZM167.539 30.846C167.539 27.123 169.902 24.641 173.472 24.641C174.611 24.641 175.716 24.998 176.583 25.729C176.668 25.814 176.736 25.95 176.77 26.069L176.889 26.035C176.855 25.899 176.838 25.729 176.838 25.542L176.804 24.318L176.957 24.301L177.11 29.214L176.804 29.231L176.753 27.65C176.668 26.12 175.019 24.93 173.336 24.93C170.548 24.93 169.052 26.919 169.052 30.574C169.052 34.654 170.616 36.83 173.523 36.83C175.138 36.83 176.702 35.946 177.297 34.518L177.586 34.62C176.906 36.32 175.274 37.136 173.489 37.136C169.919 37.136 167.539 34.62 167.539 30.846ZM179.585 37V36.847H180.877C181.693 36.847 181.778 36.762 181.778 35.946V25.083H180.758C179.126 25.083 178.548 25.406 178.463 27.038L178.395 27.752L178.106 27.718L178.361 23.774L178.531 23.791L178.463 24.777H186.385L186.3 23.808L186.487 23.791L186.742 27.718L186.436 27.752L186.385 27.038C186.266 25.406 185.722 25.083 184.09 25.083H183.104V35.946C183.104 36.762 183.189 36.847 184.005 36.847H185.263V37H179.585ZM192.796 33.498H192.643V32.563C192.643 30.931 191.759 30.744 190.807 30.744H190.127V35.793C190.127 36.167 189.957 36.473 189.753 36.677V36.694H193.136C194.768 36.694 195.55 36.031 195.669 34.399L195.771 33.039H196.043L195.754 37.646H195.601L195.652 36.847H195.635C195.516 36.966 195.278 37 195.006 37H187.305V36.847H187.9C188.716 36.847 188.801 36.762 188.801 35.946V25.831C188.801 25.015 188.716 24.93 187.9 24.93H187.305V24.777H194.088C194.36 24.777 194.598 24.811 194.717 24.93H194.734L194.683 24.148L194.836 24.131L195.142 28.738H194.836L194.768 27.548C194.666 25.712 193.782 25.083 192.15 25.083H189.753V25.1C189.957 25.304 190.127 25.61 190.127 25.984V30.438H190.807C191.759 30.438 192.643 30.268 192.643 28.636V28.041H192.796V33.498ZM201.489 30.846C201.489 27.123 203.852 24.641 207.422 24.641C208.561 24.641 209.666 24.998 210.533 25.729C210.618 25.814 210.686 25.95 210.72 26.069L210.839 26.035C210.805 25.899 210.788 25.729 210.788 25.542L210.754 24.318L210.907 24.301L211.06 29.214L210.754 29.231L210.703 27.65C210.618 26.12 208.969 24.93 207.286 24.93C204.498 24.93 203.002 26.919 203.002 30.574C203.002 34.654 204.566 36.83 207.473 36.83C209.088 36.83 210.652 35.946 211.247 34.518L211.536 34.62C210.856 36.32 209.224 37.136 207.439 37.136C203.869 37.136 201.489 34.62 201.489 30.846ZM216.806 37V36.847H217.401C218.217 36.847 218.302 36.609 218.302 35.793V25.984C218.302 25.168 218.217 24.93 217.401 24.93H216.806V24.777H220.988V24.93H220.546C219.73 24.93 219.628 25.168 219.628 25.984V30.421H224.286V25.984C224.286 25.168 224.184 24.93 223.368 24.93H222.926V24.777H227.125V24.93H226.513C225.697 24.93 225.612 25.168 225.612 25.984V35.793C225.612 36.609 225.697 36.847 226.513 36.847H227.125V37H222.926V36.847H223.385C224.201 36.847 224.286 36.609 224.286 35.793V30.727H219.628V35.793C219.628 36.609 219.73 36.847 220.546 36.847H220.988V37H216.806ZM227.543 37V36.847H227.815C228.24 36.847 228.495 36.371 228.75 35.793L233.51 24.777H234.836V24.981C234.836 25.321 234.904 25.763 234.989 25.967L239.001 35.793C239.341 36.609 239.443 36.847 240.004 36.847H240.14V37H236.893V36.847H238.202V36.813C237.981 36.728 237.794 36.303 237.675 36.014L236.723 33.685H229.991L229.073 35.793C229.005 35.946 228.971 36.065 228.971 36.184C228.971 36.592 229.294 36.847 229.804 36.847H230.637V37H227.543ZM230.11 33.379H236.587L233.714 26.29C233.595 26.018 233.578 25.797 233.578 25.61H233.425C233.425 25.712 233.374 25.933 233.221 26.29L230.11 33.379ZM240.443 37V36.847H240.715C241.582 36.847 241.718 36.592 241.769 35.64L242.228 25.831C242.228 25.712 242.228 25.593 242.228 25.474C242.228 25.1 242.126 24.93 241.395 24.93H240.715V24.777H243.214L247.617 34.518C247.77 34.858 247.872 35.147 247.872 35.249H247.957C247.957 35.147 248.076 34.773 248.195 34.518L252.598 24.777H255.148V24.93H254.57C253.737 24.93 253.618 25.185 253.618 25.678C253.618 25.814 253.618 25.967 253.635 26.137L254.026 35.64C254.06 36.609 254.179 36.847 255.114 36.847H255.488V37H251.051V36.847H251.663C252.581 36.847 252.7 36.609 252.7 36.201C252.7 36.116 252.7 36.014 252.7 35.895L252.36 26.936C252.343 26.63 252.343 26.375 252.343 26.188H252.241C252.241 26.239 252.122 26.528 251.969 26.885L247.396 37.068L247.345 37.187H247.311L247.26 37.068L242.755 27.072C242.602 26.732 242.568 26.409 242.568 26.358H242.5C242.5 26.511 242.5 26.63 242.483 26.936L242.058 35.861C242.041 36.014 242.024 36.15 242.024 36.252C242.024 36.66 242.177 36.847 243.112 36.847H243.724V37H240.443ZM255.935 37V36.847H256.53C257.346 36.847 257.431 36.609 257.431 35.793V25.984C257.431 25.168 257.346 24.93 256.53 24.93H255.935V24.777H260.117V24.93H259.675C258.859 24.93 258.757 25.168 258.757 25.984V35.844L263.585 24.777H266.254V24.93H265.642C264.826 24.93 264.741 25.168 264.741 25.984V35.793C264.741 36.609 264.826 36.847 265.642 36.847H266.254V37H262.055V36.847H262.514C263.33 36.847 263.415 36.609 263.415 35.793V25.933L258.587 37H255.935Z" fill="black"/>
</svg>
